G04 #@! TF.GenerationSoftware,KiCad,Pcbnew,(5.1.5)-3*
G04 #@! TF.CreationDate,2020-12-02T12:44:04-08:00*
G04 #@! TF.ProjectId,USonicTherminNoName,55536f6e-6963-4546-9865-726d696e4e6f,1.0*
G04 #@! TF.SameCoordinates,Original*
G04 #@! TF.FileFunction,Legend,Bot*
G04 #@! TF.FilePolarity,Positive*
%FSLAX46Y46*%
G04 Gerber Fmt 4.6, Leading zero omitted, Abs format (unit mm)*
G04 Created by KiCad (PCBNEW (5.1.5)-3) date 2020-12-02 12:44:04*
%MOMM*%
%LPD*%
G04 APERTURE LIST*
%ADD10C,0.100000*%
%ADD11C,0.120000*%
%ADD12C,0.150000*%
G04 APERTURE END LIST*
D10*
X119971820Y-110865920D02*
X119971820Y-111325660D01*
X119971820Y-111325660D02*
X120048020Y-111325660D01*
X120048020Y-111325660D02*
X120048020Y-110865920D01*
X120048020Y-110865920D02*
X119971820Y-110865920D01*
X119971820Y-113667540D02*
X119971820Y-113202720D01*
X119971820Y-113202720D02*
X120048020Y-113202720D01*
X120048020Y-113202720D02*
X120048020Y-113667540D01*
X120048020Y-113667540D02*
X119971820Y-113667540D01*
X123662000Y-110868000D02*
X123262000Y-110868000D01*
X123662000Y-110868000D02*
X123662000Y-111268000D01*
X119162000Y-110868000D02*
X119562000Y-110868000D01*
X119162000Y-110868000D02*
X119162000Y-111268000D01*
X119162000Y-113668000D02*
X119162000Y-113268000D01*
X119162000Y-113668000D02*
X119562000Y-113668000D01*
X123662000Y-113668000D02*
X123262000Y-113668000D01*
X123662000Y-113668000D02*
X123662000Y-113268000D01*
D11*
X111404000Y-114661422D02*
X111404000Y-115178578D01*
X112824000Y-114661422D02*
X112824000Y-115178578D01*
D10*
X147911000Y-119289000D02*
X147586000Y-118989000D01*
X147586000Y-118989000D02*
X147186000Y-118989000D01*
X149186000Y-118989000D02*
X149186000Y-119289000D01*
X149186000Y-119289000D02*
X148886000Y-119289000D01*
X147586000Y-117114000D02*
X147586000Y-116839000D01*
X147586000Y-116839000D02*
X147836000Y-116839000D01*
X149186000Y-117139000D02*
X149186000Y-116839000D01*
X149186000Y-116839000D02*
X148961000Y-116839000D01*
D11*
X120451221Y-117910000D02*
X120776779Y-117910000D01*
X120451221Y-118930000D02*
X120776779Y-118930000D01*
X145744000Y-115750078D02*
X145744000Y-115232922D01*
X144324000Y-115750078D02*
X144324000Y-115232922D01*
X150928000Y-116581422D02*
X150928000Y-117098578D01*
X152348000Y-116581422D02*
X152348000Y-117098578D01*
X154484000Y-117098578D02*
X154484000Y-116581422D01*
X155904000Y-117098578D02*
X155904000Y-116581422D01*
X144324000Y-119812578D02*
X144324000Y-119295422D01*
X145744000Y-119812578D02*
X145744000Y-119295422D01*
X115814000Y-115466000D02*
X117614000Y-115466000D01*
X117614000Y-118686000D02*
X115164000Y-118686000D01*
D12*
X121852095Y-108872380D02*
X121852095Y-107872380D01*
X121614000Y-107872380D01*
X121471142Y-107920000D01*
X121375904Y-108015238D01*
X121328285Y-108110476D01*
X121280666Y-108300952D01*
X121280666Y-108443809D01*
X121328285Y-108634285D01*
X121375904Y-108729523D01*
X121471142Y-108824761D01*
X121614000Y-108872380D01*
X121852095Y-108872380D01*
X120328285Y-108872380D02*
X120899714Y-108872380D01*
X120614000Y-108872380D02*
X120614000Y-107872380D01*
X120709238Y-108015238D01*
X120804476Y-108110476D01*
X120899714Y-108158095D01*
X110821142Y-114753333D02*
X110868761Y-114705714D01*
X110916380Y-114562857D01*
X110916380Y-114467619D01*
X110868761Y-114324761D01*
X110773523Y-114229523D01*
X110678285Y-114181904D01*
X110487809Y-114134285D01*
X110344952Y-114134285D01*
X110154476Y-114181904D01*
X110059238Y-114229523D01*
X109964000Y-114324761D01*
X109916380Y-114467619D01*
X109916380Y-114562857D01*
X109964000Y-114705714D01*
X110011619Y-114753333D01*
X109916380Y-115086666D02*
X109916380Y-115705714D01*
X110297333Y-115372380D01*
X110297333Y-115515238D01*
X110344952Y-115610476D01*
X110392571Y-115658095D01*
X110487809Y-115705714D01*
X110725904Y-115705714D01*
X110821142Y-115658095D01*
X110868761Y-115610476D01*
X110916380Y-115515238D01*
X110916380Y-115229523D01*
X110868761Y-115134285D01*
X110821142Y-115086666D01*
X148511238Y-116101619D02*
X148606476Y-116054000D01*
X148701714Y-115958761D01*
X148844571Y-115815904D01*
X148939809Y-115768285D01*
X149035047Y-115768285D01*
X148987428Y-116006380D02*
X149082666Y-115958761D01*
X149177904Y-115863523D01*
X149225523Y-115673047D01*
X149225523Y-115339714D01*
X149177904Y-115149238D01*
X149082666Y-115054000D01*
X148987428Y-115006380D01*
X148796952Y-115006380D01*
X148701714Y-115054000D01*
X148606476Y-115149238D01*
X148558857Y-115339714D01*
X148558857Y-115673047D01*
X148606476Y-115863523D01*
X148701714Y-115958761D01*
X148796952Y-116006380D01*
X148987428Y-116006380D01*
X147606476Y-116006380D02*
X148177904Y-116006380D01*
X147892190Y-116006380D02*
X147892190Y-115006380D01*
X147987428Y-115149238D01*
X148082666Y-115244476D01*
X148177904Y-115292095D01*
X112066380Y-117753333D02*
X111590190Y-117420000D01*
X112066380Y-117181904D02*
X111066380Y-117181904D01*
X111066380Y-117562857D01*
X111114000Y-117658095D01*
X111161619Y-117705714D01*
X111256857Y-117753333D01*
X111399714Y-117753333D01*
X111494952Y-117705714D01*
X111542571Y-117658095D01*
X111590190Y-117562857D01*
X111590190Y-117181904D01*
X111066380Y-118610476D02*
X111066380Y-118420000D01*
X111114000Y-118324761D01*
X111161619Y-118277142D01*
X111304476Y-118181904D01*
X111494952Y-118134285D01*
X111875904Y-118134285D01*
X111971142Y-118181904D01*
X112018761Y-118229523D01*
X112066380Y-118324761D01*
X112066380Y-118515238D01*
X112018761Y-118610476D01*
X111971142Y-118658095D01*
X111875904Y-118705714D01*
X111637809Y-118705714D01*
X111542571Y-118658095D01*
X111494952Y-118610476D01*
X111447333Y-118515238D01*
X111447333Y-118324761D01*
X111494952Y-118229523D01*
X111542571Y-118181904D01*
X111637809Y-118134285D01*
X122661619Y-118086666D02*
X123137809Y-118420000D01*
X122661619Y-118658095D02*
X123661619Y-118658095D01*
X123661619Y-118277142D01*
X123614000Y-118181904D01*
X123566380Y-118134285D01*
X123471142Y-118086666D01*
X123328285Y-118086666D01*
X123233047Y-118134285D01*
X123185428Y-118181904D01*
X123137809Y-118277142D01*
X123137809Y-118658095D01*
X122661619Y-117134285D02*
X122661619Y-117705714D01*
X122661619Y-117420000D02*
X123661619Y-117420000D01*
X123518761Y-117515238D01*
X123423523Y-117610476D01*
X123375904Y-117705714D01*
X145256857Y-113372380D02*
X145590190Y-112896190D01*
X145828285Y-113372380D02*
X145828285Y-112372380D01*
X145447333Y-112372380D01*
X145352095Y-112420000D01*
X145304476Y-112467619D01*
X145256857Y-112562857D01*
X145256857Y-112705714D01*
X145304476Y-112800952D01*
X145352095Y-112848571D01*
X145447333Y-112896190D01*
X145828285Y-112896190D01*
X144304476Y-113372380D02*
X144875904Y-113372380D01*
X144590190Y-113372380D02*
X144590190Y-112372380D01*
X144685428Y-112515238D01*
X144780666Y-112610476D01*
X144875904Y-112658095D01*
X143447333Y-112372380D02*
X143637809Y-112372380D01*
X143733047Y-112420000D01*
X143780666Y-112467619D01*
X143875904Y-112610476D01*
X143923523Y-112800952D01*
X143923523Y-113181904D01*
X143875904Y-113277142D01*
X143828285Y-113324761D01*
X143733047Y-113372380D01*
X143542571Y-113372380D01*
X143447333Y-113324761D01*
X143399714Y-113277142D01*
X143352095Y-113181904D01*
X143352095Y-112943809D01*
X143399714Y-112848571D01*
X143447333Y-112800952D01*
X143542571Y-112753333D01*
X143733047Y-112753333D01*
X143828285Y-112800952D01*
X143875904Y-112848571D01*
X143923523Y-112943809D01*
X152090380Y-112777142D02*
X151614190Y-112443809D01*
X152090380Y-112205714D02*
X151090380Y-112205714D01*
X151090380Y-112586666D01*
X151138000Y-112681904D01*
X151185619Y-112729523D01*
X151280857Y-112777142D01*
X151423714Y-112777142D01*
X151518952Y-112729523D01*
X151566571Y-112681904D01*
X151614190Y-112586666D01*
X151614190Y-112205714D01*
X152090380Y-113729523D02*
X152090380Y-113158095D01*
X152090380Y-113443809D02*
X151090380Y-113443809D01*
X151233238Y-113348571D01*
X151328476Y-113253333D01*
X151376095Y-113158095D01*
X151090380Y-114062857D02*
X151090380Y-114681904D01*
X151471333Y-114348571D01*
X151471333Y-114491428D01*
X151518952Y-114586666D01*
X151566571Y-114634285D01*
X151661809Y-114681904D01*
X151899904Y-114681904D01*
X151995142Y-114634285D01*
X152042761Y-114586666D01*
X152090380Y-114491428D01*
X152090380Y-114205714D01*
X152042761Y-114110476D01*
X151995142Y-114062857D01*
X155566380Y-119777142D02*
X155090190Y-119443809D01*
X155566380Y-119205714D02*
X154566380Y-119205714D01*
X154566380Y-119586666D01*
X154614000Y-119681904D01*
X154661619Y-119729523D01*
X154756857Y-119777142D01*
X154899714Y-119777142D01*
X154994952Y-119729523D01*
X155042571Y-119681904D01*
X155090190Y-119586666D01*
X155090190Y-119205714D01*
X155566380Y-120729523D02*
X155566380Y-120158095D01*
X155566380Y-120443809D02*
X154566380Y-120443809D01*
X154709238Y-120348571D01*
X154804476Y-120253333D01*
X154852095Y-120158095D01*
X154661619Y-121110476D02*
X154614000Y-121158095D01*
X154566380Y-121253333D01*
X154566380Y-121491428D01*
X154614000Y-121586666D01*
X154661619Y-121634285D01*
X154756857Y-121681904D01*
X154852095Y-121681904D01*
X154994952Y-121634285D01*
X155566380Y-121062857D01*
X155566380Y-121681904D01*
X145546152Y-122639960D02*
X145879485Y-122163770D01*
X146117580Y-122639960D02*
X146117580Y-121639960D01*
X145736628Y-121639960D01*
X145641390Y-121687580D01*
X145593771Y-121735199D01*
X145546152Y-121830437D01*
X145546152Y-121973294D01*
X145593771Y-122068532D01*
X145641390Y-122116151D01*
X145736628Y-122163770D01*
X146117580Y-122163770D01*
X144593771Y-122639960D02*
X145165199Y-122639960D01*
X144879485Y-122639960D02*
X144879485Y-121639960D01*
X144974723Y-121782818D01*
X145069961Y-121878056D01*
X145165199Y-121925675D01*
X143689009Y-121639960D02*
X144165199Y-121639960D01*
X144212818Y-122116151D01*
X144165199Y-122068532D01*
X144069961Y-122020913D01*
X143831866Y-122020913D01*
X143736628Y-122068532D01*
X143689009Y-122116151D01*
X143641390Y-122211389D01*
X143641390Y-122449484D01*
X143689009Y-122544722D01*
X143736628Y-122592341D01*
X143831866Y-122639960D01*
X144069961Y-122639960D01*
X144165199Y-122592341D01*
X144212818Y-122544722D01*
X116875904Y-113872380D02*
X116875904Y-114681904D01*
X116828285Y-114777142D01*
X116780666Y-114824761D01*
X116685428Y-114872380D01*
X116494952Y-114872380D01*
X116399714Y-114824761D01*
X116352095Y-114777142D01*
X116304476Y-114681904D01*
X116304476Y-113872380D01*
X115304476Y-114872380D02*
X115875904Y-114872380D01*
X115590190Y-114872380D02*
X115590190Y-113872380D01*
X115685428Y-114015238D01*
X115780666Y-114110476D01*
X115875904Y-114158095D01*
M02*
