G04 #@! TF.GenerationSoftware,KiCad,Pcbnew,(5.1.5)-3*
G04 #@! TF.CreationDate,2020-12-02T12:44:04-08:00*
G04 #@! TF.ProjectId,USonicTherminNoName,55536f6e-6963-4546-9865-726d696e4e6f,1.0*
G04 #@! TF.SameCoordinates,Original*
G04 #@! TF.FileFunction,Legend,Top*
G04 #@! TF.FilePolarity,Positive*
%FSLAX46Y46*%
G04 Gerber Fmt 4.6, Leading zero omitted, Abs format (unit mm)*
G04 Created by KiCad (PCBNEW (5.1.5)-3) date 2020-12-02 12:44:04*
%MOMM*%
%LPD*%
G04 APERTURE LIST*
%ADD10C,0.300000*%
%ADD11C,0.150000*%
%ADD12C,0.120000*%
%ADD13C,0.010000*%
%ADD14C,0.340000*%
%ADD15C,0.127000*%
%ADD16C,0.015000*%
G04 APERTURE END LIST*
D10*
X95399714Y-119598571D02*
X94899714Y-118884285D01*
X94542571Y-119598571D02*
X94542571Y-118098571D01*
X95114000Y-118098571D01*
X95256857Y-118170000D01*
X95328285Y-118241428D01*
X95399714Y-118384285D01*
X95399714Y-118598571D01*
X95328285Y-118741428D01*
X95256857Y-118812857D01*
X95114000Y-118884285D01*
X94542571Y-118884285D01*
X96256857Y-119598571D02*
X96114000Y-119527142D01*
X96042571Y-119455714D01*
X95971142Y-119312857D01*
X95971142Y-118884285D01*
X96042571Y-118741428D01*
X96114000Y-118670000D01*
X96256857Y-118598571D01*
X96471142Y-118598571D01*
X96614000Y-118670000D01*
X96685428Y-118741428D01*
X96756857Y-118884285D01*
X96756857Y-119312857D01*
X96685428Y-119455714D01*
X96614000Y-119527142D01*
X96471142Y-119598571D01*
X96256857Y-119598571D01*
X97399714Y-119598571D02*
X97399714Y-118098571D01*
X97399714Y-118812857D02*
X98256857Y-118812857D01*
X98256857Y-119598571D02*
X98256857Y-118098571D01*
X98899714Y-119527142D02*
X99114000Y-119598571D01*
X99471142Y-119598571D01*
X99614000Y-119527142D01*
X99685428Y-119455714D01*
X99756857Y-119312857D01*
X99756857Y-119170000D01*
X99685428Y-119027142D01*
X99614000Y-118955714D01*
X99471142Y-118884285D01*
X99185428Y-118812857D01*
X99042571Y-118741428D01*
X98971142Y-118670000D01*
X98899714Y-118527142D01*
X98899714Y-118384285D01*
X98971142Y-118241428D01*
X99042571Y-118170000D01*
X99185428Y-118098571D01*
X99542571Y-118098571D01*
X99756857Y-118170000D01*
D11*
X73391619Y-98729523D02*
X73391619Y-99348571D01*
X73010666Y-99015238D01*
X73010666Y-99158095D01*
X72963047Y-99253333D01*
X72915428Y-99300952D01*
X72820190Y-99348571D01*
X72582095Y-99348571D01*
X72486857Y-99300952D01*
X72439238Y-99253333D01*
X72391619Y-99158095D01*
X72391619Y-98872380D01*
X72439238Y-98777142D01*
X72486857Y-98729523D01*
X73296380Y-99729523D02*
X73344000Y-99777142D01*
X73391619Y-99872380D01*
X73391619Y-100110476D01*
X73344000Y-100205714D01*
X73296380Y-100253333D01*
X73201142Y-100300952D01*
X73105904Y-100300952D01*
X72963047Y-100253333D01*
X72391619Y-99681904D01*
X72391619Y-100300952D01*
X72486857Y-100729523D02*
X72439238Y-100777142D01*
X72391619Y-100729523D01*
X72439238Y-100681904D01*
X72486857Y-100729523D01*
X72391619Y-100729523D01*
X73391619Y-101396190D02*
X73391619Y-101491428D01*
X73344000Y-101586666D01*
X73296380Y-101634285D01*
X73201142Y-101681904D01*
X73010666Y-101729523D01*
X72772571Y-101729523D01*
X72582095Y-101681904D01*
X72486857Y-101634285D01*
X72439238Y-101586666D01*
X72391619Y-101491428D01*
X72391619Y-101396190D01*
X72439238Y-101300952D01*
X72486857Y-101253333D01*
X72582095Y-101205714D01*
X72772571Y-101158095D01*
X73010666Y-101158095D01*
X73201142Y-101205714D01*
X73296380Y-101253333D01*
X73344000Y-101300952D01*
X73391619Y-101396190D01*
X73391619Y-102348571D02*
X73391619Y-102443809D01*
X73344000Y-102539047D01*
X73296380Y-102586666D01*
X73201142Y-102634285D01*
X73010666Y-102681904D01*
X72772571Y-102681904D01*
X72582095Y-102634285D01*
X72486857Y-102586666D01*
X72439238Y-102539047D01*
X72391619Y-102443809D01*
X72391619Y-102348571D01*
X72439238Y-102253333D01*
X72486857Y-102205714D01*
X72582095Y-102158095D01*
X72772571Y-102110476D01*
X73010666Y-102110476D01*
X73201142Y-102158095D01*
X73296380Y-102205714D01*
X73344000Y-102253333D01*
X73391619Y-102348571D01*
X73391619Y-103300952D02*
X73391619Y-103396190D01*
X73344000Y-103491428D01*
X73296380Y-103539047D01*
X73201142Y-103586666D01*
X73010666Y-103634285D01*
X72772571Y-103634285D01*
X72582095Y-103586666D01*
X72486857Y-103539047D01*
X72439238Y-103491428D01*
X72391619Y-103396190D01*
X72391619Y-103300952D01*
X72439238Y-103205714D01*
X72486857Y-103158095D01*
X72582095Y-103110476D01*
X72772571Y-103062857D01*
X73010666Y-103062857D01*
X73201142Y-103110476D01*
X73296380Y-103158095D01*
X73344000Y-103205714D01*
X73391619Y-103300952D01*
X72391619Y-104824761D02*
X73058285Y-104824761D01*
X72963047Y-104824761D02*
X73010666Y-104872380D01*
X73058285Y-104967619D01*
X73058285Y-105110476D01*
X73010666Y-105205714D01*
X72915428Y-105253333D01*
X72391619Y-105253333D01*
X72915428Y-105253333D02*
X73010666Y-105300952D01*
X73058285Y-105396190D01*
X73058285Y-105539047D01*
X73010666Y-105634285D01*
X72915428Y-105681904D01*
X72391619Y-105681904D01*
X72391619Y-106158095D02*
X73058285Y-106158095D01*
X72963047Y-106158095D02*
X73010666Y-106205714D01*
X73058285Y-106300952D01*
X73058285Y-106443809D01*
X73010666Y-106539047D01*
X72915428Y-106586666D01*
X72391619Y-106586666D01*
X72915428Y-106586666D02*
X73010666Y-106634285D01*
X73058285Y-106729523D01*
X73058285Y-106872380D01*
X73010666Y-106967619D01*
X72915428Y-107015238D01*
X72391619Y-107015238D01*
D12*
X74114000Y-86920000D02*
X74114000Y-118920000D01*
X115114000Y-86920000D02*
X73527579Y-86920000D01*
X115114000Y-118920000D02*
X73527579Y-118920000D01*
X74114000Y-118920000D02*
X73527579Y-117793496D01*
X74114000Y-118920000D02*
X74700421Y-117793496D01*
X74114000Y-86920000D02*
X73527579Y-88046504D01*
X74114000Y-86920000D02*
X74700421Y-88046504D01*
D11*
X185570824Y-93277726D02*
X185099419Y-93749130D01*
X185671839Y-92839993D02*
X184998404Y-93176710D01*
X185436137Y-93614443D01*
X186513633Y-93749130D02*
X186176915Y-93412413D01*
X185806526Y-93715459D01*
X185873869Y-93715459D01*
X185974885Y-93749130D01*
X186143243Y-93917489D01*
X186176915Y-94018504D01*
X186176915Y-94085848D01*
X186143243Y-94186863D01*
X185974885Y-94355222D01*
X185873869Y-94388894D01*
X185806526Y-94388894D01*
X185705511Y-94355222D01*
X185537152Y-94186863D01*
X185503480Y-94085848D01*
X185503480Y-94018504D01*
X186210587Y-94725611D02*
X186210587Y-94792955D01*
X186143243Y-94792955D01*
X186143243Y-94725611D01*
X186210587Y-94725611D01*
X186143243Y-94792955D01*
X187086052Y-94456237D02*
X187153396Y-94456237D01*
X187254411Y-94489909D01*
X187422770Y-94658268D01*
X187456442Y-94759283D01*
X187456442Y-94826626D01*
X187422770Y-94927642D01*
X187355426Y-94994985D01*
X187220739Y-95062329D01*
X186412617Y-95062329D01*
X186850350Y-95500061D01*
X188197220Y-95432718D02*
X187860503Y-95096000D01*
X187490113Y-95399046D01*
X187557457Y-95399046D01*
X187658472Y-95432718D01*
X187826831Y-95601077D01*
X187860503Y-95702092D01*
X187860503Y-95769435D01*
X187826831Y-95870451D01*
X187658472Y-96038809D01*
X187557457Y-96072481D01*
X187490113Y-96072481D01*
X187389098Y-96038809D01*
X187220739Y-95870451D01*
X187187068Y-95769435D01*
X187187068Y-95702092D01*
X188870655Y-96106153D02*
X188533938Y-95769435D01*
X188163548Y-96072481D01*
X188230892Y-96072481D01*
X188331907Y-96106153D01*
X188500266Y-96274512D01*
X188533938Y-96375527D01*
X188533938Y-96442870D01*
X188500266Y-96543886D01*
X188331907Y-96712244D01*
X188230892Y-96745916D01*
X188163548Y-96745916D01*
X188062533Y-96712244D01*
X187894174Y-96543886D01*
X187860503Y-96442870D01*
X187860503Y-96375527D01*
X189039014Y-97688725D02*
X189510418Y-97217321D01*
X189443075Y-97284664D02*
X189510418Y-97284664D01*
X189611434Y-97318336D01*
X189712449Y-97419351D01*
X189746121Y-97520366D01*
X189712449Y-97621382D01*
X189342060Y-97991771D01*
X189712449Y-97621382D02*
X189813464Y-97587710D01*
X189914479Y-97621382D01*
X190015495Y-97722397D01*
X190049166Y-97823412D01*
X190015495Y-97924427D01*
X189645105Y-98294817D01*
X189981823Y-98631534D02*
X190453227Y-98160130D01*
X190385884Y-98227473D02*
X190453227Y-98227473D01*
X190554243Y-98261145D01*
X190655258Y-98362160D01*
X190688930Y-98463175D01*
X190655258Y-98564191D01*
X190284869Y-98934580D01*
X190655258Y-98564191D02*
X190756273Y-98530519D01*
X190857289Y-98564191D01*
X190958304Y-98665206D01*
X190991976Y-98766221D01*
X190958304Y-98867237D01*
X190587914Y-99237626D01*
D12*
X171114000Y-80920000D02*
X203114000Y-112920000D01*
X165114000Y-86920000D02*
X171528662Y-80505338D01*
X197114000Y-118920000D02*
X203528662Y-112505338D01*
X203114000Y-112920000D02*
X201902779Y-112538104D01*
X203114000Y-112920000D02*
X202732104Y-111708779D01*
X171114000Y-80920000D02*
X171495896Y-82131221D01*
X171114000Y-80920000D02*
X172325221Y-81301896D01*
D11*
X136494952Y-79602380D02*
X136018761Y-79602380D01*
X135971142Y-80078571D01*
X136018761Y-80030952D01*
X136114000Y-79983333D01*
X136352095Y-79983333D01*
X136447333Y-80030952D01*
X136494952Y-80078571D01*
X136542571Y-80173809D01*
X136542571Y-80411904D01*
X136494952Y-80507142D01*
X136447333Y-80554761D01*
X136352095Y-80602380D01*
X136114000Y-80602380D01*
X136018761Y-80554761D01*
X135971142Y-80507142D01*
X137161619Y-79602380D02*
X137256857Y-79602380D01*
X137352095Y-79650000D01*
X137399714Y-79697619D01*
X137447333Y-79792857D01*
X137494952Y-79983333D01*
X137494952Y-80221428D01*
X137447333Y-80411904D01*
X137399714Y-80507142D01*
X137352095Y-80554761D01*
X137256857Y-80602380D01*
X137161619Y-80602380D01*
X137066380Y-80554761D01*
X137018761Y-80507142D01*
X136971142Y-80411904D01*
X136923523Y-80221428D01*
X136923523Y-79983333D01*
X136971142Y-79792857D01*
X137018761Y-79697619D01*
X137066380Y-79650000D01*
X137161619Y-79602380D01*
X137923523Y-80507142D02*
X137971142Y-80554761D01*
X137923523Y-80602380D01*
X137875904Y-80554761D01*
X137923523Y-80507142D01*
X137923523Y-80602380D01*
X138590190Y-79602380D02*
X138685428Y-79602380D01*
X138780666Y-79650000D01*
X138828285Y-79697619D01*
X138875904Y-79792857D01*
X138923523Y-79983333D01*
X138923523Y-80221428D01*
X138875904Y-80411904D01*
X138828285Y-80507142D01*
X138780666Y-80554761D01*
X138685428Y-80602380D01*
X138590190Y-80602380D01*
X138494952Y-80554761D01*
X138447333Y-80507142D01*
X138399714Y-80411904D01*
X138352095Y-80221428D01*
X138352095Y-79983333D01*
X138399714Y-79792857D01*
X138447333Y-79697619D01*
X138494952Y-79650000D01*
X138590190Y-79602380D01*
X139542571Y-79602380D02*
X139637809Y-79602380D01*
X139733047Y-79650000D01*
X139780666Y-79697619D01*
X139828285Y-79792857D01*
X139875904Y-79983333D01*
X139875904Y-80221428D01*
X139828285Y-80411904D01*
X139780666Y-80507142D01*
X139733047Y-80554761D01*
X139637809Y-80602380D01*
X139542571Y-80602380D01*
X139447333Y-80554761D01*
X139399714Y-80507142D01*
X139352095Y-80411904D01*
X139304476Y-80221428D01*
X139304476Y-79983333D01*
X139352095Y-79792857D01*
X139399714Y-79697619D01*
X139447333Y-79650000D01*
X139542571Y-79602380D01*
X140494952Y-79602380D02*
X140590190Y-79602380D01*
X140685428Y-79650000D01*
X140733047Y-79697619D01*
X140780666Y-79792857D01*
X140828285Y-79983333D01*
X140828285Y-80221428D01*
X140780666Y-80411904D01*
X140733047Y-80507142D01*
X140685428Y-80554761D01*
X140590190Y-80602380D01*
X140494952Y-80602380D01*
X140399714Y-80554761D01*
X140352095Y-80507142D01*
X140304476Y-80411904D01*
X140256857Y-80221428D01*
X140256857Y-79983333D01*
X140304476Y-79792857D01*
X140352095Y-79697619D01*
X140399714Y-79650000D01*
X140494952Y-79602380D01*
X142018761Y-80602380D02*
X142018761Y-79935714D01*
X142018761Y-80030952D02*
X142066380Y-79983333D01*
X142161619Y-79935714D01*
X142304476Y-79935714D01*
X142399714Y-79983333D01*
X142447333Y-80078571D01*
X142447333Y-80602380D01*
X142447333Y-80078571D02*
X142494952Y-79983333D01*
X142590190Y-79935714D01*
X142733047Y-79935714D01*
X142828285Y-79983333D01*
X142875904Y-80078571D01*
X142875904Y-80602380D01*
X143352095Y-80602380D02*
X143352095Y-79935714D01*
X143352095Y-80030952D02*
X143399714Y-79983333D01*
X143494952Y-79935714D01*
X143637809Y-79935714D01*
X143733047Y-79983333D01*
X143780666Y-80078571D01*
X143780666Y-80602380D01*
X143780666Y-80078571D02*
X143828285Y-79983333D01*
X143923523Y-79935714D01*
X144066380Y-79935714D01*
X144161619Y-79983333D01*
X144209238Y-80078571D01*
X144209238Y-80602380D01*
D12*
X115114000Y-81420000D02*
X165114000Y-81420000D01*
X115114000Y-86920000D02*
X115114000Y-80833579D01*
X165114000Y-86920000D02*
X165114000Y-80833579D01*
X165114000Y-81420000D02*
X163987496Y-82006421D01*
X165114000Y-81420000D02*
X163987496Y-80833579D01*
X115114000Y-81420000D02*
X116240504Y-82006421D01*
X115114000Y-81420000D02*
X116240504Y-80833579D01*
D11*
X136066380Y-150642379D02*
X135494952Y-150642379D01*
X135780666Y-150642379D02*
X135780666Y-149642379D01*
X135685428Y-149785237D01*
X135590190Y-149880475D01*
X135494952Y-149928094D01*
X137018761Y-150642379D02*
X136447333Y-150642379D01*
X136733047Y-150642379D02*
X136733047Y-149642379D01*
X136637809Y-149785237D01*
X136542571Y-149880475D01*
X136447333Y-149928094D01*
X137875904Y-149975713D02*
X137875904Y-150642379D01*
X137637809Y-149594760D02*
X137399714Y-150309046D01*
X138018761Y-150309046D01*
X138399714Y-150547141D02*
X138447333Y-150594760D01*
X138399714Y-150642379D01*
X138352095Y-150594760D01*
X138399714Y-150547141D01*
X138399714Y-150642379D01*
X139066380Y-149642379D02*
X139161619Y-149642379D01*
X139256857Y-149689999D01*
X139304476Y-149737618D01*
X139352095Y-149832856D01*
X139399714Y-150023332D01*
X139399714Y-150261427D01*
X139352095Y-150451903D01*
X139304476Y-150547141D01*
X139256857Y-150594760D01*
X139161619Y-150642379D01*
X139066380Y-150642379D01*
X138971142Y-150594760D01*
X138923523Y-150547141D01*
X138875904Y-150451903D01*
X138828285Y-150261427D01*
X138828285Y-150023332D01*
X138875904Y-149832856D01*
X138923523Y-149737618D01*
X138971142Y-149689999D01*
X139066380Y-149642379D01*
X140018761Y-149642379D02*
X140114000Y-149642379D01*
X140209238Y-149689999D01*
X140256857Y-149737618D01*
X140304476Y-149832856D01*
X140352095Y-150023332D01*
X140352095Y-150261427D01*
X140304476Y-150451903D01*
X140256857Y-150547141D01*
X140209238Y-150594760D01*
X140114000Y-150642379D01*
X140018761Y-150642379D01*
X139923523Y-150594760D01*
X139875904Y-150547141D01*
X139828285Y-150451903D01*
X139780666Y-150261427D01*
X139780666Y-150023332D01*
X139828285Y-149832856D01*
X139875904Y-149737618D01*
X139923523Y-149689999D01*
X140018761Y-149642379D01*
X140971142Y-149642379D02*
X141066380Y-149642379D01*
X141161619Y-149689999D01*
X141209238Y-149737618D01*
X141256857Y-149832856D01*
X141304476Y-150023332D01*
X141304476Y-150261427D01*
X141256857Y-150451903D01*
X141209238Y-150547141D01*
X141161619Y-150594760D01*
X141066380Y-150642379D01*
X140971142Y-150642379D01*
X140875904Y-150594760D01*
X140828285Y-150547141D01*
X140780666Y-150451903D01*
X140733047Y-150261427D01*
X140733047Y-150023332D01*
X140780666Y-149832856D01*
X140828285Y-149737618D01*
X140875904Y-149689999D01*
X140971142Y-149642379D01*
X142494952Y-150642379D02*
X142494952Y-149975713D01*
X142494952Y-150070951D02*
X142542571Y-150023332D01*
X142637809Y-149975713D01*
X142780666Y-149975713D01*
X142875904Y-150023332D01*
X142923523Y-150118570D01*
X142923523Y-150642379D01*
X142923523Y-150118570D02*
X142971142Y-150023332D01*
X143066380Y-149975713D01*
X143209238Y-149975713D01*
X143304476Y-150023332D01*
X143352095Y-150118570D01*
X143352095Y-150642379D01*
X143828285Y-150642379D02*
X143828285Y-149975713D01*
X143828285Y-150070951D02*
X143875904Y-150023332D01*
X143971142Y-149975713D01*
X144114000Y-149975713D01*
X144209238Y-150023332D01*
X144256857Y-150118570D01*
X144256857Y-150642379D01*
X144256857Y-150118570D02*
X144304476Y-150023332D01*
X144399714Y-149975713D01*
X144542571Y-149975713D01*
X144637809Y-150023332D01*
X144685428Y-150118570D01*
X144685428Y-150642379D01*
D12*
X83114000Y-148919999D02*
X197114000Y-148919999D01*
X83114000Y-141780000D02*
X83114000Y-149506420D01*
X197114000Y-141780000D02*
X197114000Y-149506420D01*
X197114000Y-148919999D02*
X195987496Y-149506420D01*
X197114000Y-148919999D02*
X195987496Y-148333578D01*
X83114000Y-148919999D02*
X84240504Y-149506420D01*
X83114000Y-148919999D02*
X84240504Y-148333578D01*
D11*
X205336380Y-126207142D02*
X205384000Y-126254761D01*
X205431619Y-126350000D01*
X205431619Y-126588095D01*
X205384000Y-126683333D01*
X205336380Y-126730952D01*
X205241142Y-126778571D01*
X205145904Y-126778571D01*
X205003047Y-126730952D01*
X204431619Y-126159523D01*
X204431619Y-126778571D01*
X205336380Y-127159523D02*
X205384000Y-127207142D01*
X205431619Y-127302380D01*
X205431619Y-127540476D01*
X205384000Y-127635714D01*
X205336380Y-127683333D01*
X205241142Y-127730952D01*
X205145904Y-127730952D01*
X205003047Y-127683333D01*
X204431619Y-127111904D01*
X204431619Y-127730952D01*
X204526857Y-128159523D02*
X204479238Y-128207142D01*
X204431619Y-128159523D01*
X204479238Y-128111904D01*
X204526857Y-128159523D01*
X204431619Y-128159523D01*
X205003047Y-128778571D02*
X205050666Y-128683333D01*
X205098285Y-128635714D01*
X205193523Y-128588095D01*
X205241142Y-128588095D01*
X205336380Y-128635714D01*
X205384000Y-128683333D01*
X205431619Y-128778571D01*
X205431619Y-128969047D01*
X205384000Y-129064285D01*
X205336380Y-129111904D01*
X205241142Y-129159523D01*
X205193523Y-129159523D01*
X205098285Y-129111904D01*
X205050666Y-129064285D01*
X205003047Y-128969047D01*
X205003047Y-128778571D01*
X204955428Y-128683333D01*
X204907809Y-128635714D01*
X204812571Y-128588095D01*
X204622095Y-128588095D01*
X204526857Y-128635714D01*
X204479238Y-128683333D01*
X204431619Y-128778571D01*
X204431619Y-128969047D01*
X204479238Y-129064285D01*
X204526857Y-129111904D01*
X204622095Y-129159523D01*
X204812571Y-129159523D01*
X204907809Y-129111904D01*
X204955428Y-129064285D01*
X205003047Y-128969047D01*
X205431619Y-130016666D02*
X205431619Y-129826190D01*
X205384000Y-129730952D01*
X205336380Y-129683333D01*
X205193523Y-129588095D01*
X205003047Y-129540476D01*
X204622095Y-129540476D01*
X204526857Y-129588095D01*
X204479238Y-129635714D01*
X204431619Y-129730952D01*
X204431619Y-129921428D01*
X204479238Y-130016666D01*
X204526857Y-130064285D01*
X204622095Y-130111904D01*
X204860190Y-130111904D01*
X204955428Y-130064285D01*
X205003047Y-130016666D01*
X205050666Y-129921428D01*
X205050666Y-129730952D01*
X205003047Y-129635714D01*
X204955428Y-129588095D01*
X204860190Y-129540476D01*
X205431619Y-130730952D02*
X205431619Y-130826190D01*
X205384000Y-130921428D01*
X205336380Y-130969047D01*
X205241142Y-131016666D01*
X205050666Y-131064285D01*
X204812571Y-131064285D01*
X204622095Y-131016666D01*
X204526857Y-130969047D01*
X204479238Y-130921428D01*
X204431619Y-130826190D01*
X204431619Y-130730952D01*
X204479238Y-130635714D01*
X204526857Y-130588095D01*
X204622095Y-130540476D01*
X204812571Y-130492857D01*
X205050666Y-130492857D01*
X205241142Y-130540476D01*
X205336380Y-130588095D01*
X205384000Y-130635714D01*
X205431619Y-130730952D01*
X204431619Y-132254761D02*
X205098285Y-132254761D01*
X205003047Y-132254761D02*
X205050666Y-132302380D01*
X205098285Y-132397619D01*
X205098285Y-132540476D01*
X205050666Y-132635714D01*
X204955428Y-132683333D01*
X204431619Y-132683333D01*
X204955428Y-132683333D02*
X205050666Y-132730952D01*
X205098285Y-132826190D01*
X205098285Y-132969047D01*
X205050666Y-133064285D01*
X204955428Y-133111904D01*
X204431619Y-133111904D01*
X204431619Y-133588095D02*
X205098285Y-133588095D01*
X205003047Y-133588095D02*
X205050666Y-133635714D01*
X205098285Y-133730952D01*
X205098285Y-133873809D01*
X205050666Y-133969047D01*
X204955428Y-134016666D01*
X204431619Y-134016666D01*
X204955428Y-134016666D02*
X205050666Y-134064285D01*
X205098285Y-134159523D01*
X205098285Y-134302380D01*
X205050666Y-134397619D01*
X204955428Y-134445238D01*
X204431619Y-134445238D01*
D12*
X203614000Y-118920000D02*
X203614000Y-141780000D01*
X197114000Y-118920000D02*
X204200421Y-118920000D01*
X197114000Y-141780000D02*
X204200421Y-141780000D01*
X203614000Y-141780000D02*
X203027579Y-140653496D01*
X203614000Y-141780000D02*
X204200421Y-140653496D01*
X203614000Y-118920000D02*
X203027579Y-120046504D01*
X203614000Y-118920000D02*
X204200421Y-120046504D01*
D13*
G36*
X109717910Y-105662348D02*
G01*
X109796454Y-105662778D01*
X109853298Y-105663942D01*
X109892105Y-105666207D01*
X109916538Y-105669940D01*
X109930262Y-105675506D01*
X109936940Y-105683273D01*
X109940236Y-105693605D01*
X109940556Y-105694943D01*
X109945562Y-105719079D01*
X109954829Y-105766701D01*
X109967392Y-105832741D01*
X109982287Y-105912128D01*
X109998551Y-105999796D01*
X109999119Y-106002875D01*
X110015410Y-106088789D01*
X110030652Y-106164696D01*
X110043861Y-106226045D01*
X110054054Y-106268282D01*
X110060248Y-106286855D01*
X110060543Y-106287184D01*
X110078788Y-106296253D01*
X110116405Y-106311367D01*
X110165271Y-106329262D01*
X110165543Y-106329358D01*
X110227093Y-106352493D01*
X110299657Y-106381965D01*
X110368057Y-106411597D01*
X110371294Y-106413062D01*
X110482702Y-106463626D01*
X110729399Y-106295160D01*
X110805077Y-106243803D01*
X110873631Y-106197889D01*
X110931088Y-106160030D01*
X110973476Y-106132837D01*
X110996825Y-106118921D01*
X110999042Y-106117889D01*
X111016010Y-106122484D01*
X111047701Y-106144655D01*
X111095352Y-106185447D01*
X111160198Y-106245905D01*
X111226397Y-106310227D01*
X111290214Y-106373612D01*
X111347329Y-106431451D01*
X111394305Y-106480175D01*
X111427703Y-106516210D01*
X111444085Y-106535984D01*
X111444694Y-106537002D01*
X111446505Y-106550572D01*
X111439683Y-106572733D01*
X111422540Y-106606478D01*
X111393393Y-106654800D01*
X111350555Y-106720692D01*
X111293448Y-106805517D01*
X111242766Y-106880177D01*
X111197461Y-106947140D01*
X111160150Y-107002516D01*
X111133452Y-107042420D01*
X111119985Y-107062962D01*
X111119137Y-107064356D01*
X111120781Y-107084038D01*
X111133245Y-107122293D01*
X111154048Y-107171889D01*
X111161462Y-107187728D01*
X111193814Y-107258290D01*
X111228328Y-107338353D01*
X111256365Y-107407629D01*
X111276568Y-107459045D01*
X111292615Y-107498119D01*
X111301888Y-107518541D01*
X111303041Y-107520114D01*
X111320096Y-107522721D01*
X111360298Y-107529863D01*
X111418302Y-107540523D01*
X111488763Y-107553685D01*
X111566335Y-107568333D01*
X111645672Y-107583449D01*
X111721431Y-107598018D01*
X111788264Y-107611022D01*
X111840828Y-107621445D01*
X111873776Y-107628270D01*
X111881857Y-107630199D01*
X111890205Y-107634962D01*
X111896506Y-107645718D01*
X111901045Y-107666098D01*
X111904104Y-107699734D01*
X111905967Y-107750255D01*
X111906918Y-107821292D01*
X111907240Y-107916476D01*
X111907257Y-107955492D01*
X111907257Y-108272799D01*
X111831057Y-108287839D01*
X111788663Y-108295995D01*
X111725400Y-108307899D01*
X111648962Y-108322116D01*
X111567043Y-108337210D01*
X111544400Y-108341355D01*
X111468806Y-108356053D01*
X111402953Y-108370505D01*
X111352366Y-108383375D01*
X111322574Y-108393322D01*
X111317612Y-108396287D01*
X111305426Y-108417283D01*
X111287953Y-108457967D01*
X111268577Y-108510322D01*
X111264734Y-108521600D01*
X111239339Y-108591523D01*
X111207817Y-108670418D01*
X111176969Y-108741266D01*
X111176817Y-108741595D01*
X111125447Y-108852733D01*
X111294399Y-109101253D01*
X111463352Y-109349772D01*
X111246429Y-109567058D01*
X111180819Y-109631726D01*
X111120979Y-109688733D01*
X111070267Y-109735033D01*
X111032046Y-109767584D01*
X111009675Y-109783343D01*
X111006466Y-109784343D01*
X110987626Y-109776469D01*
X110949180Y-109754578D01*
X110895330Y-109721267D01*
X110830276Y-109679131D01*
X110759940Y-109631943D01*
X110688555Y-109583810D01*
X110624908Y-109541928D01*
X110573041Y-109508871D01*
X110536995Y-109487218D01*
X110520867Y-109479543D01*
X110501189Y-109486037D01*
X110463875Y-109503150D01*
X110416621Y-109527326D01*
X110411612Y-109530013D01*
X110347977Y-109561927D01*
X110304341Y-109577579D01*
X110277202Y-109577745D01*
X110263057Y-109563204D01*
X110262975Y-109563000D01*
X110255905Y-109545779D01*
X110239042Y-109504899D01*
X110213695Y-109443525D01*
X110181171Y-109364819D01*
X110142778Y-109271947D01*
X110099822Y-109168072D01*
X110058222Y-109067502D01*
X110012504Y-108956516D01*
X109970526Y-108853703D01*
X109933548Y-108762215D01*
X109902827Y-108685201D01*
X109879622Y-108625815D01*
X109865190Y-108587209D01*
X109860743Y-108572800D01*
X109871896Y-108556272D01*
X109901069Y-108529930D01*
X109939971Y-108500887D01*
X110050757Y-108409039D01*
X110137351Y-108303759D01*
X110198716Y-108187266D01*
X110233815Y-108061776D01*
X110241608Y-107929507D01*
X110235943Y-107868457D01*
X110205078Y-107741795D01*
X110151920Y-107629941D01*
X110079767Y-107534001D01*
X109991917Y-107455076D01*
X109891665Y-107394270D01*
X109782310Y-107352687D01*
X109667147Y-107331428D01*
X109549475Y-107331599D01*
X109432590Y-107354301D01*
X109319789Y-107400638D01*
X109214369Y-107471713D01*
X109170368Y-107511911D01*
X109085979Y-107615129D01*
X109027222Y-107727925D01*
X108993704Y-107847010D01*
X108985035Y-107969095D01*
X109000823Y-108090893D01*
X109040678Y-108209116D01*
X109104207Y-108320475D01*
X109191021Y-108421684D01*
X109288029Y-108500887D01*
X109328437Y-108531162D01*
X109356982Y-108557219D01*
X109367257Y-108572825D01*
X109361877Y-108589843D01*
X109346575Y-108630500D01*
X109322612Y-108691642D01*
X109291244Y-108770119D01*
X109253732Y-108862780D01*
X109211333Y-108966472D01*
X109169663Y-109067526D01*
X109123690Y-109178607D01*
X109081107Y-109281541D01*
X109043221Y-109373165D01*
X109011340Y-109450316D01*
X108986771Y-109509831D01*
X108970820Y-109548544D01*
X108964910Y-109563000D01*
X108950948Y-109577685D01*
X108923940Y-109577642D01*
X108880413Y-109562099D01*
X108816890Y-109530284D01*
X108816388Y-109530013D01*
X108768560Y-109505323D01*
X108729897Y-109487338D01*
X108708095Y-109479614D01*
X108707133Y-109479543D01*
X108690721Y-109487378D01*
X108654487Y-109509165D01*
X108602474Y-109542328D01*
X108538725Y-109584291D01*
X108468060Y-109631943D01*
X108396116Y-109680191D01*
X108331274Y-109722151D01*
X108277735Y-109755227D01*
X108239697Y-109776821D01*
X108221533Y-109784343D01*
X108204808Y-109774457D01*
X108171180Y-109746826D01*
X108124010Y-109704495D01*
X108066658Y-109650505D01*
X108002484Y-109587899D01*
X107981497Y-109566983D01*
X107764499Y-109349623D01*
X107929668Y-109107220D01*
X107979864Y-109032781D01*
X108023919Y-108965972D01*
X108059362Y-108910665D01*
X108083719Y-108870729D01*
X108094522Y-108850036D01*
X108094838Y-108848563D01*
X108089143Y-108829058D01*
X108073826Y-108789822D01*
X108051537Y-108737430D01*
X108035893Y-108702355D01*
X108006641Y-108635201D01*
X107979094Y-108567358D01*
X107957737Y-108510034D01*
X107951935Y-108492572D01*
X107935452Y-108445938D01*
X107919340Y-108409905D01*
X107910490Y-108396287D01*
X107890960Y-108387952D01*
X107848334Y-108376137D01*
X107788145Y-108362181D01*
X107715922Y-108347422D01*
X107683600Y-108341355D01*
X107601522Y-108326273D01*
X107522795Y-108311669D01*
X107455109Y-108298980D01*
X107406160Y-108289642D01*
X107396943Y-108287839D01*
X107320743Y-108272799D01*
X107320743Y-107955492D01*
X107320914Y-107851154D01*
X107321616Y-107772213D01*
X107323134Y-107715038D01*
X107325749Y-107675999D01*
X107329746Y-107651465D01*
X107335409Y-107637805D01*
X107343020Y-107631389D01*
X107346143Y-107630199D01*
X107364978Y-107625980D01*
X107406588Y-107617562D01*
X107465630Y-107605961D01*
X107536757Y-107592195D01*
X107614625Y-107577280D01*
X107693887Y-107562232D01*
X107769198Y-107548069D01*
X107835213Y-107535806D01*
X107886587Y-107526461D01*
X107917975Y-107521050D01*
X107924959Y-107520114D01*
X107931285Y-107507596D01*
X107945290Y-107474246D01*
X107964355Y-107426377D01*
X107971634Y-107407629D01*
X108000996Y-107335195D01*
X108035571Y-107255170D01*
X108066537Y-107187728D01*
X108089323Y-107136159D01*
X108104482Y-107093785D01*
X108109542Y-107067834D01*
X108108736Y-107064356D01*
X108098041Y-107047936D01*
X108073620Y-107011417D01*
X108038095Y-106958687D01*
X107994087Y-106893635D01*
X107944217Y-106820151D01*
X107934356Y-106805645D01*
X107876492Y-106719704D01*
X107833956Y-106654261D01*
X107805054Y-106606304D01*
X107788090Y-106572820D01*
X107781367Y-106550795D01*
X107783190Y-106537217D01*
X107783236Y-106537131D01*
X107797586Y-106519297D01*
X107829323Y-106484817D01*
X107875010Y-106437268D01*
X107931204Y-106380222D01*
X107994468Y-106317255D01*
X108001602Y-106310227D01*
X108081330Y-106233020D01*
X108142857Y-106176330D01*
X108187421Y-106139110D01*
X108216257Y-106120315D01*
X108228958Y-106117889D01*
X108247494Y-106128471D01*
X108285961Y-106152916D01*
X108340386Y-106188612D01*
X108406798Y-106232947D01*
X108481225Y-106283311D01*
X108498601Y-106295160D01*
X108745297Y-106463626D01*
X108856706Y-106413062D01*
X108924457Y-106383595D01*
X108997183Y-106353959D01*
X109059703Y-106330330D01*
X109062457Y-106329358D01*
X109111360Y-106311457D01*
X109149057Y-106296320D01*
X109167425Y-106287210D01*
X109167456Y-106287184D01*
X109173285Y-106270717D01*
X109183192Y-106230219D01*
X109196195Y-106170242D01*
X109211309Y-106095340D01*
X109227552Y-106010064D01*
X109228881Y-106002875D01*
X109245175Y-105915014D01*
X109260133Y-105835260D01*
X109272791Y-105768681D01*
X109282186Y-105720347D01*
X109287354Y-105695325D01*
X109287444Y-105694943D01*
X109290589Y-105684299D01*
X109296704Y-105676262D01*
X109309453Y-105670467D01*
X109332500Y-105666547D01*
X109369509Y-105664135D01*
X109424144Y-105662865D01*
X109500067Y-105662371D01*
X109600944Y-105662286D01*
X109614000Y-105662286D01*
X109717910Y-105662348D01*
G37*
X109717910Y-105662348D02*
X109796454Y-105662778D01*
X109853298Y-105663942D01*
X109892105Y-105666207D01*
X109916538Y-105669940D01*
X109930262Y-105675506D01*
X109936940Y-105683273D01*
X109940236Y-105693605D01*
X109940556Y-105694943D01*
X109945562Y-105719079D01*
X109954829Y-105766701D01*
X109967392Y-105832741D01*
X109982287Y-105912128D01*
X109998551Y-105999796D01*
X109999119Y-106002875D01*
X110015410Y-106088789D01*
X110030652Y-106164696D01*
X110043861Y-106226045D01*
X110054054Y-106268282D01*
X110060248Y-106286855D01*
X110060543Y-106287184D01*
X110078788Y-106296253D01*
X110116405Y-106311367D01*
X110165271Y-106329262D01*
X110165543Y-106329358D01*
X110227093Y-106352493D01*
X110299657Y-106381965D01*
X110368057Y-106411597D01*
X110371294Y-106413062D01*
X110482702Y-106463626D01*
X110729399Y-106295160D01*
X110805077Y-106243803D01*
X110873631Y-106197889D01*
X110931088Y-106160030D01*
X110973476Y-106132837D01*
X110996825Y-106118921D01*
X110999042Y-106117889D01*
X111016010Y-106122484D01*
X111047701Y-106144655D01*
X111095352Y-106185447D01*
X111160198Y-106245905D01*
X111226397Y-106310227D01*
X111290214Y-106373612D01*
X111347329Y-106431451D01*
X111394305Y-106480175D01*
X111427703Y-106516210D01*
X111444085Y-106535984D01*
X111444694Y-106537002D01*
X111446505Y-106550572D01*
X111439683Y-106572733D01*
X111422540Y-106606478D01*
X111393393Y-106654800D01*
X111350555Y-106720692D01*
X111293448Y-106805517D01*
X111242766Y-106880177D01*
X111197461Y-106947140D01*
X111160150Y-107002516D01*
X111133452Y-107042420D01*
X111119985Y-107062962D01*
X111119137Y-107064356D01*
X111120781Y-107084038D01*
X111133245Y-107122293D01*
X111154048Y-107171889D01*
X111161462Y-107187728D01*
X111193814Y-107258290D01*
X111228328Y-107338353D01*
X111256365Y-107407629D01*
X111276568Y-107459045D01*
X111292615Y-107498119D01*
X111301888Y-107518541D01*
X111303041Y-107520114D01*
X111320096Y-107522721D01*
X111360298Y-107529863D01*
X111418302Y-107540523D01*
X111488763Y-107553685D01*
X111566335Y-107568333D01*
X111645672Y-107583449D01*
X111721431Y-107598018D01*
X111788264Y-107611022D01*
X111840828Y-107621445D01*
X111873776Y-107628270D01*
X111881857Y-107630199D01*
X111890205Y-107634962D01*
X111896506Y-107645718D01*
X111901045Y-107666098D01*
X111904104Y-107699734D01*
X111905967Y-107750255D01*
X111906918Y-107821292D01*
X111907240Y-107916476D01*
X111907257Y-107955492D01*
X111907257Y-108272799D01*
X111831057Y-108287839D01*
X111788663Y-108295995D01*
X111725400Y-108307899D01*
X111648962Y-108322116D01*
X111567043Y-108337210D01*
X111544400Y-108341355D01*
X111468806Y-108356053D01*
X111402953Y-108370505D01*
X111352366Y-108383375D01*
X111322574Y-108393322D01*
X111317612Y-108396287D01*
X111305426Y-108417283D01*
X111287953Y-108457967D01*
X111268577Y-108510322D01*
X111264734Y-108521600D01*
X111239339Y-108591523D01*
X111207817Y-108670418D01*
X111176969Y-108741266D01*
X111176817Y-108741595D01*
X111125447Y-108852733D01*
X111294399Y-109101253D01*
X111463352Y-109349772D01*
X111246429Y-109567058D01*
X111180819Y-109631726D01*
X111120979Y-109688733D01*
X111070267Y-109735033D01*
X111032046Y-109767584D01*
X111009675Y-109783343D01*
X111006466Y-109784343D01*
X110987626Y-109776469D01*
X110949180Y-109754578D01*
X110895330Y-109721267D01*
X110830276Y-109679131D01*
X110759940Y-109631943D01*
X110688555Y-109583810D01*
X110624908Y-109541928D01*
X110573041Y-109508871D01*
X110536995Y-109487218D01*
X110520867Y-109479543D01*
X110501189Y-109486037D01*
X110463875Y-109503150D01*
X110416621Y-109527326D01*
X110411612Y-109530013D01*
X110347977Y-109561927D01*
X110304341Y-109577579D01*
X110277202Y-109577745D01*
X110263057Y-109563204D01*
X110262975Y-109563000D01*
X110255905Y-109545779D01*
X110239042Y-109504899D01*
X110213695Y-109443525D01*
X110181171Y-109364819D01*
X110142778Y-109271947D01*
X110099822Y-109168072D01*
X110058222Y-109067502D01*
X110012504Y-108956516D01*
X109970526Y-108853703D01*
X109933548Y-108762215D01*
X109902827Y-108685201D01*
X109879622Y-108625815D01*
X109865190Y-108587209D01*
X109860743Y-108572800D01*
X109871896Y-108556272D01*
X109901069Y-108529930D01*
X109939971Y-108500887D01*
X110050757Y-108409039D01*
X110137351Y-108303759D01*
X110198716Y-108187266D01*
X110233815Y-108061776D01*
X110241608Y-107929507D01*
X110235943Y-107868457D01*
X110205078Y-107741795D01*
X110151920Y-107629941D01*
X110079767Y-107534001D01*
X109991917Y-107455076D01*
X109891665Y-107394270D01*
X109782310Y-107352687D01*
X109667147Y-107331428D01*
X109549475Y-107331599D01*
X109432590Y-107354301D01*
X109319789Y-107400638D01*
X109214369Y-107471713D01*
X109170368Y-107511911D01*
X109085979Y-107615129D01*
X109027222Y-107727925D01*
X108993704Y-107847010D01*
X108985035Y-107969095D01*
X109000823Y-108090893D01*
X109040678Y-108209116D01*
X109104207Y-108320475D01*
X109191021Y-108421684D01*
X109288029Y-108500887D01*
X109328437Y-108531162D01*
X109356982Y-108557219D01*
X109367257Y-108572825D01*
X109361877Y-108589843D01*
X109346575Y-108630500D01*
X109322612Y-108691642D01*
X109291244Y-108770119D01*
X109253732Y-108862780D01*
X109211333Y-108966472D01*
X109169663Y-109067526D01*
X109123690Y-109178607D01*
X109081107Y-109281541D01*
X109043221Y-109373165D01*
X109011340Y-109450316D01*
X108986771Y-109509831D01*
X108970820Y-109548544D01*
X108964910Y-109563000D01*
X108950948Y-109577685D01*
X108923940Y-109577642D01*
X108880413Y-109562099D01*
X108816890Y-109530284D01*
X108816388Y-109530013D01*
X108768560Y-109505323D01*
X108729897Y-109487338D01*
X108708095Y-109479614D01*
X108707133Y-109479543D01*
X108690721Y-109487378D01*
X108654487Y-109509165D01*
X108602474Y-109542328D01*
X108538725Y-109584291D01*
X108468060Y-109631943D01*
X108396116Y-109680191D01*
X108331274Y-109722151D01*
X108277735Y-109755227D01*
X108239697Y-109776821D01*
X108221533Y-109784343D01*
X108204808Y-109774457D01*
X108171180Y-109746826D01*
X108124010Y-109704495D01*
X108066658Y-109650505D01*
X108002484Y-109587899D01*
X107981497Y-109566983D01*
X107764499Y-109349623D01*
X107929668Y-109107220D01*
X107979864Y-109032781D01*
X108023919Y-108965972D01*
X108059362Y-108910665D01*
X108083719Y-108870729D01*
X108094522Y-108850036D01*
X108094838Y-108848563D01*
X108089143Y-108829058D01*
X108073826Y-108789822D01*
X108051537Y-108737430D01*
X108035893Y-108702355D01*
X108006641Y-108635201D01*
X107979094Y-108567358D01*
X107957737Y-108510034D01*
X107951935Y-108492572D01*
X107935452Y-108445938D01*
X107919340Y-108409905D01*
X107910490Y-108396287D01*
X107890960Y-108387952D01*
X107848334Y-108376137D01*
X107788145Y-108362181D01*
X107715922Y-108347422D01*
X107683600Y-108341355D01*
X107601522Y-108326273D01*
X107522795Y-108311669D01*
X107455109Y-108298980D01*
X107406160Y-108289642D01*
X107396943Y-108287839D01*
X107320743Y-108272799D01*
X107320743Y-107955492D01*
X107320914Y-107851154D01*
X107321616Y-107772213D01*
X107323134Y-107715038D01*
X107325749Y-107675999D01*
X107329746Y-107651465D01*
X107335409Y-107637805D01*
X107343020Y-107631389D01*
X107346143Y-107630199D01*
X107364978Y-107625980D01*
X107406588Y-107617562D01*
X107465630Y-107605961D01*
X107536757Y-107592195D01*
X107614625Y-107577280D01*
X107693887Y-107562232D01*
X107769198Y-107548069D01*
X107835213Y-107535806D01*
X107886587Y-107526461D01*
X107917975Y-107521050D01*
X107924959Y-107520114D01*
X107931285Y-107507596D01*
X107945290Y-107474246D01*
X107964355Y-107426377D01*
X107971634Y-107407629D01*
X108000996Y-107335195D01*
X108035571Y-107255170D01*
X108066537Y-107187728D01*
X108089323Y-107136159D01*
X108104482Y-107093785D01*
X108109542Y-107067834D01*
X108108736Y-107064356D01*
X108098041Y-107047936D01*
X108073620Y-107011417D01*
X108038095Y-106958687D01*
X107994087Y-106893635D01*
X107944217Y-106820151D01*
X107934356Y-106805645D01*
X107876492Y-106719704D01*
X107833956Y-106654261D01*
X107805054Y-106606304D01*
X107788090Y-106572820D01*
X107781367Y-106550795D01*
X107783190Y-106537217D01*
X107783236Y-106537131D01*
X107797586Y-106519297D01*
X107829323Y-106484817D01*
X107875010Y-106437268D01*
X107931204Y-106380222D01*
X107994468Y-106317255D01*
X108001602Y-106310227D01*
X108081330Y-106233020D01*
X108142857Y-106176330D01*
X108187421Y-106139110D01*
X108216257Y-106120315D01*
X108228958Y-106117889D01*
X108247494Y-106128471D01*
X108285961Y-106152916D01*
X108340386Y-106188612D01*
X108406798Y-106232947D01*
X108481225Y-106283311D01*
X108498601Y-106295160D01*
X108745297Y-106463626D01*
X108856706Y-106413062D01*
X108924457Y-106383595D01*
X108997183Y-106353959D01*
X109059703Y-106330330D01*
X109062457Y-106329358D01*
X109111360Y-106311457D01*
X109149057Y-106296320D01*
X109167425Y-106287210D01*
X109167456Y-106287184D01*
X109173285Y-106270717D01*
X109183192Y-106230219D01*
X109196195Y-106170242D01*
X109211309Y-106095340D01*
X109227552Y-106010064D01*
X109228881Y-106002875D01*
X109245175Y-105915014D01*
X109260133Y-105835260D01*
X109272791Y-105768681D01*
X109282186Y-105720347D01*
X109287354Y-105695325D01*
X109287444Y-105694943D01*
X109290589Y-105684299D01*
X109296704Y-105676262D01*
X109309453Y-105670467D01*
X109332500Y-105666547D01*
X109369509Y-105664135D01*
X109424144Y-105662865D01*
X109500067Y-105662371D01*
X109600944Y-105662286D01*
X109614000Y-105662286D01*
X109717910Y-105662348D01*
G36*
X112767595Y-110386966D02*
G01*
X112825021Y-110424497D01*
X112852719Y-110458096D01*
X112874662Y-110519064D01*
X112876405Y-110567308D01*
X112872457Y-110631816D01*
X112723686Y-110696934D01*
X112651349Y-110730202D01*
X112604084Y-110756964D01*
X112579507Y-110780144D01*
X112575237Y-110802667D01*
X112588889Y-110827455D01*
X112603943Y-110843886D01*
X112647746Y-110870235D01*
X112695389Y-110872081D01*
X112739145Y-110851546D01*
X112771289Y-110810752D01*
X112777038Y-110796347D01*
X112804576Y-110751356D01*
X112836258Y-110732182D01*
X112879714Y-110715779D01*
X112879714Y-110777966D01*
X112875872Y-110820283D01*
X112860823Y-110855969D01*
X112829280Y-110896943D01*
X112824592Y-110902267D01*
X112789506Y-110938720D01*
X112759347Y-110958283D01*
X112721615Y-110967283D01*
X112690335Y-110970230D01*
X112634385Y-110970965D01*
X112594555Y-110961660D01*
X112569708Y-110947846D01*
X112530656Y-110917467D01*
X112503625Y-110884613D01*
X112486517Y-110843294D01*
X112477238Y-110787521D01*
X112473693Y-110711305D01*
X112473410Y-110672622D01*
X112474372Y-110626247D01*
X112562007Y-110626247D01*
X112563023Y-110651126D01*
X112565556Y-110655200D01*
X112582274Y-110649665D01*
X112618249Y-110635017D01*
X112666331Y-110614190D01*
X112676386Y-110609714D01*
X112737152Y-110578814D01*
X112770632Y-110551657D01*
X112777990Y-110526220D01*
X112760391Y-110500481D01*
X112745856Y-110489109D01*
X112693410Y-110466364D01*
X112644322Y-110470122D01*
X112603227Y-110497884D01*
X112574758Y-110547152D01*
X112565631Y-110586257D01*
X112562007Y-110626247D01*
X112474372Y-110626247D01*
X112475285Y-110582249D01*
X112482196Y-110515384D01*
X112495884Y-110466695D01*
X112518096Y-110430849D01*
X112550574Y-110402513D01*
X112564733Y-110393355D01*
X112629053Y-110369507D01*
X112699473Y-110368006D01*
X112767595Y-110386966D01*
G37*
X112767595Y-110386966D02*
X112825021Y-110424497D01*
X112852719Y-110458096D01*
X112874662Y-110519064D01*
X112876405Y-110567308D01*
X112872457Y-110631816D01*
X112723686Y-110696934D01*
X112651349Y-110730202D01*
X112604084Y-110756964D01*
X112579507Y-110780144D01*
X112575237Y-110802667D01*
X112588889Y-110827455D01*
X112603943Y-110843886D01*
X112647746Y-110870235D01*
X112695389Y-110872081D01*
X112739145Y-110851546D01*
X112771289Y-110810752D01*
X112777038Y-110796347D01*
X112804576Y-110751356D01*
X112836258Y-110732182D01*
X112879714Y-110715779D01*
X112879714Y-110777966D01*
X112875872Y-110820283D01*
X112860823Y-110855969D01*
X112829280Y-110896943D01*
X112824592Y-110902267D01*
X112789506Y-110938720D01*
X112759347Y-110958283D01*
X112721615Y-110967283D01*
X112690335Y-110970230D01*
X112634385Y-110970965D01*
X112594555Y-110961660D01*
X112569708Y-110947846D01*
X112530656Y-110917467D01*
X112503625Y-110884613D01*
X112486517Y-110843294D01*
X112477238Y-110787521D01*
X112473693Y-110711305D01*
X112473410Y-110672622D01*
X112474372Y-110626247D01*
X112562007Y-110626247D01*
X112563023Y-110651126D01*
X112565556Y-110655200D01*
X112582274Y-110649665D01*
X112618249Y-110635017D01*
X112666331Y-110614190D01*
X112676386Y-110609714D01*
X112737152Y-110578814D01*
X112770632Y-110551657D01*
X112777990Y-110526220D01*
X112760391Y-110500481D01*
X112745856Y-110489109D01*
X112693410Y-110466364D01*
X112644322Y-110470122D01*
X112603227Y-110497884D01*
X112574758Y-110547152D01*
X112565631Y-110586257D01*
X112562007Y-110626247D01*
X112474372Y-110626247D01*
X112475285Y-110582249D01*
X112482196Y-110515384D01*
X112495884Y-110466695D01*
X112518096Y-110430849D01*
X112550574Y-110402513D01*
X112564733Y-110393355D01*
X112629053Y-110369507D01*
X112699473Y-110368006D01*
X112767595Y-110386966D01*
G36*
X112266600Y-110378752D02*
G01*
X112283948Y-110386334D01*
X112325356Y-110419128D01*
X112360765Y-110466547D01*
X112382664Y-110517151D01*
X112386229Y-110542098D01*
X112374279Y-110576927D01*
X112348067Y-110595357D01*
X112319964Y-110606516D01*
X112307095Y-110608572D01*
X112300829Y-110593649D01*
X112288456Y-110561175D01*
X112283028Y-110546502D01*
X112252590Y-110495744D01*
X112208520Y-110470427D01*
X112152010Y-110471206D01*
X112147825Y-110472203D01*
X112117655Y-110486507D01*
X112095476Y-110514393D01*
X112080327Y-110559287D01*
X112071250Y-110624615D01*
X112067286Y-110713804D01*
X112066914Y-110761261D01*
X112066730Y-110836071D01*
X112065522Y-110887069D01*
X112062309Y-110919471D01*
X112056109Y-110938495D01*
X112045940Y-110949356D01*
X112030819Y-110957272D01*
X112029946Y-110957670D01*
X112000828Y-110969981D01*
X111986403Y-110974514D01*
X111984186Y-110960809D01*
X111982289Y-110922925D01*
X111980847Y-110865715D01*
X111979998Y-110794027D01*
X111979829Y-110741565D01*
X111980692Y-110640047D01*
X111984070Y-110563032D01*
X111991142Y-110506023D01*
X112003088Y-110464526D01*
X112021090Y-110434043D01*
X112046327Y-110410080D01*
X112071247Y-110393355D01*
X112131171Y-110371097D01*
X112200911Y-110366076D01*
X112266600Y-110378752D01*
G37*
X112266600Y-110378752D02*
X112283948Y-110386334D01*
X112325356Y-110419128D01*
X112360765Y-110466547D01*
X112382664Y-110517151D01*
X112386229Y-110542098D01*
X112374279Y-110576927D01*
X112348067Y-110595357D01*
X112319964Y-110606516D01*
X112307095Y-110608572D01*
X112300829Y-110593649D01*
X112288456Y-110561175D01*
X112283028Y-110546502D01*
X112252590Y-110495744D01*
X112208520Y-110470427D01*
X112152010Y-110471206D01*
X112147825Y-110472203D01*
X112117655Y-110486507D01*
X112095476Y-110514393D01*
X112080327Y-110559287D01*
X112071250Y-110624615D01*
X112067286Y-110713804D01*
X112066914Y-110761261D01*
X112066730Y-110836071D01*
X112065522Y-110887069D01*
X112062309Y-110919471D01*
X112056109Y-110938495D01*
X112045940Y-110949356D01*
X112030819Y-110957272D01*
X112029946Y-110957670D01*
X112000828Y-110969981D01*
X111986403Y-110974514D01*
X111984186Y-110960809D01*
X111982289Y-110922925D01*
X111980847Y-110865715D01*
X111979998Y-110794027D01*
X111979829Y-110741565D01*
X111980692Y-110640047D01*
X111984070Y-110563032D01*
X111991142Y-110506023D01*
X112003088Y-110464526D01*
X112021090Y-110434043D01*
X112046327Y-110410080D01*
X112071247Y-110393355D01*
X112131171Y-110371097D01*
X112200911Y-110366076D01*
X112266600Y-110378752D01*
G36*
X111758876Y-110376335D02*
G01*
X111800667Y-110395344D01*
X111833469Y-110418378D01*
X111857503Y-110444133D01*
X111874097Y-110477358D01*
X111884577Y-110522800D01*
X111890271Y-110585207D01*
X111892507Y-110669327D01*
X111892743Y-110724721D01*
X111892743Y-110940826D01*
X111855774Y-110957670D01*
X111826656Y-110969981D01*
X111812231Y-110974514D01*
X111809472Y-110961025D01*
X111807282Y-110924653D01*
X111805942Y-110871542D01*
X111805657Y-110829372D01*
X111804434Y-110768447D01*
X111801136Y-110720115D01*
X111796321Y-110690518D01*
X111792496Y-110684229D01*
X111766783Y-110690652D01*
X111726418Y-110707125D01*
X111679679Y-110729458D01*
X111634845Y-110753457D01*
X111600193Y-110774930D01*
X111584002Y-110789685D01*
X111583938Y-110789845D01*
X111585330Y-110817152D01*
X111597818Y-110843219D01*
X111619743Y-110864392D01*
X111651743Y-110871474D01*
X111679092Y-110870649D01*
X111717826Y-110870042D01*
X111738158Y-110879116D01*
X111750369Y-110903092D01*
X111751909Y-110907613D01*
X111757203Y-110941806D01*
X111743047Y-110962568D01*
X111706148Y-110972462D01*
X111666289Y-110974292D01*
X111594562Y-110960727D01*
X111557432Y-110941355D01*
X111511576Y-110895845D01*
X111487256Y-110839983D01*
X111485073Y-110780957D01*
X111505629Y-110725953D01*
X111536549Y-110691486D01*
X111567420Y-110672189D01*
X111615942Y-110647759D01*
X111672485Y-110622985D01*
X111681910Y-110619199D01*
X111744019Y-110591791D01*
X111779822Y-110567634D01*
X111791337Y-110543619D01*
X111780580Y-110516635D01*
X111762114Y-110495543D01*
X111718469Y-110469572D01*
X111670446Y-110467624D01*
X111626406Y-110487637D01*
X111594709Y-110527551D01*
X111590549Y-110537848D01*
X111566327Y-110575724D01*
X111530965Y-110603842D01*
X111486343Y-110626917D01*
X111486343Y-110561485D01*
X111488969Y-110521506D01*
X111500230Y-110489997D01*
X111525199Y-110456378D01*
X111549169Y-110430484D01*
X111586441Y-110393817D01*
X111615401Y-110374121D01*
X111646505Y-110366220D01*
X111681713Y-110364914D01*
X111758876Y-110376335D01*
G37*
X111758876Y-110376335D02*
X111800667Y-110395344D01*
X111833469Y-110418378D01*
X111857503Y-110444133D01*
X111874097Y-110477358D01*
X111884577Y-110522800D01*
X111890271Y-110585207D01*
X111892507Y-110669327D01*
X111892743Y-110724721D01*
X111892743Y-110940826D01*
X111855774Y-110957670D01*
X111826656Y-110969981D01*
X111812231Y-110974514D01*
X111809472Y-110961025D01*
X111807282Y-110924653D01*
X111805942Y-110871542D01*
X111805657Y-110829372D01*
X111804434Y-110768447D01*
X111801136Y-110720115D01*
X111796321Y-110690518D01*
X111792496Y-110684229D01*
X111766783Y-110690652D01*
X111726418Y-110707125D01*
X111679679Y-110729458D01*
X111634845Y-110753457D01*
X111600193Y-110774930D01*
X111584002Y-110789685D01*
X111583938Y-110789845D01*
X111585330Y-110817152D01*
X111597818Y-110843219D01*
X111619743Y-110864392D01*
X111651743Y-110871474D01*
X111679092Y-110870649D01*
X111717826Y-110870042D01*
X111738158Y-110879116D01*
X111750369Y-110903092D01*
X111751909Y-110907613D01*
X111757203Y-110941806D01*
X111743047Y-110962568D01*
X111706148Y-110972462D01*
X111666289Y-110974292D01*
X111594562Y-110960727D01*
X111557432Y-110941355D01*
X111511576Y-110895845D01*
X111487256Y-110839983D01*
X111485073Y-110780957D01*
X111505629Y-110725953D01*
X111536549Y-110691486D01*
X111567420Y-110672189D01*
X111615942Y-110647759D01*
X111672485Y-110622985D01*
X111681910Y-110619199D01*
X111744019Y-110591791D01*
X111779822Y-110567634D01*
X111791337Y-110543619D01*
X111780580Y-110516635D01*
X111762114Y-110495543D01*
X111718469Y-110469572D01*
X111670446Y-110467624D01*
X111626406Y-110487637D01*
X111594709Y-110527551D01*
X111590549Y-110537848D01*
X111566327Y-110575724D01*
X111530965Y-110603842D01*
X111486343Y-110626917D01*
X111486343Y-110561485D01*
X111488969Y-110521506D01*
X111500230Y-110489997D01*
X111525199Y-110456378D01*
X111549169Y-110430484D01*
X111586441Y-110393817D01*
X111615401Y-110374121D01*
X111646505Y-110366220D01*
X111681713Y-110364914D01*
X111758876Y-110376335D01*
G36*
X111393833Y-110378663D02*
G01*
X111396048Y-110416850D01*
X111397784Y-110474886D01*
X111398899Y-110548180D01*
X111399257Y-110625055D01*
X111399257Y-110885196D01*
X111353326Y-110931127D01*
X111321675Y-110959429D01*
X111293890Y-110970893D01*
X111255915Y-110970168D01*
X111240840Y-110968321D01*
X111193726Y-110962948D01*
X111154756Y-110959869D01*
X111145257Y-110959585D01*
X111113233Y-110961445D01*
X111067432Y-110966114D01*
X111049674Y-110968321D01*
X111006057Y-110971735D01*
X110976745Y-110964320D01*
X110947680Y-110941427D01*
X110937188Y-110931127D01*
X110891257Y-110885196D01*
X110891257Y-110398602D01*
X110928226Y-110381758D01*
X110960059Y-110369282D01*
X110978683Y-110364914D01*
X110983458Y-110378718D01*
X110987921Y-110417286D01*
X110991775Y-110476356D01*
X110994722Y-110551663D01*
X110996143Y-110615286D01*
X111000114Y-110865657D01*
X111034759Y-110870556D01*
X111066268Y-110867131D01*
X111081708Y-110856041D01*
X111086023Y-110835308D01*
X111089708Y-110791145D01*
X111092469Y-110729146D01*
X111094012Y-110654909D01*
X111094235Y-110616706D01*
X111094457Y-110396783D01*
X111140166Y-110380849D01*
X111172518Y-110370015D01*
X111190115Y-110364962D01*
X111190623Y-110364914D01*
X111192388Y-110378648D01*
X111194329Y-110416730D01*
X111196282Y-110474482D01*
X111198084Y-110547227D01*
X111199343Y-110615286D01*
X111203314Y-110865657D01*
X111290400Y-110865657D01*
X111294396Y-110637240D01*
X111298392Y-110408822D01*
X111340847Y-110386868D01*
X111372192Y-110371793D01*
X111390744Y-110364951D01*
X111391279Y-110364914D01*
X111393833Y-110378663D01*
G37*
X111393833Y-110378663D02*
X111396048Y-110416850D01*
X111397784Y-110474886D01*
X111398899Y-110548180D01*
X111399257Y-110625055D01*
X111399257Y-110885196D01*
X111353326Y-110931127D01*
X111321675Y-110959429D01*
X111293890Y-110970893D01*
X111255915Y-110970168D01*
X111240840Y-110968321D01*
X111193726Y-110962948D01*
X111154756Y-110959869D01*
X111145257Y-110959585D01*
X111113233Y-110961445D01*
X111067432Y-110966114D01*
X111049674Y-110968321D01*
X111006057Y-110971735D01*
X110976745Y-110964320D01*
X110947680Y-110941427D01*
X110937188Y-110931127D01*
X110891257Y-110885196D01*
X110891257Y-110398602D01*
X110928226Y-110381758D01*
X110960059Y-110369282D01*
X110978683Y-110364914D01*
X110983458Y-110378718D01*
X110987921Y-110417286D01*
X110991775Y-110476356D01*
X110994722Y-110551663D01*
X110996143Y-110615286D01*
X111000114Y-110865657D01*
X111034759Y-110870556D01*
X111066268Y-110867131D01*
X111081708Y-110856041D01*
X111086023Y-110835308D01*
X111089708Y-110791145D01*
X111092469Y-110729146D01*
X111094012Y-110654909D01*
X111094235Y-110616706D01*
X111094457Y-110396783D01*
X111140166Y-110380849D01*
X111172518Y-110370015D01*
X111190115Y-110364962D01*
X111190623Y-110364914D01*
X111192388Y-110378648D01*
X111194329Y-110416730D01*
X111196282Y-110474482D01*
X111198084Y-110547227D01*
X111199343Y-110615286D01*
X111203314Y-110865657D01*
X111290400Y-110865657D01*
X111294396Y-110637240D01*
X111298392Y-110408822D01*
X111340847Y-110386868D01*
X111372192Y-110371793D01*
X111390744Y-110364951D01*
X111391279Y-110364914D01*
X111393833Y-110378663D01*
G36*
X110804117Y-110485358D02*
G01*
X110803933Y-110593837D01*
X110803219Y-110677287D01*
X110801675Y-110739704D01*
X110799001Y-110785085D01*
X110794894Y-110817429D01*
X110789055Y-110840733D01*
X110781182Y-110858995D01*
X110775221Y-110869418D01*
X110725855Y-110925945D01*
X110663264Y-110961377D01*
X110594013Y-110974090D01*
X110524668Y-110962463D01*
X110483375Y-110941568D01*
X110440025Y-110905422D01*
X110410481Y-110861276D01*
X110392655Y-110803462D01*
X110384463Y-110726313D01*
X110383302Y-110669714D01*
X110383458Y-110665647D01*
X110484857Y-110665647D01*
X110485476Y-110730550D01*
X110488314Y-110773514D01*
X110494840Y-110801622D01*
X110506523Y-110821953D01*
X110520483Y-110837288D01*
X110567365Y-110866890D01*
X110617701Y-110869419D01*
X110665276Y-110844705D01*
X110668979Y-110841356D01*
X110684783Y-110823935D01*
X110694693Y-110803209D01*
X110700058Y-110772362D01*
X110702228Y-110724577D01*
X110702571Y-110671748D01*
X110701827Y-110605381D01*
X110698748Y-110561106D01*
X110692061Y-110532009D01*
X110680496Y-110511173D01*
X110671013Y-110500107D01*
X110626960Y-110472198D01*
X110576224Y-110468843D01*
X110527796Y-110490159D01*
X110518450Y-110498073D01*
X110502540Y-110515647D01*
X110492610Y-110536587D01*
X110487278Y-110567782D01*
X110485163Y-110616122D01*
X110484857Y-110665647D01*
X110383458Y-110665647D01*
X110386810Y-110578568D01*
X110398726Y-110510086D01*
X110421135Y-110458600D01*
X110456124Y-110418443D01*
X110483375Y-110397861D01*
X110532907Y-110375625D01*
X110590316Y-110365304D01*
X110643682Y-110368067D01*
X110673543Y-110379212D01*
X110685261Y-110382383D01*
X110693037Y-110370557D01*
X110698465Y-110338866D01*
X110702571Y-110290593D01*
X110707067Y-110236829D01*
X110713313Y-110204482D01*
X110724676Y-110185985D01*
X110744528Y-110173770D01*
X110757000Y-110168362D01*
X110804171Y-110148601D01*
X110804117Y-110485358D01*
G37*
X110804117Y-110485358D02*
X110803933Y-110593837D01*
X110803219Y-110677287D01*
X110801675Y-110739704D01*
X110799001Y-110785085D01*
X110794894Y-110817429D01*
X110789055Y-110840733D01*
X110781182Y-110858995D01*
X110775221Y-110869418D01*
X110725855Y-110925945D01*
X110663264Y-110961377D01*
X110594013Y-110974090D01*
X110524668Y-110962463D01*
X110483375Y-110941568D01*
X110440025Y-110905422D01*
X110410481Y-110861276D01*
X110392655Y-110803462D01*
X110384463Y-110726313D01*
X110383302Y-110669714D01*
X110383458Y-110665647D01*
X110484857Y-110665647D01*
X110485476Y-110730550D01*
X110488314Y-110773514D01*
X110494840Y-110801622D01*
X110506523Y-110821953D01*
X110520483Y-110837288D01*
X110567365Y-110866890D01*
X110617701Y-110869419D01*
X110665276Y-110844705D01*
X110668979Y-110841356D01*
X110684783Y-110823935D01*
X110694693Y-110803209D01*
X110700058Y-110772362D01*
X110702228Y-110724577D01*
X110702571Y-110671748D01*
X110701827Y-110605381D01*
X110698748Y-110561106D01*
X110692061Y-110532009D01*
X110680496Y-110511173D01*
X110671013Y-110500107D01*
X110626960Y-110472198D01*
X110576224Y-110468843D01*
X110527796Y-110490159D01*
X110518450Y-110498073D01*
X110502540Y-110515647D01*
X110492610Y-110536587D01*
X110487278Y-110567782D01*
X110485163Y-110616122D01*
X110484857Y-110665647D01*
X110383458Y-110665647D01*
X110386810Y-110578568D01*
X110398726Y-110510086D01*
X110421135Y-110458600D01*
X110456124Y-110418443D01*
X110483375Y-110397861D01*
X110532907Y-110375625D01*
X110590316Y-110365304D01*
X110643682Y-110368067D01*
X110673543Y-110379212D01*
X110685261Y-110382383D01*
X110693037Y-110370557D01*
X110698465Y-110338866D01*
X110702571Y-110290593D01*
X110707067Y-110236829D01*
X110713313Y-110204482D01*
X110724676Y-110185985D01*
X110744528Y-110173770D01*
X110757000Y-110168362D01*
X110804171Y-110148601D01*
X110804117Y-110485358D01*
G36*
X110143926Y-110369755D02*
G01*
X110209858Y-110394084D01*
X110263273Y-110437117D01*
X110284164Y-110467409D01*
X110306939Y-110522994D01*
X110306466Y-110563186D01*
X110282562Y-110590217D01*
X110273717Y-110594813D01*
X110235530Y-110609144D01*
X110216028Y-110605472D01*
X110209422Y-110581407D01*
X110209086Y-110568114D01*
X110196992Y-110519210D01*
X110165471Y-110484999D01*
X110121659Y-110468476D01*
X110072695Y-110472634D01*
X110032894Y-110494227D01*
X110019450Y-110506544D01*
X110009921Y-110521487D01*
X110003485Y-110544075D01*
X109999317Y-110579328D01*
X109996597Y-110632266D01*
X109994502Y-110707907D01*
X109993960Y-110731857D01*
X109991981Y-110813790D01*
X109989731Y-110871455D01*
X109986357Y-110909608D01*
X109981006Y-110933004D01*
X109972824Y-110946398D01*
X109960959Y-110954545D01*
X109953362Y-110958144D01*
X109921102Y-110970452D01*
X109902111Y-110974514D01*
X109895836Y-110960948D01*
X109892006Y-110919934D01*
X109890600Y-110850999D01*
X109891598Y-110753669D01*
X109891908Y-110738657D01*
X109894101Y-110649859D01*
X109896693Y-110585019D01*
X109900382Y-110539067D01*
X109905864Y-110506935D01*
X109913835Y-110483553D01*
X109924993Y-110463852D01*
X109930830Y-110455410D01*
X109964296Y-110418057D01*
X110001727Y-110389003D01*
X110006309Y-110386467D01*
X110073426Y-110366443D01*
X110143926Y-110369755D01*
G37*
X110143926Y-110369755D02*
X110209858Y-110394084D01*
X110263273Y-110437117D01*
X110284164Y-110467409D01*
X110306939Y-110522994D01*
X110306466Y-110563186D01*
X110282562Y-110590217D01*
X110273717Y-110594813D01*
X110235530Y-110609144D01*
X110216028Y-110605472D01*
X110209422Y-110581407D01*
X110209086Y-110568114D01*
X110196992Y-110519210D01*
X110165471Y-110484999D01*
X110121659Y-110468476D01*
X110072695Y-110472634D01*
X110032894Y-110494227D01*
X110019450Y-110506544D01*
X110009921Y-110521487D01*
X110003485Y-110544075D01*
X109999317Y-110579328D01*
X109996597Y-110632266D01*
X109994502Y-110707907D01*
X109993960Y-110731857D01*
X109991981Y-110813790D01*
X109989731Y-110871455D01*
X109986357Y-110909608D01*
X109981006Y-110933004D01*
X109972824Y-110946398D01*
X109960959Y-110954545D01*
X109953362Y-110958144D01*
X109921102Y-110970452D01*
X109902111Y-110974514D01*
X109895836Y-110960948D01*
X109892006Y-110919934D01*
X109890600Y-110850999D01*
X109891598Y-110753669D01*
X109891908Y-110738657D01*
X109894101Y-110649859D01*
X109896693Y-110585019D01*
X109900382Y-110539067D01*
X109905864Y-110506935D01*
X109913835Y-110483553D01*
X109924993Y-110463852D01*
X109930830Y-110455410D01*
X109964296Y-110418057D01*
X110001727Y-110389003D01*
X110006309Y-110386467D01*
X110073426Y-110366443D01*
X110143926Y-110369755D01*
G36*
X109653744Y-110370968D02*
G01*
X109710616Y-110392087D01*
X109711267Y-110392493D01*
X109746440Y-110418380D01*
X109772407Y-110448633D01*
X109790670Y-110488058D01*
X109802732Y-110541462D01*
X109810096Y-110613651D01*
X109814264Y-110709432D01*
X109814629Y-110723078D01*
X109819876Y-110928842D01*
X109775716Y-110951678D01*
X109743763Y-110967110D01*
X109724470Y-110974423D01*
X109723578Y-110974514D01*
X109720239Y-110961022D01*
X109717587Y-110924626D01*
X109715956Y-110871452D01*
X109715600Y-110828393D01*
X109715592Y-110758641D01*
X109712403Y-110714837D01*
X109701288Y-110693944D01*
X109677501Y-110692925D01*
X109636296Y-110708741D01*
X109574086Y-110737815D01*
X109528341Y-110761963D01*
X109504813Y-110782913D01*
X109497896Y-110805747D01*
X109497886Y-110806877D01*
X109509299Y-110846212D01*
X109543092Y-110867462D01*
X109594809Y-110870539D01*
X109632061Y-110870006D01*
X109651703Y-110880735D01*
X109663952Y-110906505D01*
X109671002Y-110939337D01*
X109660842Y-110957966D01*
X109657017Y-110960632D01*
X109621001Y-110971340D01*
X109570566Y-110972856D01*
X109518626Y-110965759D01*
X109481822Y-110952788D01*
X109430938Y-110909585D01*
X109402014Y-110849446D01*
X109396286Y-110802462D01*
X109400657Y-110760082D01*
X109416475Y-110725488D01*
X109447797Y-110694763D01*
X109498678Y-110663990D01*
X109573176Y-110629252D01*
X109577714Y-110627288D01*
X109644821Y-110596287D01*
X109686232Y-110570862D01*
X109703981Y-110548014D01*
X109700107Y-110524745D01*
X109676643Y-110498056D01*
X109669627Y-110491914D01*
X109622630Y-110468100D01*
X109573933Y-110469103D01*
X109531522Y-110492451D01*
X109503384Y-110535675D01*
X109500769Y-110544160D01*
X109475308Y-110585308D01*
X109443001Y-110605128D01*
X109396286Y-110624770D01*
X109396286Y-110573950D01*
X109410496Y-110500082D01*
X109452675Y-110432327D01*
X109474624Y-110409661D01*
X109524517Y-110380569D01*
X109587967Y-110367400D01*
X109653744Y-110370968D01*
G37*
X109653744Y-110370968D02*
X109710616Y-110392087D01*
X109711267Y-110392493D01*
X109746440Y-110418380D01*
X109772407Y-110448633D01*
X109790670Y-110488058D01*
X109802732Y-110541462D01*
X109810096Y-110613651D01*
X109814264Y-110709432D01*
X109814629Y-110723078D01*
X109819876Y-110928842D01*
X109775716Y-110951678D01*
X109743763Y-110967110D01*
X109724470Y-110974423D01*
X109723578Y-110974514D01*
X109720239Y-110961022D01*
X109717587Y-110924626D01*
X109715956Y-110871452D01*
X109715600Y-110828393D01*
X109715592Y-110758641D01*
X109712403Y-110714837D01*
X109701288Y-110693944D01*
X109677501Y-110692925D01*
X109636296Y-110708741D01*
X109574086Y-110737815D01*
X109528341Y-110761963D01*
X109504813Y-110782913D01*
X109497896Y-110805747D01*
X109497886Y-110806877D01*
X109509299Y-110846212D01*
X109543092Y-110867462D01*
X109594809Y-110870539D01*
X109632061Y-110870006D01*
X109651703Y-110880735D01*
X109663952Y-110906505D01*
X109671002Y-110939337D01*
X109660842Y-110957966D01*
X109657017Y-110960632D01*
X109621001Y-110971340D01*
X109570566Y-110972856D01*
X109518626Y-110965759D01*
X109481822Y-110952788D01*
X109430938Y-110909585D01*
X109402014Y-110849446D01*
X109396286Y-110802462D01*
X109400657Y-110760082D01*
X109416475Y-110725488D01*
X109447797Y-110694763D01*
X109498678Y-110663990D01*
X109573176Y-110629252D01*
X109577714Y-110627288D01*
X109644821Y-110596287D01*
X109686232Y-110570862D01*
X109703981Y-110548014D01*
X109700107Y-110524745D01*
X109676643Y-110498056D01*
X109669627Y-110491914D01*
X109622630Y-110468100D01*
X109573933Y-110469103D01*
X109531522Y-110492451D01*
X109503384Y-110535675D01*
X109500769Y-110544160D01*
X109475308Y-110585308D01*
X109443001Y-110605128D01*
X109396286Y-110624770D01*
X109396286Y-110573950D01*
X109410496Y-110500082D01*
X109452675Y-110432327D01*
X109474624Y-110409661D01*
X109524517Y-110380569D01*
X109587967Y-110367400D01*
X109653744Y-110370968D01*
G36*
X108989886Y-110271289D02*
G01*
X108994139Y-110330613D01*
X108999025Y-110365572D01*
X109005795Y-110380820D01*
X109015702Y-110381015D01*
X109018914Y-110379195D01*
X109061644Y-110366015D01*
X109117227Y-110366785D01*
X109173737Y-110380333D01*
X109209082Y-110397861D01*
X109245321Y-110425861D01*
X109271813Y-110457549D01*
X109289999Y-110497813D01*
X109301322Y-110551543D01*
X109307222Y-110623626D01*
X109309143Y-110718951D01*
X109309177Y-110737237D01*
X109309200Y-110942646D01*
X109263491Y-110958580D01*
X109231027Y-110969420D01*
X109213215Y-110974468D01*
X109212691Y-110974514D01*
X109210937Y-110960828D01*
X109209444Y-110923076D01*
X109208326Y-110866224D01*
X109207697Y-110795234D01*
X109207600Y-110752073D01*
X109207398Y-110666973D01*
X109206358Y-110605981D01*
X109203831Y-110564177D01*
X109199164Y-110536642D01*
X109191707Y-110518456D01*
X109180811Y-110504698D01*
X109174007Y-110498073D01*
X109127272Y-110471375D01*
X109076272Y-110469375D01*
X109030001Y-110491955D01*
X109021444Y-110500107D01*
X109008893Y-110515436D01*
X109000188Y-110533618D01*
X108994631Y-110559909D01*
X108991526Y-110599562D01*
X108990176Y-110657832D01*
X108989886Y-110738173D01*
X108989886Y-110942646D01*
X108944177Y-110958580D01*
X108911713Y-110969420D01*
X108893901Y-110974468D01*
X108893377Y-110974514D01*
X108892037Y-110960623D01*
X108890828Y-110921439D01*
X108889801Y-110860700D01*
X108889002Y-110782141D01*
X108888481Y-110689498D01*
X108888286Y-110586509D01*
X108888286Y-110189342D01*
X108935457Y-110169444D01*
X108982629Y-110149547D01*
X108989886Y-110271289D01*
G37*
X108989886Y-110271289D02*
X108994139Y-110330613D01*
X108999025Y-110365572D01*
X109005795Y-110380820D01*
X109015702Y-110381015D01*
X109018914Y-110379195D01*
X109061644Y-110366015D01*
X109117227Y-110366785D01*
X109173737Y-110380333D01*
X109209082Y-110397861D01*
X109245321Y-110425861D01*
X109271813Y-110457549D01*
X109289999Y-110497813D01*
X109301322Y-110551543D01*
X109307222Y-110623626D01*
X109309143Y-110718951D01*
X109309177Y-110737237D01*
X109309200Y-110942646D01*
X109263491Y-110958580D01*
X109231027Y-110969420D01*
X109213215Y-110974468D01*
X109212691Y-110974514D01*
X109210937Y-110960828D01*
X109209444Y-110923076D01*
X109208326Y-110866224D01*
X109207697Y-110795234D01*
X109207600Y-110752073D01*
X109207398Y-110666973D01*
X109206358Y-110605981D01*
X109203831Y-110564177D01*
X109199164Y-110536642D01*
X109191707Y-110518456D01*
X109180811Y-110504698D01*
X109174007Y-110498073D01*
X109127272Y-110471375D01*
X109076272Y-110469375D01*
X109030001Y-110491955D01*
X109021444Y-110500107D01*
X109008893Y-110515436D01*
X109000188Y-110533618D01*
X108994631Y-110559909D01*
X108991526Y-110599562D01*
X108990176Y-110657832D01*
X108989886Y-110738173D01*
X108989886Y-110942646D01*
X108944177Y-110958580D01*
X108911713Y-110969420D01*
X108893901Y-110974468D01*
X108893377Y-110974514D01*
X108892037Y-110960623D01*
X108890828Y-110921439D01*
X108889801Y-110860700D01*
X108889002Y-110782141D01*
X108888481Y-110689498D01*
X108888286Y-110586509D01*
X108888286Y-110189342D01*
X108935457Y-110169444D01*
X108982629Y-110149547D01*
X108989886Y-110271289D01*
G36*
X107782303Y-110351239D02*
G01*
X107839527Y-110389735D01*
X107883749Y-110445335D01*
X107910167Y-110516086D01*
X107915510Y-110568162D01*
X107914903Y-110589893D01*
X107909822Y-110606531D01*
X107895855Y-110621437D01*
X107868589Y-110637973D01*
X107823612Y-110659498D01*
X107756511Y-110689374D01*
X107756171Y-110689524D01*
X107694407Y-110717813D01*
X107643759Y-110742933D01*
X107609404Y-110762179D01*
X107596518Y-110772848D01*
X107596514Y-110772934D01*
X107607872Y-110796166D01*
X107634431Y-110821774D01*
X107664923Y-110840221D01*
X107680370Y-110843886D01*
X107722515Y-110831212D01*
X107758808Y-110799471D01*
X107776517Y-110764572D01*
X107793552Y-110738845D01*
X107826922Y-110709546D01*
X107866149Y-110684235D01*
X107900756Y-110670471D01*
X107907993Y-110669714D01*
X107916139Y-110682160D01*
X107916630Y-110713972D01*
X107910643Y-110756866D01*
X107899357Y-110802558D01*
X107883950Y-110842761D01*
X107883171Y-110844322D01*
X107836804Y-110909062D01*
X107776711Y-110953097D01*
X107708465Y-110974711D01*
X107637638Y-110972185D01*
X107569804Y-110943804D01*
X107566788Y-110941808D01*
X107513427Y-110893448D01*
X107478340Y-110830352D01*
X107458922Y-110747387D01*
X107456316Y-110724078D01*
X107451701Y-110614055D01*
X107457233Y-110562748D01*
X107596514Y-110562748D01*
X107598324Y-110594753D01*
X107608222Y-110604093D01*
X107632898Y-110597105D01*
X107671795Y-110580587D01*
X107715275Y-110559881D01*
X107716356Y-110559333D01*
X107753209Y-110539949D01*
X107768000Y-110527013D01*
X107764353Y-110513451D01*
X107748995Y-110495632D01*
X107709923Y-110469845D01*
X107667846Y-110467950D01*
X107630103Y-110486717D01*
X107604034Y-110522915D01*
X107596514Y-110562748D01*
X107457233Y-110562748D01*
X107461194Y-110526027D01*
X107485550Y-110456212D01*
X107519456Y-110407302D01*
X107580653Y-110357878D01*
X107648063Y-110333359D01*
X107716880Y-110331797D01*
X107782303Y-110351239D01*
G37*
X107782303Y-110351239D02*
X107839527Y-110389735D01*
X107883749Y-110445335D01*
X107910167Y-110516086D01*
X107915510Y-110568162D01*
X107914903Y-110589893D01*
X107909822Y-110606531D01*
X107895855Y-110621437D01*
X107868589Y-110637973D01*
X107823612Y-110659498D01*
X107756511Y-110689374D01*
X107756171Y-110689524D01*
X107694407Y-110717813D01*
X107643759Y-110742933D01*
X107609404Y-110762179D01*
X107596518Y-110772848D01*
X107596514Y-110772934D01*
X107607872Y-110796166D01*
X107634431Y-110821774D01*
X107664923Y-110840221D01*
X107680370Y-110843886D01*
X107722515Y-110831212D01*
X107758808Y-110799471D01*
X107776517Y-110764572D01*
X107793552Y-110738845D01*
X107826922Y-110709546D01*
X107866149Y-110684235D01*
X107900756Y-110670471D01*
X107907993Y-110669714D01*
X107916139Y-110682160D01*
X107916630Y-110713972D01*
X107910643Y-110756866D01*
X107899357Y-110802558D01*
X107883950Y-110842761D01*
X107883171Y-110844322D01*
X107836804Y-110909062D01*
X107776711Y-110953097D01*
X107708465Y-110974711D01*
X107637638Y-110972185D01*
X107569804Y-110943804D01*
X107566788Y-110941808D01*
X107513427Y-110893448D01*
X107478340Y-110830352D01*
X107458922Y-110747387D01*
X107456316Y-110724078D01*
X107451701Y-110614055D01*
X107457233Y-110562748D01*
X107596514Y-110562748D01*
X107598324Y-110594753D01*
X107608222Y-110604093D01*
X107632898Y-110597105D01*
X107671795Y-110580587D01*
X107715275Y-110559881D01*
X107716356Y-110559333D01*
X107753209Y-110539949D01*
X107768000Y-110527013D01*
X107764353Y-110513451D01*
X107748995Y-110495632D01*
X107709923Y-110469845D01*
X107667846Y-110467950D01*
X107630103Y-110486717D01*
X107604034Y-110522915D01*
X107596514Y-110562748D01*
X107457233Y-110562748D01*
X107461194Y-110526027D01*
X107485550Y-110456212D01*
X107519456Y-110407302D01*
X107580653Y-110357878D01*
X107648063Y-110333359D01*
X107716880Y-110331797D01*
X107782303Y-110351239D01*
G36*
X106655115Y-110341962D02*
G01*
X106723145Y-110377733D01*
X106773351Y-110435301D01*
X106791185Y-110472312D01*
X106805063Y-110527882D01*
X106812167Y-110598096D01*
X106812840Y-110674727D01*
X106807427Y-110749552D01*
X106796270Y-110814342D01*
X106779714Y-110860873D01*
X106774626Y-110868887D01*
X106714355Y-110928707D01*
X106642769Y-110964535D01*
X106565092Y-110975020D01*
X106486548Y-110958810D01*
X106464689Y-110949092D01*
X106422122Y-110919143D01*
X106384763Y-110879433D01*
X106381232Y-110874397D01*
X106366881Y-110850124D01*
X106357394Y-110824178D01*
X106351790Y-110790022D01*
X106349086Y-110741119D01*
X106348299Y-110670935D01*
X106348286Y-110655200D01*
X106348322Y-110650192D01*
X106493429Y-110650192D01*
X106494273Y-110716430D01*
X106497596Y-110760386D01*
X106504583Y-110788779D01*
X106516416Y-110808325D01*
X106522457Y-110814857D01*
X106557186Y-110839680D01*
X106590903Y-110838548D01*
X106624995Y-110817016D01*
X106645329Y-110794029D01*
X106657371Y-110760478D01*
X106664134Y-110707569D01*
X106664598Y-110701399D01*
X106665752Y-110605513D01*
X106653688Y-110534299D01*
X106628570Y-110488194D01*
X106590560Y-110467635D01*
X106576992Y-110466514D01*
X106541364Y-110472152D01*
X106516994Y-110491686D01*
X106502093Y-110529042D01*
X106494875Y-110588150D01*
X106493429Y-110650192D01*
X106348322Y-110650192D01*
X106348826Y-110580413D01*
X106351096Y-110528159D01*
X106356068Y-110491949D01*
X106364713Y-110465299D01*
X106378005Y-110441722D01*
X106380943Y-110437338D01*
X106430313Y-110378249D01*
X106484109Y-110343947D01*
X106549602Y-110330331D01*
X106571842Y-110329665D01*
X106655115Y-110341962D01*
G37*
X106655115Y-110341962D02*
X106723145Y-110377733D01*
X106773351Y-110435301D01*
X106791185Y-110472312D01*
X106805063Y-110527882D01*
X106812167Y-110598096D01*
X106812840Y-110674727D01*
X106807427Y-110749552D01*
X106796270Y-110814342D01*
X106779714Y-110860873D01*
X106774626Y-110868887D01*
X106714355Y-110928707D01*
X106642769Y-110964535D01*
X106565092Y-110975020D01*
X106486548Y-110958810D01*
X106464689Y-110949092D01*
X106422122Y-110919143D01*
X106384763Y-110879433D01*
X106381232Y-110874397D01*
X106366881Y-110850124D01*
X106357394Y-110824178D01*
X106351790Y-110790022D01*
X106349086Y-110741119D01*
X106348299Y-110670935D01*
X106348286Y-110655200D01*
X106348322Y-110650192D01*
X106493429Y-110650192D01*
X106494273Y-110716430D01*
X106497596Y-110760386D01*
X106504583Y-110788779D01*
X106516416Y-110808325D01*
X106522457Y-110814857D01*
X106557186Y-110839680D01*
X106590903Y-110838548D01*
X106624995Y-110817016D01*
X106645329Y-110794029D01*
X106657371Y-110760478D01*
X106664134Y-110707569D01*
X106664598Y-110701399D01*
X106665752Y-110605513D01*
X106653688Y-110534299D01*
X106628570Y-110488194D01*
X106590560Y-110467635D01*
X106576992Y-110466514D01*
X106541364Y-110472152D01*
X106516994Y-110491686D01*
X106502093Y-110529042D01*
X106494875Y-110588150D01*
X106493429Y-110650192D01*
X106348322Y-110650192D01*
X106348826Y-110580413D01*
X106351096Y-110528159D01*
X106356068Y-110491949D01*
X106364713Y-110465299D01*
X106378005Y-110441722D01*
X106380943Y-110437338D01*
X106430313Y-110378249D01*
X106484109Y-110343947D01*
X106549602Y-110330331D01*
X106571842Y-110329665D01*
X106655115Y-110341962D01*
G36*
X108330093Y-110347780D02*
G01*
X108376672Y-110374723D01*
X108409057Y-110401466D01*
X108432742Y-110429484D01*
X108449059Y-110463748D01*
X108459339Y-110509227D01*
X108464914Y-110570892D01*
X108467116Y-110653711D01*
X108467371Y-110713246D01*
X108467371Y-110932391D01*
X108405686Y-110960044D01*
X108344000Y-110987697D01*
X108336743Y-110747670D01*
X108333744Y-110658028D01*
X108330598Y-110592962D01*
X108326701Y-110548026D01*
X108321447Y-110518770D01*
X108314231Y-110500748D01*
X108304450Y-110489511D01*
X108301312Y-110487079D01*
X108253761Y-110468083D01*
X108205697Y-110475600D01*
X108177086Y-110495543D01*
X108165447Y-110509675D01*
X108157391Y-110528220D01*
X108152271Y-110556334D01*
X108149441Y-110599173D01*
X108148256Y-110661895D01*
X108148057Y-110727261D01*
X108148018Y-110809268D01*
X108146614Y-110867316D01*
X108141914Y-110906465D01*
X108131987Y-110931780D01*
X108114903Y-110948323D01*
X108088732Y-110961156D01*
X108053775Y-110974491D01*
X108015596Y-110989007D01*
X108020141Y-110731389D01*
X108021971Y-110638519D01*
X108024112Y-110569889D01*
X108027181Y-110520711D01*
X108031794Y-110486198D01*
X108038568Y-110461562D01*
X108048119Y-110442016D01*
X108059634Y-110424770D01*
X108115190Y-110369680D01*
X108182980Y-110337822D01*
X108256713Y-110330191D01*
X108330093Y-110347780D01*
G37*
X108330093Y-110347780D02*
X108376672Y-110374723D01*
X108409057Y-110401466D01*
X108432742Y-110429484D01*
X108449059Y-110463748D01*
X108459339Y-110509227D01*
X108464914Y-110570892D01*
X108467116Y-110653711D01*
X108467371Y-110713246D01*
X108467371Y-110932391D01*
X108405686Y-110960044D01*
X108344000Y-110987697D01*
X108336743Y-110747670D01*
X108333744Y-110658028D01*
X108330598Y-110592962D01*
X108326701Y-110548026D01*
X108321447Y-110518770D01*
X108314231Y-110500748D01*
X108304450Y-110489511D01*
X108301312Y-110487079D01*
X108253761Y-110468083D01*
X108205697Y-110475600D01*
X108177086Y-110495543D01*
X108165447Y-110509675D01*
X108157391Y-110528220D01*
X108152271Y-110556334D01*
X108149441Y-110599173D01*
X108148256Y-110661895D01*
X108148057Y-110727261D01*
X108148018Y-110809268D01*
X108146614Y-110867316D01*
X108141914Y-110906465D01*
X108131987Y-110931780D01*
X108114903Y-110948323D01*
X108088732Y-110961156D01*
X108053775Y-110974491D01*
X108015596Y-110989007D01*
X108020141Y-110731389D01*
X108021971Y-110638519D01*
X108024112Y-110569889D01*
X108027181Y-110520711D01*
X108031794Y-110486198D01*
X108038568Y-110461562D01*
X108048119Y-110442016D01*
X108059634Y-110424770D01*
X108115190Y-110369680D01*
X108182980Y-110337822D01*
X108256713Y-110330191D01*
X108330093Y-110347780D01*
G36*
X107213744Y-110339918D02*
G01*
X107269201Y-110367568D01*
X107318148Y-110418480D01*
X107331629Y-110437338D01*
X107346314Y-110462015D01*
X107355842Y-110488816D01*
X107361293Y-110524587D01*
X107363747Y-110576169D01*
X107364286Y-110644267D01*
X107361852Y-110737588D01*
X107353394Y-110807657D01*
X107337174Y-110859931D01*
X107311454Y-110899869D01*
X107274497Y-110932929D01*
X107271782Y-110934886D01*
X107235360Y-110954908D01*
X107191502Y-110964815D01*
X107135724Y-110967257D01*
X107045048Y-110967257D01*
X107045010Y-111055283D01*
X107044166Y-111104308D01*
X107039024Y-111133065D01*
X107025587Y-111150311D01*
X106999858Y-111164808D01*
X106993679Y-111167769D01*
X106964764Y-111181648D01*
X106942376Y-111190414D01*
X106925729Y-111191171D01*
X106914036Y-111181023D01*
X106906510Y-111157073D01*
X106902366Y-111116426D01*
X106900815Y-111056186D01*
X106901071Y-110973455D01*
X106902349Y-110865339D01*
X106902748Y-110833000D01*
X106904185Y-110721524D01*
X106905472Y-110648603D01*
X107044971Y-110648603D01*
X107045755Y-110710499D01*
X107049240Y-110750997D01*
X107057124Y-110777708D01*
X107071105Y-110798244D01*
X107080597Y-110808260D01*
X107119404Y-110837567D01*
X107153763Y-110839952D01*
X107189216Y-110815750D01*
X107190114Y-110814857D01*
X107204539Y-110796153D01*
X107213313Y-110770732D01*
X107217739Y-110731584D01*
X107219118Y-110671697D01*
X107219143Y-110658430D01*
X107215812Y-110575901D01*
X107204969Y-110518691D01*
X107185340Y-110483766D01*
X107155650Y-110468094D01*
X107138491Y-110466514D01*
X107097766Y-110473926D01*
X107069832Y-110498330D01*
X107053017Y-110542980D01*
X107045650Y-110611130D01*
X107044971Y-110648603D01*
X106905472Y-110648603D01*
X106905708Y-110635245D01*
X106907677Y-110570333D01*
X106910450Y-110522958D01*
X106914388Y-110489290D01*
X106919849Y-110465498D01*
X106927192Y-110447753D01*
X106936777Y-110432224D01*
X106940887Y-110426381D01*
X106995405Y-110371185D01*
X107064336Y-110339890D01*
X107144072Y-110331165D01*
X107213744Y-110339918D01*
G37*
X107213744Y-110339918D02*
X107269201Y-110367568D01*
X107318148Y-110418480D01*
X107331629Y-110437338D01*
X107346314Y-110462015D01*
X107355842Y-110488816D01*
X107361293Y-110524587D01*
X107363747Y-110576169D01*
X107364286Y-110644267D01*
X107361852Y-110737588D01*
X107353394Y-110807657D01*
X107337174Y-110859931D01*
X107311454Y-110899869D01*
X107274497Y-110932929D01*
X107271782Y-110934886D01*
X107235360Y-110954908D01*
X107191502Y-110964815D01*
X107135724Y-110967257D01*
X107045048Y-110967257D01*
X107045010Y-111055283D01*
X107044166Y-111104308D01*
X107039024Y-111133065D01*
X107025587Y-111150311D01*
X106999858Y-111164808D01*
X106993679Y-111167769D01*
X106964764Y-111181648D01*
X106942376Y-111190414D01*
X106925729Y-111191171D01*
X106914036Y-111181023D01*
X106906510Y-111157073D01*
X106902366Y-111116426D01*
X106900815Y-111056186D01*
X106901071Y-110973455D01*
X106902349Y-110865339D01*
X106902748Y-110833000D01*
X106904185Y-110721524D01*
X106905472Y-110648603D01*
X107044971Y-110648603D01*
X107045755Y-110710499D01*
X107049240Y-110750997D01*
X107057124Y-110777708D01*
X107071105Y-110798244D01*
X107080597Y-110808260D01*
X107119404Y-110837567D01*
X107153763Y-110839952D01*
X107189216Y-110815750D01*
X107190114Y-110814857D01*
X107204539Y-110796153D01*
X107213313Y-110770732D01*
X107217739Y-110731584D01*
X107219118Y-110671697D01*
X107219143Y-110658430D01*
X107215812Y-110575901D01*
X107204969Y-110518691D01*
X107185340Y-110483766D01*
X107155650Y-110468094D01*
X107138491Y-110466514D01*
X107097766Y-110473926D01*
X107069832Y-110498330D01*
X107053017Y-110542980D01*
X107045650Y-110611130D01*
X107044971Y-110648603D01*
X106905472Y-110648603D01*
X106905708Y-110635245D01*
X106907677Y-110570333D01*
X106910450Y-110522958D01*
X106914388Y-110489290D01*
X106919849Y-110465498D01*
X106927192Y-110447753D01*
X106936777Y-110432224D01*
X106940887Y-110426381D01*
X106995405Y-110371185D01*
X107064336Y-110339890D01*
X107144072Y-110331165D01*
X107213744Y-110339918D01*
D10*
X105614000Y-113920000D02*
G75*
G03X105614000Y-113920000I-2500000J0D01*
G01*
X102014000Y-112820000D02*
G75*
G02X102014000Y-115020000I1100000J-1100000D01*
G01*
D12*
X99614000Y-111216051D02*
X98715974Y-110318026D01*
X100512026Y-110318026D02*
X99614000Y-111216051D01*
X104533392Y-103025684D02*
X104252620Y-102744912D01*
X103995991Y-103563085D02*
X103715219Y-103282313D01*
X98129076Y-96621367D02*
X102371716Y-100864008D01*
X97591675Y-97158768D02*
X98129076Y-96621367D01*
X101834315Y-101401409D02*
X97591675Y-97158768D01*
X103085894Y-103911638D02*
X101204990Y-102030734D01*
X102737341Y-104821735D02*
X102456569Y-104540963D01*
X102199940Y-105359136D02*
X101919168Y-105078364D01*
X96333025Y-98417418D02*
X100575665Y-102660059D01*
X95795623Y-98954820D02*
X96333025Y-98417418D01*
X100038264Y-103197460D02*
X95795623Y-98954820D01*
X101289843Y-105707689D02*
X99408939Y-103826785D01*
X100941290Y-106617786D02*
X100660518Y-106337014D01*
X100403888Y-107155187D02*
X100123117Y-106874416D01*
X94536973Y-100213470D02*
X98779614Y-104456110D01*
X93999572Y-100750871D02*
X94536973Y-100213470D01*
X98242213Y-104993512D02*
X93999572Y-100750871D01*
X99493792Y-107503741D02*
X97612888Y-105622837D01*
X99097812Y-108366411D02*
X98864467Y-108133066D01*
X98560411Y-108903812D02*
X98327066Y-108670467D01*
X96912852Y-106322872D02*
X92670211Y-102080232D01*
X96827999Y-106407725D02*
X92585359Y-102165084D01*
X96743146Y-106492578D02*
X92500506Y-102249937D01*
X96658294Y-106577431D02*
X92415653Y-102334790D01*
X96573441Y-106662284D02*
X92330800Y-102419643D01*
X96488588Y-106747136D02*
X92245947Y-102504496D01*
X92740922Y-102009521D02*
X96983563Y-106252162D01*
X92203521Y-102546922D02*
X92740922Y-102009521D01*
X96446162Y-106789563D02*
X92203521Y-102546922D01*
X95774410Y-107461314D02*
X97655314Y-109342218D01*
X103043468Y-100192257D02*
X95774410Y-107461314D01*
X104924372Y-102073161D02*
X103043468Y-100192257D01*
X97655314Y-109342218D02*
X104924372Y-102073161D01*
X175191782Y-101961314D02*
X182460839Y-109230372D01*
X182460839Y-109230372D02*
X184341743Y-107349468D01*
X184341743Y-107349468D02*
X177072686Y-100080410D01*
X177072686Y-100080410D02*
X175191782Y-101961314D01*
X177744437Y-100752162D02*
X181987078Y-96509521D01*
X181987078Y-96509521D02*
X182524479Y-97046922D01*
X182524479Y-97046922D02*
X178281838Y-101289563D01*
X177786864Y-100794588D02*
X182029504Y-96551947D01*
X177871716Y-100879441D02*
X182114357Y-96636800D01*
X177956569Y-100964294D02*
X182199210Y-96721653D01*
X178041422Y-101049146D02*
X182284063Y-96806506D01*
X178126275Y-101133999D02*
X182368916Y-96891359D01*
X178211128Y-101218852D02*
X182453768Y-96976211D01*
X175630188Y-102866411D02*
X175863533Y-102633066D01*
X176167589Y-103403812D02*
X176400934Y-103170467D01*
X177030259Y-103799792D02*
X178911163Y-101918888D01*
X179540488Y-102548213D02*
X183783129Y-98305572D01*
X183783129Y-98305572D02*
X184320530Y-98842973D01*
X184320530Y-98842973D02*
X180077890Y-103085614D01*
X177378813Y-104709888D02*
X177659584Y-104429117D01*
X177916214Y-105247290D02*
X178196986Y-104966518D01*
X178826311Y-105595843D02*
X180707215Y-103714939D01*
X181336540Y-104344264D02*
X185579180Y-100101623D01*
X185579180Y-100101623D02*
X186116582Y-100639025D01*
X186116582Y-100639025D02*
X181873941Y-104881665D01*
X179174864Y-106505940D02*
X179455636Y-106225168D01*
X179712265Y-107043341D02*
X179993037Y-106762569D01*
X180622362Y-107391894D02*
X182503266Y-105510990D01*
X183132591Y-106140315D02*
X187375232Y-101897675D01*
X187375232Y-101897675D02*
X187912633Y-102435076D01*
X187912633Y-102435076D02*
X183669992Y-106677716D01*
X180970915Y-108301991D02*
X181251687Y-108021219D01*
X181508316Y-108839392D02*
X181789088Y-108558620D01*
X174215974Y-104818026D02*
X173317949Y-103920000D01*
X173317949Y-103920000D02*
X174215974Y-103021974D01*
D11*
X157739001Y-111167999D02*
X157739001Y-112242999D01*
X160864001Y-111167999D02*
X160864001Y-107917999D01*
X157614001Y-111167999D02*
X157614001Y-107917999D01*
X160864001Y-111167999D02*
X160639001Y-111167999D01*
X160864001Y-107917999D02*
X160639001Y-107917999D01*
X157614001Y-107917999D02*
X157839001Y-107917999D01*
X157614001Y-111167999D02*
X157739001Y-111167999D01*
D12*
X160744000Y-101180000D02*
X159614000Y-101180000D01*
X160744000Y-100420000D02*
X160744000Y-101180000D01*
X158036470Y-101115000D02*
X157214000Y-101115000D01*
X158854000Y-101115000D02*
X158651530Y-101115000D01*
X158854000Y-100983471D02*
X158854000Y-101115000D01*
X158854000Y-99713471D02*
X158854000Y-99856529D01*
X159050529Y-99660000D02*
X158907471Y-99660000D01*
X160744000Y-99660000D02*
X160177471Y-99660000D01*
X157214000Y-101115000D02*
X157214000Y-94645000D01*
X160744000Y-99660000D02*
X160744000Y-94645000D01*
X159306470Y-94645000D02*
X158651530Y-94645000D01*
X158036470Y-94645000D02*
X157214000Y-94645000D01*
X160744000Y-94645000D02*
X159921530Y-94645000D01*
X138180578Y-95198000D02*
X137663422Y-95198000D01*
X138180578Y-93778000D02*
X137663422Y-93778000D01*
X111404000Y-114661422D02*
X111404000Y-115178578D01*
X112824000Y-114661422D02*
X112824000Y-115178578D01*
X121190000Y-114200922D02*
X121190000Y-114718078D01*
X119770000Y-114200922D02*
X119770000Y-114718078D01*
X161951221Y-104410000D02*
X162276779Y-104410000D01*
X161951221Y-105430000D02*
X162276779Y-105430000D01*
X156976578Y-105358000D02*
X156459422Y-105358000D01*
X156976578Y-103938000D02*
X156459422Y-103938000D01*
X131652000Y-109966000D02*
G75*
G03X131652000Y-109966000I-2620000J0D01*
G01*
X127992000Y-109966000D02*
X126452000Y-109966000D01*
X131612000Y-109966000D02*
X130072000Y-109966000D01*
X127992000Y-110006000D02*
X126452000Y-110006000D01*
X131612000Y-110006000D02*
X130072000Y-110006000D01*
X131611000Y-110046000D02*
X130072000Y-110046000D01*
X127992000Y-110046000D02*
X126453000Y-110046000D01*
X131610000Y-110086000D02*
X130072000Y-110086000D01*
X127992000Y-110086000D02*
X126454000Y-110086000D01*
X131608000Y-110126000D02*
X130072000Y-110126000D01*
X127992000Y-110126000D02*
X126456000Y-110126000D01*
X131605000Y-110166000D02*
X130072000Y-110166000D01*
X127992000Y-110166000D02*
X126459000Y-110166000D01*
X131601000Y-110206000D02*
X130072000Y-110206000D01*
X127992000Y-110206000D02*
X126463000Y-110206000D01*
X131597000Y-110246000D02*
X130072000Y-110246000D01*
X127992000Y-110246000D02*
X126467000Y-110246000D01*
X131593000Y-110286000D02*
X130072000Y-110286000D01*
X127992000Y-110286000D02*
X126471000Y-110286000D01*
X131588000Y-110326000D02*
X130072000Y-110326000D01*
X127992000Y-110326000D02*
X126476000Y-110326000D01*
X131582000Y-110366000D02*
X130072000Y-110366000D01*
X127992000Y-110366000D02*
X126482000Y-110366000D01*
X131575000Y-110406000D02*
X130072000Y-110406000D01*
X127992000Y-110406000D02*
X126489000Y-110406000D01*
X131568000Y-110446000D02*
X130072000Y-110446000D01*
X127992000Y-110446000D02*
X126496000Y-110446000D01*
X131560000Y-110486000D02*
X130072000Y-110486000D01*
X127992000Y-110486000D02*
X126504000Y-110486000D01*
X131552000Y-110526000D02*
X130072000Y-110526000D01*
X127992000Y-110526000D02*
X126512000Y-110526000D01*
X131543000Y-110566000D02*
X130072000Y-110566000D01*
X127992000Y-110566000D02*
X126521000Y-110566000D01*
X131533000Y-110606000D02*
X130072000Y-110606000D01*
X127992000Y-110606000D02*
X126531000Y-110606000D01*
X131523000Y-110646000D02*
X130072000Y-110646000D01*
X127992000Y-110646000D02*
X126541000Y-110646000D01*
X131512000Y-110687000D02*
X130072000Y-110687000D01*
X127992000Y-110687000D02*
X126552000Y-110687000D01*
X131500000Y-110727000D02*
X130072000Y-110727000D01*
X127992000Y-110727000D02*
X126564000Y-110727000D01*
X131487000Y-110767000D02*
X130072000Y-110767000D01*
X127992000Y-110767000D02*
X126577000Y-110767000D01*
X131474000Y-110807000D02*
X130072000Y-110807000D01*
X127992000Y-110807000D02*
X126590000Y-110807000D01*
X131460000Y-110847000D02*
X130072000Y-110847000D01*
X127992000Y-110847000D02*
X126604000Y-110847000D01*
X131446000Y-110887000D02*
X130072000Y-110887000D01*
X127992000Y-110887000D02*
X126618000Y-110887000D01*
X131430000Y-110927000D02*
X130072000Y-110927000D01*
X127992000Y-110927000D02*
X126634000Y-110927000D01*
X131414000Y-110967000D02*
X130072000Y-110967000D01*
X127992000Y-110967000D02*
X126650000Y-110967000D01*
X131397000Y-111007000D02*
X130072000Y-111007000D01*
X127992000Y-111007000D02*
X126667000Y-111007000D01*
X131380000Y-111047000D02*
X130072000Y-111047000D01*
X127992000Y-111047000D02*
X126684000Y-111047000D01*
X131361000Y-111087000D02*
X130072000Y-111087000D01*
X127992000Y-111087000D02*
X126703000Y-111087000D01*
X131342000Y-111127000D02*
X130072000Y-111127000D01*
X127992000Y-111127000D02*
X126722000Y-111127000D01*
X131322000Y-111167000D02*
X130072000Y-111167000D01*
X127992000Y-111167000D02*
X126742000Y-111167000D01*
X131300000Y-111207000D02*
X130072000Y-111207000D01*
X127992000Y-111207000D02*
X126764000Y-111207000D01*
X131279000Y-111247000D02*
X130072000Y-111247000D01*
X127992000Y-111247000D02*
X126785000Y-111247000D01*
X131256000Y-111287000D02*
X130072000Y-111287000D01*
X127992000Y-111287000D02*
X126808000Y-111287000D01*
X131232000Y-111327000D02*
X130072000Y-111327000D01*
X127992000Y-111327000D02*
X126832000Y-111327000D01*
X131207000Y-111367000D02*
X130072000Y-111367000D01*
X127992000Y-111367000D02*
X126857000Y-111367000D01*
X131181000Y-111407000D02*
X130072000Y-111407000D01*
X127992000Y-111407000D02*
X126883000Y-111407000D01*
X131154000Y-111447000D02*
X130072000Y-111447000D01*
X127992000Y-111447000D02*
X126910000Y-111447000D01*
X131127000Y-111487000D02*
X130072000Y-111487000D01*
X127992000Y-111487000D02*
X126937000Y-111487000D01*
X131097000Y-111527000D02*
X130072000Y-111527000D01*
X127992000Y-111527000D02*
X126967000Y-111527000D01*
X131067000Y-111567000D02*
X130072000Y-111567000D01*
X127992000Y-111567000D02*
X126997000Y-111567000D01*
X131036000Y-111607000D02*
X130072000Y-111607000D01*
X127992000Y-111607000D02*
X127028000Y-111607000D01*
X131003000Y-111647000D02*
X130072000Y-111647000D01*
X127992000Y-111647000D02*
X127061000Y-111647000D01*
X130969000Y-111687000D02*
X130072000Y-111687000D01*
X127992000Y-111687000D02*
X127095000Y-111687000D01*
X130933000Y-111727000D02*
X130072000Y-111727000D01*
X127992000Y-111727000D02*
X127131000Y-111727000D01*
X130896000Y-111767000D02*
X130072000Y-111767000D01*
X127992000Y-111767000D02*
X127168000Y-111767000D01*
X130858000Y-111807000D02*
X130072000Y-111807000D01*
X127992000Y-111807000D02*
X127206000Y-111807000D01*
X130817000Y-111847000D02*
X130072000Y-111847000D01*
X127992000Y-111847000D02*
X127247000Y-111847000D01*
X130775000Y-111887000D02*
X130072000Y-111887000D01*
X127992000Y-111887000D02*
X127289000Y-111887000D01*
X130731000Y-111927000D02*
X130072000Y-111927000D01*
X127992000Y-111927000D02*
X127333000Y-111927000D01*
X130685000Y-111967000D02*
X130072000Y-111967000D01*
X127992000Y-111967000D02*
X127379000Y-111967000D01*
X130637000Y-112007000D02*
X127427000Y-112007000D01*
X130586000Y-112047000D02*
X127478000Y-112047000D01*
X130532000Y-112087000D02*
X127532000Y-112087000D01*
X130475000Y-112127000D02*
X127589000Y-112127000D01*
X130415000Y-112167000D02*
X127649000Y-112167000D01*
X130351000Y-112207000D02*
X127713000Y-112207000D01*
X130283000Y-112247000D02*
X127781000Y-112247000D01*
X130210000Y-112287000D02*
X127854000Y-112287000D01*
X130130000Y-112327000D02*
X127934000Y-112327000D01*
X130043000Y-112367000D02*
X128021000Y-112367000D01*
X129947000Y-112407000D02*
X128117000Y-112407000D01*
X129837000Y-112447000D02*
X128227000Y-112447000D01*
X129709000Y-112487000D02*
X128355000Y-112487000D01*
X129550000Y-112527000D02*
X128514000Y-112527000D01*
X129316000Y-112567000D02*
X128748000Y-112567000D01*
X130507000Y-107161225D02*
X130507000Y-107661225D01*
X130757000Y-107411225D02*
X130257000Y-107411225D01*
X123577633Y-106713151D02*
X123931186Y-106359598D01*
X123931186Y-106713151D02*
X123577633Y-106359598D01*
X120950890Y-102048527D02*
X121352527Y-101646890D01*
X120813711Y-102242274D02*
X121546274Y-101509711D01*
X120729566Y-102382988D02*
X121686988Y-101425566D01*
X120667340Y-102501782D02*
X121805782Y-101363340D01*
X120617843Y-102607848D02*
X121911848Y-101313843D01*
X120578245Y-102704015D02*
X122008015Y-101274245D01*
X120545011Y-102793817D02*
X122097817Y-101241011D01*
X120516727Y-102878670D02*
X122182670Y-101212727D01*
X120493392Y-102958573D02*
X122262573Y-101189392D01*
X120473593Y-103034941D02*
X122338941Y-101169593D01*
X120456623Y-103108480D02*
X122412480Y-101152623D01*
X120442480Y-103179191D02*
X122483191Y-101138480D01*
X120430460Y-103247780D02*
X122551780Y-101126460D01*
X120420560Y-103314248D02*
X122618248Y-101116560D01*
X120412782Y-103378595D02*
X122682595Y-101108782D01*
X122311364Y-101536581D02*
X122744820Y-101103125D01*
X120407125Y-103440820D02*
X120840581Y-103007364D01*
X122339648Y-101564866D02*
X122805631Y-101098882D01*
X120402882Y-103501631D02*
X120868866Y-103035648D01*
X122367932Y-101593150D02*
X122865028Y-101096054D01*
X120400054Y-103561028D02*
X120897150Y-103063932D01*
X122396216Y-101621434D02*
X122923011Y-101094640D01*
X120398640Y-103619011D02*
X120925434Y-103092216D01*
X122424501Y-101649719D02*
X122980287Y-101093933D01*
X120397933Y-103676287D02*
X120953719Y-103120501D01*
X122452785Y-101678003D02*
X123035441Y-101095347D01*
X120399347Y-103731441D02*
X120982003Y-103148785D01*
X122481069Y-101706287D02*
X123089888Y-101097468D01*
X120401468Y-103785888D02*
X121010287Y-103177069D01*
X122509354Y-101734571D02*
X123143628Y-101100297D01*
X120404297Y-103839628D02*
X121038571Y-103205354D01*
X122537638Y-101762856D02*
X123195954Y-101104539D01*
X120408539Y-103891954D02*
X121066856Y-103233638D01*
X122565922Y-101791140D02*
X123247573Y-101109489D01*
X120413489Y-103943573D02*
X121095140Y-103261922D01*
X122594206Y-101819424D02*
X123297778Y-101115853D01*
X120419853Y-103993778D02*
X121123424Y-103290206D01*
X122622491Y-101847708D02*
X123347275Y-101122924D01*
X120426924Y-104043275D02*
X121151708Y-103318491D01*
X122650775Y-101875993D02*
X123396773Y-101129995D01*
X120433995Y-104092773D02*
X121179993Y-103346775D01*
X122679059Y-101904277D02*
X123444149Y-101139187D01*
X120443187Y-104140149D02*
X121208277Y-103375059D01*
X122707343Y-101932561D02*
X123491525Y-101148380D01*
X120452380Y-104187525D02*
X121236561Y-103403343D01*
X122735628Y-101960846D02*
X123538194Y-101158279D01*
X120462279Y-104234194D02*
X121264846Y-103431628D01*
X122763912Y-101989130D02*
X123584156Y-101168886D01*
X120472886Y-104280156D02*
X121293130Y-103459912D01*
X122792196Y-102017414D02*
X123629411Y-101180200D01*
X120484200Y-104325411D02*
X121321414Y-103488196D01*
X122820480Y-102045698D02*
X123673958Y-101192220D01*
X120496220Y-104369958D02*
X121349698Y-103516480D01*
X122848765Y-102073983D02*
X123717092Y-101205656D01*
X120509656Y-104413092D02*
X121377983Y-103544765D01*
X122877049Y-102102267D02*
X123760933Y-101218383D01*
X120522383Y-104456933D02*
X121406267Y-103573049D01*
X122905333Y-102130551D02*
X123803359Y-101232526D01*
X120536526Y-104499359D02*
X121434551Y-103601333D01*
X122933618Y-102158835D02*
X123845078Y-101247375D01*
X120551375Y-104541078D02*
X121462835Y-103629618D01*
X122961902Y-102187120D02*
X123886798Y-101262224D01*
X120566224Y-104582798D02*
X121491120Y-103657902D01*
X122990186Y-102215404D02*
X123927103Y-101278488D01*
X120582488Y-104623103D02*
X121519404Y-103686186D01*
X123018470Y-102243688D02*
X123967408Y-101294751D01*
X120598751Y-104663408D02*
X121547688Y-103714470D01*
X123046755Y-102271973D02*
X124007006Y-101311722D01*
X120615722Y-104703006D02*
X121575973Y-103742755D01*
X123075039Y-102300257D02*
X124046604Y-101328692D01*
X120632692Y-104742604D02*
X121604257Y-103771039D01*
X123103323Y-102328541D02*
X124084787Y-101347077D01*
X120651077Y-104780787D02*
X121632541Y-103799323D01*
X123131607Y-102356825D02*
X124122971Y-101365462D01*
X120669462Y-104818971D02*
X121660825Y-103827607D01*
X123159892Y-102385110D02*
X124160448Y-101384554D01*
X120688554Y-104856448D02*
X121689110Y-103855892D01*
X123188176Y-102413394D02*
X124197924Y-101403645D01*
X120707645Y-104893924D02*
X121717394Y-103884176D01*
X123216460Y-102441678D02*
X124234694Y-101423444D01*
X120727444Y-104930694D02*
X121745678Y-103912460D01*
X123245452Y-102470670D02*
X124271464Y-101444658D01*
X120748658Y-104967464D02*
X121774670Y-103941452D01*
X123273736Y-102498954D02*
X124306819Y-101465871D01*
X120769871Y-105002819D02*
X121802954Y-103969736D01*
X123302020Y-102527238D02*
X124342174Y-101487084D01*
X120791084Y-105038174D02*
X121831238Y-103998020D01*
X123330304Y-102555522D02*
X124376823Y-101509004D01*
X120813004Y-105072823D02*
X121859522Y-104026304D01*
X123358589Y-102583807D02*
X124410764Y-101531632D01*
X120835632Y-105106764D02*
X121887807Y-104054589D01*
X123386873Y-102612091D02*
X124444705Y-101554259D01*
X120858259Y-105140705D02*
X121916091Y-104082873D01*
X123415157Y-102640375D02*
X124477939Y-101577594D01*
X120881594Y-105173939D02*
X121944375Y-104111157D01*
X123443442Y-102668659D02*
X124511173Y-101600928D01*
X120904928Y-105207173D02*
X121972659Y-104139442D01*
X123471726Y-102696944D02*
X124543700Y-101624970D01*
X120928970Y-105239700D02*
X122000944Y-104167726D01*
X123500010Y-102725228D02*
X124575520Y-101649719D01*
X120953719Y-105271520D02*
X122029228Y-104196010D01*
X123528294Y-102753512D02*
X124606632Y-101675174D01*
X120979174Y-105302632D02*
X122057512Y-104224294D01*
X123556579Y-102781797D02*
X124637745Y-101700630D01*
X121004630Y-105333745D02*
X122085797Y-104252579D01*
X123584863Y-102810081D02*
X124668858Y-101726086D01*
X121030086Y-105364858D02*
X122114081Y-104280863D01*
X123613147Y-102838365D02*
X124699263Y-101752249D01*
X121056249Y-105395263D02*
X122142365Y-104309147D01*
X123641431Y-102866649D02*
X124728962Y-101779119D01*
X121083119Y-105424962D02*
X122170649Y-104337431D01*
X123669716Y-102894934D02*
X124757953Y-101806696D01*
X121110696Y-105453953D02*
X122198934Y-104365716D01*
X121138273Y-105482944D02*
X122227218Y-104394000D01*
X123698000Y-102923218D02*
X124786944Y-101834273D01*
X121166558Y-105511229D02*
X122255502Y-104422284D01*
X123726284Y-102951502D02*
X124815229Y-101862558D01*
X125610893Y-103686893D02*
G75*
G03X125610893Y-103686893I-2620000J0D01*
G01*
X129927633Y-106713151D02*
X130281186Y-106359598D01*
X130281186Y-106713151D02*
X129927633Y-106359598D01*
X127300890Y-102048527D02*
X127702527Y-101646890D01*
X127163711Y-102242274D02*
X127896274Y-101509711D01*
X127079566Y-102382988D02*
X128036988Y-101425566D01*
X127017340Y-102501782D02*
X128155782Y-101363340D01*
X126967843Y-102607848D02*
X128261848Y-101313843D01*
X126928245Y-102704015D02*
X128358015Y-101274245D01*
X126895011Y-102793817D02*
X128447817Y-101241011D01*
X126866727Y-102878670D02*
X128532670Y-101212727D01*
X126843392Y-102958573D02*
X128612573Y-101189392D01*
X126823593Y-103034941D02*
X128688941Y-101169593D01*
X126806623Y-103108480D02*
X128762480Y-101152623D01*
X126792480Y-103179191D02*
X128833191Y-101138480D01*
X126780460Y-103247780D02*
X128901780Y-101126460D01*
X126770560Y-103314248D02*
X128968248Y-101116560D01*
X126762782Y-103378595D02*
X129032595Y-101108782D01*
X128661364Y-101536581D02*
X129094820Y-101103125D01*
X126757125Y-103440820D02*
X127190581Y-103007364D01*
X128689648Y-101564866D02*
X129155631Y-101098882D01*
X126752882Y-103501631D02*
X127218866Y-103035648D01*
X128717932Y-101593150D02*
X129215028Y-101096054D01*
X126750054Y-103561028D02*
X127247150Y-103063932D01*
X128746216Y-101621434D02*
X129273011Y-101094640D01*
X126748640Y-103619011D02*
X127275434Y-103092216D01*
X128774501Y-101649719D02*
X129330287Y-101093933D01*
X126747933Y-103676287D02*
X127303719Y-103120501D01*
X128802785Y-101678003D02*
X129385441Y-101095347D01*
X126749347Y-103731441D02*
X127332003Y-103148785D01*
X128831069Y-101706287D02*
X129439888Y-101097468D01*
X126751468Y-103785888D02*
X127360287Y-103177069D01*
X128859354Y-101734571D02*
X129493628Y-101100297D01*
X126754297Y-103839628D02*
X127388571Y-103205354D01*
X128887638Y-101762856D02*
X129545954Y-101104539D01*
X126758539Y-103891954D02*
X127416856Y-103233638D01*
X128915922Y-101791140D02*
X129597573Y-101109489D01*
X126763489Y-103943573D02*
X127445140Y-103261922D01*
X128944206Y-101819424D02*
X129647778Y-101115853D01*
X126769853Y-103993778D02*
X127473424Y-103290206D01*
X128972491Y-101847708D02*
X129697275Y-101122924D01*
X126776924Y-104043275D02*
X127501708Y-103318491D01*
X129000775Y-101875993D02*
X129746773Y-101129995D01*
X126783995Y-104092773D02*
X127529993Y-103346775D01*
X129029059Y-101904277D02*
X129794149Y-101139187D01*
X126793187Y-104140149D02*
X127558277Y-103375059D01*
X129057343Y-101932561D02*
X129841525Y-101148380D01*
X126802380Y-104187525D02*
X127586561Y-103403343D01*
X129085628Y-101960846D02*
X129888194Y-101158279D01*
X126812279Y-104234194D02*
X127614846Y-103431628D01*
X129113912Y-101989130D02*
X129934156Y-101168886D01*
X126822886Y-104280156D02*
X127643130Y-103459912D01*
X129142196Y-102017414D02*
X129979411Y-101180200D01*
X126834200Y-104325411D02*
X127671414Y-103488196D01*
X129170480Y-102045698D02*
X130023958Y-101192220D01*
X126846220Y-104369958D02*
X127699698Y-103516480D01*
X129198765Y-102073983D02*
X130067092Y-101205656D01*
X126859656Y-104413092D02*
X127727983Y-103544765D01*
X129227049Y-102102267D02*
X130110933Y-101218383D01*
X126872383Y-104456933D02*
X127756267Y-103573049D01*
X129255333Y-102130551D02*
X130153359Y-101232526D01*
X126886526Y-104499359D02*
X127784551Y-103601333D01*
X129283618Y-102158835D02*
X130195078Y-101247375D01*
X126901375Y-104541078D02*
X127812835Y-103629618D01*
X129311902Y-102187120D02*
X130236798Y-101262224D01*
X126916224Y-104582798D02*
X127841120Y-103657902D01*
X129340186Y-102215404D02*
X130277103Y-101278488D01*
X126932488Y-104623103D02*
X127869404Y-103686186D01*
X129368470Y-102243688D02*
X130317408Y-101294751D01*
X126948751Y-104663408D02*
X127897688Y-103714470D01*
X129396755Y-102271973D02*
X130357006Y-101311722D01*
X126965722Y-104703006D02*
X127925973Y-103742755D01*
X129425039Y-102300257D02*
X130396604Y-101328692D01*
X126982692Y-104742604D02*
X127954257Y-103771039D01*
X129453323Y-102328541D02*
X130434787Y-101347077D01*
X127001077Y-104780787D02*
X127982541Y-103799323D01*
X129481607Y-102356825D02*
X130472971Y-101365462D01*
X127019462Y-104818971D02*
X128010825Y-103827607D01*
X129509892Y-102385110D02*
X130510448Y-101384554D01*
X127038554Y-104856448D02*
X128039110Y-103855892D01*
X129538176Y-102413394D02*
X130547924Y-101403645D01*
X127057645Y-104893924D02*
X128067394Y-103884176D01*
X129566460Y-102441678D02*
X130584694Y-101423444D01*
X127077444Y-104930694D02*
X128095678Y-103912460D01*
X129595452Y-102470670D02*
X130621464Y-101444658D01*
X127098658Y-104967464D02*
X128124670Y-103941452D01*
X129623736Y-102498954D02*
X130656819Y-101465871D01*
X127119871Y-105002819D02*
X128152954Y-103969736D01*
X129652020Y-102527238D02*
X130692174Y-101487084D01*
X127141084Y-105038174D02*
X128181238Y-103998020D01*
X129680304Y-102555522D02*
X130726823Y-101509004D01*
X127163004Y-105072823D02*
X128209522Y-104026304D01*
X129708589Y-102583807D02*
X130760764Y-101531632D01*
X127185632Y-105106764D02*
X128237807Y-104054589D01*
X129736873Y-102612091D02*
X130794705Y-101554259D01*
X127208259Y-105140705D02*
X128266091Y-104082873D01*
X129765157Y-102640375D02*
X130827939Y-101577594D01*
X127231594Y-105173939D02*
X128294375Y-104111157D01*
X129793442Y-102668659D02*
X130861173Y-101600928D01*
X127254928Y-105207173D02*
X128322659Y-104139442D01*
X129821726Y-102696944D02*
X130893700Y-101624970D01*
X127278970Y-105239700D02*
X128350944Y-104167726D01*
X129850010Y-102725228D02*
X130925520Y-101649719D01*
X127303719Y-105271520D02*
X128379228Y-104196010D01*
X129878294Y-102753512D02*
X130956632Y-101675174D01*
X127329174Y-105302632D02*
X128407512Y-104224294D01*
X129906579Y-102781797D02*
X130987745Y-101700630D01*
X127354630Y-105333745D02*
X128435797Y-104252579D01*
X129934863Y-102810081D02*
X131018858Y-101726086D01*
X127380086Y-105364858D02*
X128464081Y-104280863D01*
X129963147Y-102838365D02*
X131049263Y-101752249D01*
X127406249Y-105395263D02*
X128492365Y-104309147D01*
X129991431Y-102866649D02*
X131078962Y-101779119D01*
X127433119Y-105424962D02*
X128520649Y-104337431D01*
X130019716Y-102894934D02*
X131107953Y-101806696D01*
X127460696Y-105453953D02*
X128548934Y-104365716D01*
X127488273Y-105482944D02*
X128577218Y-104394000D01*
X130048000Y-102923218D02*
X131136944Y-101834273D01*
X127516558Y-105511229D02*
X128605502Y-104422284D01*
X130076284Y-102951502D02*
X131165229Y-101862558D01*
X131960893Y-103686893D02*
G75*
G03X131960893Y-103686893I-2620000J0D01*
G01*
X135478000Y-115062000D02*
G75*
G03X135478000Y-115062000I-2620000J0D01*
G01*
X132858000Y-114022000D02*
X132858000Y-112482000D01*
X132858000Y-117642000D02*
X132858000Y-116102000D01*
X132818000Y-114022000D02*
X132818000Y-112482000D01*
X132818000Y-117642000D02*
X132818000Y-116102000D01*
X132778000Y-117641000D02*
X132778000Y-116102000D01*
X132778000Y-114022000D02*
X132778000Y-112483000D01*
X132738000Y-117640000D02*
X132738000Y-116102000D01*
X132738000Y-114022000D02*
X132738000Y-112484000D01*
X132698000Y-117638000D02*
X132698000Y-116102000D01*
X132698000Y-114022000D02*
X132698000Y-112486000D01*
X132658000Y-117635000D02*
X132658000Y-116102000D01*
X132658000Y-114022000D02*
X132658000Y-112489000D01*
X132618000Y-117631000D02*
X132618000Y-116102000D01*
X132618000Y-114022000D02*
X132618000Y-112493000D01*
X132578000Y-117627000D02*
X132578000Y-116102000D01*
X132578000Y-114022000D02*
X132578000Y-112497000D01*
X132538000Y-117623000D02*
X132538000Y-116102000D01*
X132538000Y-114022000D02*
X132538000Y-112501000D01*
X132498000Y-117618000D02*
X132498000Y-116102000D01*
X132498000Y-114022000D02*
X132498000Y-112506000D01*
X132458000Y-117612000D02*
X132458000Y-116102000D01*
X132458000Y-114022000D02*
X132458000Y-112512000D01*
X132418000Y-117605000D02*
X132418000Y-116102000D01*
X132418000Y-114022000D02*
X132418000Y-112519000D01*
X132378000Y-117598000D02*
X132378000Y-116102000D01*
X132378000Y-114022000D02*
X132378000Y-112526000D01*
X132338000Y-117590000D02*
X132338000Y-116102000D01*
X132338000Y-114022000D02*
X132338000Y-112534000D01*
X132298000Y-117582000D02*
X132298000Y-116102000D01*
X132298000Y-114022000D02*
X132298000Y-112542000D01*
X132258000Y-117573000D02*
X132258000Y-116102000D01*
X132258000Y-114022000D02*
X132258000Y-112551000D01*
X132218000Y-117563000D02*
X132218000Y-116102000D01*
X132218000Y-114022000D02*
X132218000Y-112561000D01*
X132178000Y-117553000D02*
X132178000Y-116102000D01*
X132178000Y-114022000D02*
X132178000Y-112571000D01*
X132137000Y-117542000D02*
X132137000Y-116102000D01*
X132137000Y-114022000D02*
X132137000Y-112582000D01*
X132097000Y-117530000D02*
X132097000Y-116102000D01*
X132097000Y-114022000D02*
X132097000Y-112594000D01*
X132057000Y-117517000D02*
X132057000Y-116102000D01*
X132057000Y-114022000D02*
X132057000Y-112607000D01*
X132017000Y-117504000D02*
X132017000Y-116102000D01*
X132017000Y-114022000D02*
X132017000Y-112620000D01*
X131977000Y-117490000D02*
X131977000Y-116102000D01*
X131977000Y-114022000D02*
X131977000Y-112634000D01*
X131937000Y-117476000D02*
X131937000Y-116102000D01*
X131937000Y-114022000D02*
X131937000Y-112648000D01*
X131897000Y-117460000D02*
X131897000Y-116102000D01*
X131897000Y-114022000D02*
X131897000Y-112664000D01*
X131857000Y-117444000D02*
X131857000Y-116102000D01*
X131857000Y-114022000D02*
X131857000Y-112680000D01*
X131817000Y-117427000D02*
X131817000Y-116102000D01*
X131817000Y-114022000D02*
X131817000Y-112697000D01*
X131777000Y-117410000D02*
X131777000Y-116102000D01*
X131777000Y-114022000D02*
X131777000Y-112714000D01*
X131737000Y-117391000D02*
X131737000Y-116102000D01*
X131737000Y-114022000D02*
X131737000Y-112733000D01*
X131697000Y-117372000D02*
X131697000Y-116102000D01*
X131697000Y-114022000D02*
X131697000Y-112752000D01*
X131657000Y-117352000D02*
X131657000Y-116102000D01*
X131657000Y-114022000D02*
X131657000Y-112772000D01*
X131617000Y-117330000D02*
X131617000Y-116102000D01*
X131617000Y-114022000D02*
X131617000Y-112794000D01*
X131577000Y-117309000D02*
X131577000Y-116102000D01*
X131577000Y-114022000D02*
X131577000Y-112815000D01*
X131537000Y-117286000D02*
X131537000Y-116102000D01*
X131537000Y-114022000D02*
X131537000Y-112838000D01*
X131497000Y-117262000D02*
X131497000Y-116102000D01*
X131497000Y-114022000D02*
X131497000Y-112862000D01*
X131457000Y-117237000D02*
X131457000Y-116102000D01*
X131457000Y-114022000D02*
X131457000Y-112887000D01*
X131417000Y-117211000D02*
X131417000Y-116102000D01*
X131417000Y-114022000D02*
X131417000Y-112913000D01*
X131377000Y-117184000D02*
X131377000Y-116102000D01*
X131377000Y-114022000D02*
X131377000Y-112940000D01*
X131337000Y-117157000D02*
X131337000Y-116102000D01*
X131337000Y-114022000D02*
X131337000Y-112967000D01*
X131297000Y-117127000D02*
X131297000Y-116102000D01*
X131297000Y-114022000D02*
X131297000Y-112997000D01*
X131257000Y-117097000D02*
X131257000Y-116102000D01*
X131257000Y-114022000D02*
X131257000Y-113027000D01*
X131217000Y-117066000D02*
X131217000Y-116102000D01*
X131217000Y-114022000D02*
X131217000Y-113058000D01*
X131177000Y-117033000D02*
X131177000Y-116102000D01*
X131177000Y-114022000D02*
X131177000Y-113091000D01*
X131137000Y-116999000D02*
X131137000Y-116102000D01*
X131137000Y-114022000D02*
X131137000Y-113125000D01*
X131097000Y-116963000D02*
X131097000Y-116102000D01*
X131097000Y-114022000D02*
X131097000Y-113161000D01*
X131057000Y-116926000D02*
X131057000Y-116102000D01*
X131057000Y-114022000D02*
X131057000Y-113198000D01*
X131017000Y-116888000D02*
X131017000Y-116102000D01*
X131017000Y-114022000D02*
X131017000Y-113236000D01*
X130977000Y-116847000D02*
X130977000Y-116102000D01*
X130977000Y-114022000D02*
X130977000Y-113277000D01*
X130937000Y-116805000D02*
X130937000Y-116102000D01*
X130937000Y-114022000D02*
X130937000Y-113319000D01*
X130897000Y-116761000D02*
X130897000Y-116102000D01*
X130897000Y-114022000D02*
X130897000Y-113363000D01*
X130857000Y-116715000D02*
X130857000Y-116102000D01*
X130857000Y-114022000D02*
X130857000Y-113409000D01*
X130817000Y-116667000D02*
X130817000Y-113457000D01*
X130777000Y-116616000D02*
X130777000Y-113508000D01*
X130737000Y-116562000D02*
X130737000Y-113562000D01*
X130697000Y-116505000D02*
X130697000Y-113619000D01*
X130657000Y-116445000D02*
X130657000Y-113679000D01*
X130617000Y-116381000D02*
X130617000Y-113743000D01*
X130577000Y-116313000D02*
X130577000Y-113811000D01*
X130537000Y-116240000D02*
X130537000Y-113884000D01*
X130497000Y-116160000D02*
X130497000Y-113964000D01*
X130457000Y-116073000D02*
X130457000Y-114051000D01*
X130417000Y-115977000D02*
X130417000Y-114147000D01*
X130377000Y-115867000D02*
X130377000Y-114257000D01*
X130337000Y-115739000D02*
X130337000Y-114385000D01*
X130297000Y-115580000D02*
X130297000Y-114544000D01*
X130257000Y-115346000D02*
X130257000Y-114778000D01*
X135662775Y-116537000D02*
X135162775Y-116537000D01*
X135412775Y-116787000D02*
X135412775Y-116287000D01*
X149246335Y-89091392D02*
G75*
G03X146014000Y-88934484I-1672335J-1078608D01*
G01*
X149246335Y-91248608D02*
G75*
G02X146014000Y-91405516I-1672335J1078608D01*
G01*
X148615130Y-89090163D02*
G75*
G03X146533039Y-89090000I-1041130J-1079837D01*
G01*
X148615130Y-91249837D02*
G75*
G02X146533039Y-91250000I-1041130J1079837D01*
G01*
X146014000Y-88934000D02*
X146014000Y-89090000D01*
X146014000Y-91250000D02*
X146014000Y-91406000D01*
X141314000Y-91932500D02*
X140864000Y-91932500D01*
X141314000Y-90082500D02*
X141314000Y-91932500D01*
X133514000Y-87532500D02*
X133514000Y-87782500D01*
X141314000Y-87532500D02*
X141314000Y-87782500D01*
X133514000Y-90082500D02*
X133514000Y-91932500D01*
X133514000Y-91932500D02*
X133964000Y-91932500D01*
X139114000Y-92482500D02*
X138664000Y-92482500D01*
X139114000Y-92482500D02*
X139114000Y-92032500D01*
X101474000Y-126480000D02*
X97114000Y-126480000D01*
X101474000Y-140360000D02*
X101474000Y-133360000D01*
X178754000Y-140360000D02*
X101474000Y-140360000D01*
X178754000Y-133360000D02*
X178754000Y-140360000D01*
X101474000Y-119480000D02*
X101474000Y-126480000D01*
X178754000Y-119480000D02*
X101474000Y-119480000D01*
X178754000Y-126480000D02*
X178754000Y-119500000D01*
X183864000Y-123920000D02*
X181364000Y-123920000D01*
X96364000Y-123920000D02*
X98864000Y-123920000D01*
X97614000Y-125170000D02*
X97614000Y-122670000D01*
D14*
X130414000Y-91420000D02*
G75*
G03X130414000Y-91420000I-170000J0D01*
G01*
D15*
X118944000Y-87920000D02*
X118944000Y-87120000D01*
X127944000Y-87920000D02*
X127944000Y-87120000D01*
X118944000Y-87920000D02*
X117244000Y-87920000D01*
X129644000Y-87920000D02*
X127944000Y-87920000D01*
X129644000Y-98920000D02*
X129644000Y-87920000D01*
X117244000Y-98920000D02*
X117244000Y-87920000D01*
X129644000Y-98920000D02*
X117244000Y-98920000D01*
D12*
X159008578Y-114756000D02*
X158491422Y-114756000D01*
X159008578Y-113336000D02*
X158491422Y-113336000D01*
X161951221Y-102410000D02*
X162276779Y-102410000D01*
X161951221Y-103430000D02*
X162276779Y-103430000D01*
X162874000Y-91500000D02*
X162874000Y-88840000D01*
X157734000Y-91500000D02*
X162874000Y-91500000D01*
X157734000Y-88840000D02*
X162874000Y-88840000D01*
X157734000Y-91500000D02*
X157734000Y-88840000D01*
X156464000Y-91500000D02*
X155134000Y-91500000D01*
X155134000Y-91500000D02*
X155134000Y-90170000D01*
D11*
X133215000Y-106204000D02*
X133215000Y-110204000D01*
X138615000Y-104929000D02*
X138615000Y-110204000D01*
D12*
X117514000Y-113310000D02*
X115064000Y-113310000D01*
X115714000Y-116530000D02*
X117514000Y-116530000D01*
D11*
X151739000Y-103295000D02*
X151514000Y-103295000D01*
X151739000Y-110545000D02*
X151414000Y-110545000D01*
X144489000Y-110545000D02*
X144814000Y-110545000D01*
X144489000Y-103295000D02*
X144814000Y-103295000D01*
X151739000Y-103295000D02*
X151739000Y-103620000D01*
X144489000Y-103295000D02*
X144489000Y-103620000D01*
X144489000Y-110545000D02*
X144489000Y-110220000D01*
X151739000Y-110545000D02*
X151739000Y-110220000D01*
X151514000Y-103295000D02*
X151514000Y-101870000D01*
X188852095Y-132372380D02*
X188852095Y-131372380D01*
X188852095Y-131848571D02*
X189423523Y-131848571D01*
X189423523Y-132372380D02*
X189423523Y-131372380D01*
X190328285Y-131705714D02*
X190328285Y-132372380D01*
X190090190Y-131324761D02*
X189852095Y-132039047D01*
X190471142Y-132039047D01*
X89852095Y-132372380D02*
X89852095Y-131372380D01*
X89852095Y-131848571D02*
X90423523Y-131848571D01*
X90423523Y-132372380D02*
X90423523Y-131372380D01*
X90804476Y-131372380D02*
X91423523Y-131372380D01*
X91090190Y-131753333D01*
X91233047Y-131753333D01*
X91328285Y-131800952D01*
X91375904Y-131848571D01*
X91423523Y-131943809D01*
X91423523Y-132181904D01*
X91375904Y-132277142D01*
X91328285Y-132324761D01*
X91233047Y-132372380D01*
X90947333Y-132372380D01*
X90852095Y-132324761D01*
X90804476Y-132277142D01*
X167852095Y-101872380D02*
X167852095Y-100872380D01*
X167852095Y-101348571D02*
X168423523Y-101348571D01*
X168423523Y-101872380D02*
X168423523Y-100872380D01*
X168852095Y-100967619D02*
X168899714Y-100920000D01*
X168994952Y-100872380D01*
X169233047Y-100872380D01*
X169328285Y-100920000D01*
X169375904Y-100967619D01*
X169423523Y-101062857D01*
X169423523Y-101158095D01*
X169375904Y-101300952D01*
X168804476Y-101872380D01*
X169423523Y-101872380D01*
X107852095Y-99872380D02*
X107852095Y-98872380D01*
X107852095Y-99348571D02*
X108423523Y-99348571D01*
X108423523Y-99872380D02*
X108423523Y-98872380D01*
X109423523Y-99872380D02*
X108852095Y-99872380D01*
X109137809Y-99872380D02*
X109137809Y-98872380D01*
X109042571Y-99015238D01*
X108947333Y-99110476D01*
X108852095Y-99158095D01*
X94083246Y-107671930D02*
X94150589Y-107806617D01*
X94318948Y-107974976D01*
X94419963Y-108008648D01*
X94487307Y-108008648D01*
X94588322Y-107974976D01*
X94655665Y-107907633D01*
X94689337Y-107806617D01*
X94689337Y-107739274D01*
X94655665Y-107638259D01*
X94554650Y-107469900D01*
X94520978Y-107368885D01*
X94520978Y-107301541D01*
X94554650Y-107200526D01*
X94621994Y-107133182D01*
X94723009Y-107099511D01*
X94790352Y-107099511D01*
X94891368Y-107133182D01*
X95059726Y-107301541D01*
X95127070Y-107436228D01*
X95127070Y-108783098D02*
X94723009Y-108379037D01*
X94925039Y-108581068D02*
X95632146Y-107873961D01*
X95463787Y-107907633D01*
X95329100Y-107907633D01*
X95228085Y-107873961D01*
X176356992Y-100039161D02*
X176491679Y-99971818D01*
X176660038Y-99803459D01*
X176693710Y-99702444D01*
X176693710Y-99635100D01*
X176660038Y-99534085D01*
X176592695Y-99466742D01*
X176491679Y-99433070D01*
X176424336Y-99433070D01*
X176323321Y-99466742D01*
X176154962Y-99567757D01*
X176053947Y-99601429D01*
X175986603Y-99601429D01*
X175885588Y-99567757D01*
X175818244Y-99500413D01*
X175784573Y-99399398D01*
X175784573Y-99332055D01*
X175818244Y-99231039D01*
X175986603Y-99062681D01*
X176121290Y-98995337D01*
X176424336Y-98759635D02*
X176424336Y-98692291D01*
X176458008Y-98591276D01*
X176626366Y-98422917D01*
X176727382Y-98389246D01*
X176794725Y-98389246D01*
X176895740Y-98422917D01*
X176963084Y-98490261D01*
X177030427Y-98624948D01*
X177030427Y-99433070D01*
X177468160Y-98995337D01*
X154566380Y-111181904D02*
X155375904Y-111181904D01*
X155471142Y-111134285D01*
X155518761Y-111086666D01*
X155566380Y-110991428D01*
X155566380Y-110800952D01*
X155518761Y-110705714D01*
X155471142Y-110658095D01*
X155375904Y-110610476D01*
X154566380Y-110610476D01*
X154566380Y-110229523D02*
X154566380Y-109610476D01*
X154947333Y-109943809D01*
X154947333Y-109800952D01*
X154994952Y-109705714D01*
X155042571Y-109658095D01*
X155137809Y-109610476D01*
X155375904Y-109610476D01*
X155471142Y-109658095D01*
X155518761Y-109705714D01*
X155566380Y-109800952D01*
X155566380Y-110086666D01*
X155518761Y-110181904D01*
X155471142Y-110229523D01*
X158645666Y-101872380D02*
X158645666Y-102586666D01*
X158598047Y-102729523D01*
X158502809Y-102824761D01*
X158359952Y-102872380D01*
X158264714Y-102872380D01*
X159026619Y-101872380D02*
X159645666Y-101872380D01*
X159312333Y-102253333D01*
X159455190Y-102253333D01*
X159550428Y-102300952D01*
X159598047Y-102348571D01*
X159645666Y-102443809D01*
X159645666Y-102681904D01*
X159598047Y-102777142D01*
X159550428Y-102824761D01*
X159455190Y-102872380D01*
X159169476Y-102872380D01*
X159074238Y-102824761D01*
X159026619Y-102777142D01*
X146899333Y-98342380D02*
X146566000Y-97866190D01*
X146327904Y-98342380D02*
X146327904Y-97342380D01*
X146708857Y-97342380D01*
X146804095Y-97390000D01*
X146851714Y-97437619D01*
X146899333Y-97532857D01*
X146899333Y-97675714D01*
X146851714Y-97770952D01*
X146804095Y-97818571D01*
X146708857Y-97866190D01*
X146327904Y-97866190D01*
X147804095Y-97342380D02*
X147327904Y-97342380D01*
X147280285Y-97818571D01*
X147327904Y-97770952D01*
X147423142Y-97723333D01*
X147661238Y-97723333D01*
X147756476Y-97770952D01*
X147804095Y-97818571D01*
X147851714Y-97913809D01*
X147851714Y-98151904D01*
X147804095Y-98247142D01*
X147756476Y-98294761D01*
X147661238Y-98342380D01*
X147423142Y-98342380D01*
X147327904Y-98294761D01*
X147280285Y-98247142D01*
X137755333Y-96495142D02*
X137707714Y-96542761D01*
X137564857Y-96590380D01*
X137469619Y-96590380D01*
X137326761Y-96542761D01*
X137231523Y-96447523D01*
X137183904Y-96352285D01*
X137136285Y-96161809D01*
X137136285Y-96018952D01*
X137183904Y-95828476D01*
X137231523Y-95733238D01*
X137326761Y-95638000D01*
X137469619Y-95590380D01*
X137564857Y-95590380D01*
X137707714Y-95638000D01*
X137755333Y-95685619D01*
X138136285Y-95685619D02*
X138183904Y-95638000D01*
X138279142Y-95590380D01*
X138517238Y-95590380D01*
X138612476Y-95638000D01*
X138660095Y-95685619D01*
X138707714Y-95780857D01*
X138707714Y-95876095D01*
X138660095Y-96018952D01*
X138088666Y-96590380D01*
X138707714Y-96590380D01*
X110471142Y-115086666D02*
X110518761Y-115134285D01*
X110566380Y-115277142D01*
X110566380Y-115372380D01*
X110518761Y-115515238D01*
X110423523Y-115610476D01*
X110328285Y-115658095D01*
X110137809Y-115705714D01*
X109994952Y-115705714D01*
X109804476Y-115658095D01*
X109709238Y-115610476D01*
X109614000Y-115515238D01*
X109566380Y-115372380D01*
X109566380Y-115277142D01*
X109614000Y-115134285D01*
X109661619Y-115086666D01*
X110566380Y-114134285D02*
X110566380Y-114705714D01*
X110566380Y-114420000D02*
X109566380Y-114420000D01*
X109709238Y-114515238D01*
X109804476Y-114610476D01*
X109852095Y-114705714D01*
X122487142Y-114626166D02*
X122534761Y-114673785D01*
X122582380Y-114816642D01*
X122582380Y-114911880D01*
X122534761Y-115054738D01*
X122439523Y-115149976D01*
X122344285Y-115197595D01*
X122153809Y-115245214D01*
X122010952Y-115245214D01*
X121820476Y-115197595D01*
X121725238Y-115149976D01*
X121630000Y-115054738D01*
X121582380Y-114911880D01*
X121582380Y-114816642D01*
X121630000Y-114673785D01*
X121677619Y-114626166D01*
X121915714Y-113769023D02*
X122582380Y-113769023D01*
X121534761Y-114007119D02*
X122249047Y-114245214D01*
X122249047Y-113626166D01*
X164447333Y-105277142D02*
X164399714Y-105324761D01*
X164256857Y-105372380D01*
X164161619Y-105372380D01*
X164018761Y-105324761D01*
X163923523Y-105229523D01*
X163875904Y-105134285D01*
X163828285Y-104943809D01*
X163828285Y-104800952D01*
X163875904Y-104610476D01*
X163923523Y-104515238D01*
X164018761Y-104420000D01*
X164161619Y-104372380D01*
X164256857Y-104372380D01*
X164399714Y-104420000D01*
X164447333Y-104467619D01*
X165352095Y-104372380D02*
X164875904Y-104372380D01*
X164828285Y-104848571D01*
X164875904Y-104800952D01*
X164971142Y-104753333D01*
X165209238Y-104753333D01*
X165304476Y-104800952D01*
X165352095Y-104848571D01*
X165399714Y-104943809D01*
X165399714Y-105181904D01*
X165352095Y-105277142D01*
X165304476Y-105324761D01*
X165209238Y-105372380D01*
X164971142Y-105372380D01*
X164875904Y-105324761D01*
X164828285Y-105277142D01*
X155947333Y-106777142D02*
X155899714Y-106824761D01*
X155756857Y-106872380D01*
X155661619Y-106872380D01*
X155518761Y-106824761D01*
X155423523Y-106729523D01*
X155375904Y-106634285D01*
X155328285Y-106443809D01*
X155328285Y-106300952D01*
X155375904Y-106110476D01*
X155423523Y-106015238D01*
X155518761Y-105920000D01*
X155661619Y-105872380D01*
X155756857Y-105872380D01*
X155899714Y-105920000D01*
X155947333Y-105967619D01*
X156804476Y-105872380D02*
X156614000Y-105872380D01*
X156518761Y-105920000D01*
X156471142Y-105967619D01*
X156375904Y-106110476D01*
X156328285Y-106300952D01*
X156328285Y-106681904D01*
X156375904Y-106777142D01*
X156423523Y-106824761D01*
X156518761Y-106872380D01*
X156709238Y-106872380D01*
X156804476Y-106824761D01*
X156852095Y-106777142D01*
X156899714Y-106681904D01*
X156899714Y-106443809D01*
X156852095Y-106348571D01*
X156804476Y-106300952D01*
X156709238Y-106253333D01*
X156518761Y-106253333D01*
X156423523Y-106300952D01*
X156375904Y-106348571D01*
X156328285Y-106443809D01*
X131389142Y-114132666D02*
X131436761Y-114180285D01*
X131484380Y-114323142D01*
X131484380Y-114418380D01*
X131436761Y-114561238D01*
X131341523Y-114656476D01*
X131246285Y-114704095D01*
X131055809Y-114751714D01*
X130912952Y-114751714D01*
X130722476Y-114704095D01*
X130627238Y-114656476D01*
X130532000Y-114561238D01*
X130484380Y-114418380D01*
X130484380Y-114323142D01*
X130532000Y-114180285D01*
X130579619Y-114132666D01*
X130484380Y-113799333D02*
X130484380Y-113132666D01*
X131484380Y-113561238D01*
X119243609Y-105554687D02*
X119176266Y-105554687D01*
X119041579Y-105487343D01*
X118974235Y-105420000D01*
X118906892Y-105285312D01*
X118906892Y-105150625D01*
X118940563Y-105049610D01*
X119041579Y-104881251D01*
X119142594Y-104780236D01*
X119310953Y-104679221D01*
X119411968Y-104645549D01*
X119546655Y-104645549D01*
X119681342Y-104712893D01*
X119748686Y-104780236D01*
X119816029Y-104914923D01*
X119816029Y-104982267D01*
X119984388Y-105622030D02*
X119950716Y-105521015D01*
X119950716Y-105453671D01*
X119984388Y-105352656D01*
X120018060Y-105318984D01*
X120119075Y-105285312D01*
X120186418Y-105285312D01*
X120287434Y-105318984D01*
X120422121Y-105453671D01*
X120455792Y-105554687D01*
X120455792Y-105622030D01*
X120422121Y-105723045D01*
X120388449Y-105756717D01*
X120287434Y-105790389D01*
X120220090Y-105790389D01*
X120119075Y-105756717D01*
X119984388Y-105622030D01*
X119883373Y-105588358D01*
X119816029Y-105588358D01*
X119715014Y-105622030D01*
X119580327Y-105756717D01*
X119546655Y-105857732D01*
X119546655Y-105925076D01*
X119580327Y-106026091D01*
X119715014Y-106160778D01*
X119816029Y-106194450D01*
X119883373Y-106194450D01*
X119984388Y-106160778D01*
X120119075Y-106026091D01*
X120152747Y-105925076D01*
X120152747Y-105857732D01*
X120119075Y-105756717D01*
X126318853Y-106473231D02*
X126251510Y-106473231D01*
X126116823Y-106405887D01*
X126049479Y-106338544D01*
X125982136Y-106203856D01*
X125982136Y-106069169D01*
X126015807Y-105968154D01*
X126116823Y-105799795D01*
X126217838Y-105698780D01*
X126386197Y-105597765D01*
X126487212Y-105564093D01*
X126621899Y-105564093D01*
X126756586Y-105631437D01*
X126823930Y-105698780D01*
X126891273Y-105833467D01*
X126891273Y-105900811D01*
X126588227Y-106877292D02*
X126722914Y-107011979D01*
X126823930Y-107045650D01*
X126891273Y-107045650D01*
X127059632Y-107011979D01*
X127227991Y-106910963D01*
X127497365Y-106641589D01*
X127531036Y-106540574D01*
X127531036Y-106473231D01*
X127497365Y-106372215D01*
X127362678Y-106237528D01*
X127261662Y-106203856D01*
X127194319Y-106203856D01*
X127093304Y-106237528D01*
X126924945Y-106405887D01*
X126891273Y-106506902D01*
X126891273Y-106574246D01*
X126924945Y-106675261D01*
X127059632Y-106809948D01*
X127160647Y-106843620D01*
X127227991Y-106843620D01*
X127329006Y-106809948D01*
X132215142Y-119169142D02*
X132167523Y-119216761D01*
X132024666Y-119264380D01*
X131929428Y-119264380D01*
X131786571Y-119216761D01*
X131691333Y-119121523D01*
X131643714Y-119026285D01*
X131596095Y-118835809D01*
X131596095Y-118692952D01*
X131643714Y-118502476D01*
X131691333Y-118407238D01*
X131786571Y-118312000D01*
X131929428Y-118264380D01*
X132024666Y-118264380D01*
X132167523Y-118312000D01*
X132215142Y-118359619D01*
X133167523Y-119264380D02*
X132596095Y-119264380D01*
X132881809Y-119264380D02*
X132881809Y-118264380D01*
X132786571Y-118407238D01*
X132691333Y-118502476D01*
X132596095Y-118550095D01*
X133786571Y-118264380D02*
X133881809Y-118264380D01*
X133977047Y-118312000D01*
X134024666Y-118359619D01*
X134072285Y-118454857D01*
X134119904Y-118645333D01*
X134119904Y-118883428D01*
X134072285Y-119073904D01*
X134024666Y-119169142D01*
X133977047Y-119216761D01*
X133881809Y-119264380D01*
X133786571Y-119264380D01*
X133691333Y-119216761D01*
X133643714Y-119169142D01*
X133596095Y-119073904D01*
X133548476Y-118883428D01*
X133548476Y-118645333D01*
X133596095Y-118454857D01*
X133643714Y-118359619D01*
X133691333Y-118312000D01*
X133786571Y-118264380D01*
X151375904Y-92372380D02*
X151375904Y-91372380D01*
X151614000Y-91372380D01*
X151756857Y-91420000D01*
X151852095Y-91515238D01*
X151899714Y-91610476D01*
X151947333Y-91800952D01*
X151947333Y-91943809D01*
X151899714Y-92134285D01*
X151852095Y-92229523D01*
X151756857Y-92324761D01*
X151614000Y-92372380D01*
X151375904Y-92372380D01*
X152328285Y-91467619D02*
X152375904Y-91420000D01*
X152471142Y-91372380D01*
X152709238Y-91372380D01*
X152804476Y-91420000D01*
X152852095Y-91467619D01*
X152899714Y-91562857D01*
X152899714Y-91658095D01*
X152852095Y-91800952D01*
X152280666Y-92372380D01*
X152899714Y-92372380D01*
X140780666Y-92872380D02*
X140780666Y-93586666D01*
X140733047Y-93729523D01*
X140637809Y-93824761D01*
X140494952Y-93872380D01*
X140399714Y-93872380D01*
X141780666Y-93872380D02*
X141209238Y-93872380D01*
X141494952Y-93872380D02*
X141494952Y-92872380D01*
X141399714Y-93015238D01*
X141304476Y-93110476D01*
X141209238Y-93158095D01*
X139780666Y-117872380D02*
X139780666Y-118586666D01*
X139733047Y-118729523D01*
X139637809Y-118824761D01*
X139494952Y-118872380D01*
X139399714Y-118872380D01*
X140209238Y-117967619D02*
X140256857Y-117920000D01*
X140352095Y-117872380D01*
X140590190Y-117872380D01*
X140685428Y-117920000D01*
X140733047Y-117967619D01*
X140780666Y-118062857D01*
X140780666Y-118158095D01*
X140733047Y-118300952D01*
X140161619Y-118872380D01*
X140780666Y-118872380D01*
D16*
X130834780Y-91428325D02*
X131549392Y-91428325D01*
X131692315Y-91475966D01*
X131787596Y-91571248D01*
X131835237Y-91714170D01*
X131835237Y-91809452D01*
X131168266Y-90523150D02*
X131835237Y-90523150D01*
X130787139Y-90761354D02*
X131501752Y-90999558D01*
X131501752Y-90380227D01*
D11*
X158583333Y-116148380D02*
X158107142Y-116148380D01*
X158107142Y-115148380D01*
X159440476Y-116148380D02*
X158869047Y-116148380D01*
X159154761Y-116148380D02*
X159154761Y-115148380D01*
X159059523Y-115291238D01*
X158964285Y-115386476D01*
X158869047Y-115434095D01*
X133648380Y-94654666D02*
X133172190Y-94988000D01*
X133648380Y-95226095D02*
X132648380Y-95226095D01*
X132648380Y-94845142D01*
X132696000Y-94749904D01*
X132743619Y-94702285D01*
X132838857Y-94654666D01*
X132981714Y-94654666D01*
X133076952Y-94702285D01*
X133124571Y-94749904D01*
X133172190Y-94845142D01*
X133172190Y-95226095D01*
X132743619Y-94273714D02*
X132696000Y-94226095D01*
X132648380Y-94130857D01*
X132648380Y-93892761D01*
X132696000Y-93797523D01*
X132743619Y-93749904D01*
X132838857Y-93702285D01*
X132934095Y-93702285D01*
X133076952Y-93749904D01*
X133648380Y-94321333D01*
X133648380Y-93702285D01*
X149454842Y-95601666D02*
X148978652Y-95935000D01*
X149454842Y-96173095D02*
X148454842Y-96173095D01*
X148454842Y-95792142D01*
X148502462Y-95696904D01*
X148550081Y-95649285D01*
X148645319Y-95601666D01*
X148788176Y-95601666D01*
X148883414Y-95649285D01*
X148931033Y-95696904D01*
X148978652Y-95792142D01*
X148978652Y-96173095D01*
X148454842Y-95268333D02*
X148454842Y-94649285D01*
X148835795Y-94982619D01*
X148835795Y-94839761D01*
X148883414Y-94744523D01*
X148931033Y-94696904D01*
X149026271Y-94649285D01*
X149264366Y-94649285D01*
X149359604Y-94696904D01*
X149407223Y-94744523D01*
X149454842Y-94839761D01*
X149454842Y-95125476D01*
X149407223Y-95220714D01*
X149359604Y-95268333D01*
X146736380Y-95571666D02*
X146260190Y-95905000D01*
X146736380Y-96143095D02*
X145736380Y-96143095D01*
X145736380Y-95762142D01*
X145784000Y-95666904D01*
X145831619Y-95619285D01*
X145926857Y-95571666D01*
X146069714Y-95571666D01*
X146164952Y-95619285D01*
X146212571Y-95666904D01*
X146260190Y-95762142D01*
X146260190Y-96143095D01*
X146069714Y-94714523D02*
X146736380Y-94714523D01*
X145688761Y-94952619D02*
X146403047Y-95190714D01*
X146403047Y-94571666D01*
X164182380Y-110656666D02*
X163706190Y-110990000D01*
X164182380Y-111228095D02*
X163182380Y-111228095D01*
X163182380Y-110847142D01*
X163230000Y-110751904D01*
X163277619Y-110704285D01*
X163372857Y-110656666D01*
X163515714Y-110656666D01*
X163610952Y-110704285D01*
X163658571Y-110751904D01*
X163706190Y-110847142D01*
X163706190Y-111228095D01*
X163610952Y-110085238D02*
X163563333Y-110180476D01*
X163515714Y-110228095D01*
X163420476Y-110275714D01*
X163372857Y-110275714D01*
X163277619Y-110228095D01*
X163230000Y-110180476D01*
X163182380Y-110085238D01*
X163182380Y-109894761D01*
X163230000Y-109799523D01*
X163277619Y-109751904D01*
X163372857Y-109704285D01*
X163420476Y-109704285D01*
X163515714Y-109751904D01*
X163563333Y-109799523D01*
X163610952Y-109894761D01*
X163610952Y-110085238D01*
X163658571Y-110180476D01*
X163706190Y-110228095D01*
X163801428Y-110275714D01*
X163991904Y-110275714D01*
X164087142Y-110228095D01*
X164134761Y-110180476D01*
X164182380Y-110085238D01*
X164182380Y-109894761D01*
X164134761Y-109799523D01*
X164087142Y-109751904D01*
X163991904Y-109704285D01*
X163801428Y-109704285D01*
X163706190Y-109751904D01*
X163658571Y-109799523D01*
X163610952Y-109894761D01*
X164447333Y-103372380D02*
X164114000Y-102896190D01*
X163875904Y-103372380D02*
X163875904Y-102372380D01*
X164256857Y-102372380D01*
X164352095Y-102420000D01*
X164399714Y-102467619D01*
X164447333Y-102562857D01*
X164447333Y-102705714D01*
X164399714Y-102800952D01*
X164352095Y-102848571D01*
X164256857Y-102896190D01*
X163875904Y-102896190D01*
X164780666Y-102372380D02*
X165447333Y-102372380D01*
X165018761Y-103372380D01*
X139971142Y-99872380D02*
X139637809Y-99396190D01*
X139399714Y-99872380D02*
X139399714Y-98872380D01*
X139780666Y-98872380D01*
X139875904Y-98920000D01*
X139923523Y-98967619D01*
X139971142Y-99062857D01*
X139971142Y-99205714D01*
X139923523Y-99300952D01*
X139875904Y-99348571D01*
X139780666Y-99396190D01*
X139399714Y-99396190D01*
X140923523Y-99872380D02*
X140352095Y-99872380D01*
X140637809Y-99872380D02*
X140637809Y-98872380D01*
X140542571Y-99015238D01*
X140447333Y-99110476D01*
X140352095Y-99158095D01*
X141780666Y-99205714D02*
X141780666Y-99872380D01*
X141542571Y-98824761D02*
X141304476Y-99539047D01*
X141923523Y-99539047D01*
X139971142Y-101372380D02*
X139637809Y-100896190D01*
X139399714Y-101372380D02*
X139399714Y-100372380D01*
X139780666Y-100372380D01*
X139875904Y-100420000D01*
X139923523Y-100467619D01*
X139971142Y-100562857D01*
X139971142Y-100705714D01*
X139923523Y-100800952D01*
X139875904Y-100848571D01*
X139780666Y-100896190D01*
X139399714Y-100896190D01*
X140923523Y-101372380D02*
X140352095Y-101372380D01*
X140637809Y-101372380D02*
X140637809Y-100372380D01*
X140542571Y-100515238D01*
X140447333Y-100610476D01*
X140352095Y-100658095D01*
X141875904Y-101372380D02*
X141304476Y-101372380D01*
X141590190Y-101372380D02*
X141590190Y-100372380D01*
X141494952Y-100515238D01*
X141399714Y-100610476D01*
X141304476Y-100658095D01*
X139971142Y-98372380D02*
X139637809Y-97896190D01*
X139399714Y-98372380D02*
X139399714Y-97372380D01*
X139780666Y-97372380D01*
X139875904Y-97420000D01*
X139923523Y-97467619D01*
X139971142Y-97562857D01*
X139971142Y-97705714D01*
X139923523Y-97800952D01*
X139875904Y-97848571D01*
X139780666Y-97896190D01*
X139399714Y-97896190D01*
X140923523Y-98372380D02*
X140352095Y-98372380D01*
X140637809Y-98372380D02*
X140637809Y-97372380D01*
X140542571Y-97515238D01*
X140447333Y-97610476D01*
X140352095Y-97658095D01*
X141542571Y-97372380D02*
X141637809Y-97372380D01*
X141733047Y-97420000D01*
X141780666Y-97467619D01*
X141828285Y-97562857D01*
X141875904Y-97753333D01*
X141875904Y-97991428D01*
X141828285Y-98181904D01*
X141780666Y-98277142D01*
X141733047Y-98324761D01*
X141637809Y-98372380D01*
X141542571Y-98372380D01*
X141447333Y-98324761D01*
X141399714Y-98277142D01*
X141352095Y-98181904D01*
X141304476Y-97991428D01*
X141304476Y-97753333D01*
X141352095Y-97562857D01*
X141399714Y-97467619D01*
X141447333Y-97420000D01*
X141542571Y-97372380D01*
X139947333Y-102872380D02*
X139614000Y-102396190D01*
X139375904Y-102872380D02*
X139375904Y-101872380D01*
X139756857Y-101872380D01*
X139852095Y-101920000D01*
X139899714Y-101967619D01*
X139947333Y-102062857D01*
X139947333Y-102205714D01*
X139899714Y-102300952D01*
X139852095Y-102348571D01*
X139756857Y-102396190D01*
X139375904Y-102396190D01*
X140423523Y-102872380D02*
X140614000Y-102872380D01*
X140709238Y-102824761D01*
X140756857Y-102777142D01*
X140852095Y-102634285D01*
X140899714Y-102443809D01*
X140899714Y-102062857D01*
X140852095Y-101967619D01*
X140804476Y-101920000D01*
X140709238Y-101872380D01*
X140518761Y-101872380D01*
X140423523Y-101920000D01*
X140375904Y-101967619D01*
X140328285Y-102062857D01*
X140328285Y-102300952D01*
X140375904Y-102396190D01*
X140423523Y-102443809D01*
X140518761Y-102491428D01*
X140709238Y-102491428D01*
X140804476Y-102443809D01*
X140852095Y-102396190D01*
X140899714Y-102300952D01*
X154538761Y-91503333D02*
X154586380Y-91360476D01*
X154586380Y-91122380D01*
X154538761Y-91027142D01*
X154491142Y-90979523D01*
X154395904Y-90931904D01*
X154300666Y-90931904D01*
X154205428Y-90979523D01*
X154157809Y-91027142D01*
X154110190Y-91122380D01*
X154062571Y-91312857D01*
X154014952Y-91408095D01*
X153967333Y-91455714D01*
X153872095Y-91503333D01*
X153776857Y-91503333D01*
X153681619Y-91455714D01*
X153634000Y-91408095D01*
X153586380Y-91312857D01*
X153586380Y-91074761D01*
X153634000Y-90931904D01*
X153586380Y-90598571D02*
X154586380Y-90360476D01*
X153872095Y-90170000D01*
X154586380Y-89979523D01*
X153586380Y-89741428D01*
X154586380Y-88836666D02*
X154586380Y-89408095D01*
X154586380Y-89122380D02*
X153586380Y-89122380D01*
X153729238Y-89217619D01*
X153824476Y-89312857D01*
X153872095Y-89408095D01*
X135066380Y-104181904D02*
X135875904Y-104181904D01*
X135971142Y-104134285D01*
X136018761Y-104086666D01*
X136066380Y-103991428D01*
X136066380Y-103800952D01*
X136018761Y-103705714D01*
X135971142Y-103658095D01*
X135875904Y-103610476D01*
X135066380Y-103610476D01*
X135066380Y-102658095D02*
X135066380Y-103134285D01*
X135542571Y-103181904D01*
X135494952Y-103134285D01*
X135447333Y-103039047D01*
X135447333Y-102800952D01*
X135494952Y-102705714D01*
X135542571Y-102658095D01*
X135637809Y-102610476D01*
X135875904Y-102610476D01*
X135971142Y-102658095D01*
X136018761Y-102705714D01*
X136066380Y-102800952D01*
X136066380Y-103039047D01*
X136018761Y-103134285D01*
X135971142Y-103181904D01*
X115852095Y-111472380D02*
X115852095Y-112281904D01*
X115899714Y-112377142D01*
X115947333Y-112424761D01*
X116042571Y-112472380D01*
X116233047Y-112472380D01*
X116328285Y-112424761D01*
X116375904Y-112377142D01*
X116423523Y-112281904D01*
X116423523Y-111472380D01*
X116852095Y-111567619D02*
X116899714Y-111520000D01*
X116994952Y-111472380D01*
X117233047Y-111472380D01*
X117328285Y-111520000D01*
X117375904Y-111567619D01*
X117423523Y-111662857D01*
X117423523Y-111758095D01*
X117375904Y-111900952D01*
X116804476Y-112472380D01*
X117423523Y-112472380D01*
X153616380Y-107681904D02*
X154425904Y-107681904D01*
X154521142Y-107634285D01*
X154568761Y-107586666D01*
X154616380Y-107491428D01*
X154616380Y-107300952D01*
X154568761Y-107205714D01*
X154521142Y-107158095D01*
X154425904Y-107110476D01*
X153616380Y-107110476D01*
X153949714Y-106205714D02*
X154616380Y-106205714D01*
X153568761Y-106443809D02*
X154283047Y-106681904D01*
X154283047Y-106062857D01*
M02*
