G04 #@! TF.GenerationSoftware,KiCad,Pcbnew,(5.1.5)-3*
G04 #@! TF.CreationDate,2020-12-02T12:44:04-08:00*
G04 #@! TF.ProjectId,USonicTherminNoName,55536f6e-6963-4546-9865-726d696e4e6f,1.0*
G04 #@! TF.SameCoordinates,Original*
G04 #@! TF.FileFunction,Soldermask,Bot*
G04 #@! TF.FilePolarity,Negative*
%FSLAX46Y46*%
G04 Gerber Fmt 4.6, Leading zero omitted, Abs format (unit mm)*
G04 Created by KiCad (PCBNEW (5.1.5)-3) date 2020-12-02 12:44:04*
%MOMM*%
%LPD*%
G04 APERTURE LIST*
%ADD10C,0.100000*%
G04 APERTURE END LIST*
D10*
G36*
X113032039Y-136212250D02*
G01*
X113164796Y-136267240D01*
X113355251Y-136346129D01*
X113646134Y-136540491D01*
X113893509Y-136787866D01*
X114087871Y-137078749D01*
X114087871Y-137078750D01*
X114221750Y-137401961D01*
X114290000Y-137745078D01*
X114290000Y-138094922D01*
X114221750Y-138438039D01*
X114143325Y-138627372D01*
X114087871Y-138761251D01*
X113893509Y-139052134D01*
X113646134Y-139299509D01*
X113355251Y-139493871D01*
X113221372Y-139549325D01*
X113032039Y-139627750D01*
X112688922Y-139696000D01*
X112339078Y-139696000D01*
X111995961Y-139627750D01*
X111806628Y-139549325D01*
X111672749Y-139493871D01*
X111381866Y-139299509D01*
X111134491Y-139052134D01*
X110940129Y-138761251D01*
X110884675Y-138627372D01*
X110806250Y-138438039D01*
X110738000Y-138094922D01*
X110738000Y-137745078D01*
X110806250Y-137401961D01*
X110940129Y-137078750D01*
X110940129Y-137078749D01*
X111134491Y-136787866D01*
X111381866Y-136540491D01*
X111672749Y-136346129D01*
X111863204Y-136267240D01*
X111995961Y-136212250D01*
X112339078Y-136144000D01*
X112688922Y-136144000D01*
X113032039Y-136212250D01*
G37*
G36*
X189916585Y-134898802D02*
G01*
X190066410Y-134928604D01*
X190348674Y-135045521D01*
X190602705Y-135215259D01*
X190818741Y-135431295D01*
X190988479Y-135685326D01*
X191105396Y-135967590D01*
X191165000Y-136267240D01*
X191165000Y-136572760D01*
X191105396Y-136872410D01*
X190988479Y-137154674D01*
X190818741Y-137408705D01*
X190602705Y-137624741D01*
X190348674Y-137794479D01*
X190066410Y-137911396D01*
X189916585Y-137941198D01*
X189766761Y-137971000D01*
X189461239Y-137971000D01*
X189311415Y-137941198D01*
X189161590Y-137911396D01*
X188879326Y-137794479D01*
X188625295Y-137624741D01*
X188409259Y-137408705D01*
X188239521Y-137154674D01*
X188122604Y-136872410D01*
X188063000Y-136572760D01*
X188063000Y-136267240D01*
X188122604Y-135967590D01*
X188239521Y-135685326D01*
X188409259Y-135431295D01*
X188625295Y-135215259D01*
X188879326Y-135045521D01*
X189161590Y-134928604D01*
X189311415Y-134898802D01*
X189461239Y-134869000D01*
X189766761Y-134869000D01*
X189916585Y-134898802D01*
G37*
G36*
X90916585Y-134898802D02*
G01*
X91066410Y-134928604D01*
X91348674Y-135045521D01*
X91602705Y-135215259D01*
X91818741Y-135431295D01*
X91988479Y-135685326D01*
X92105396Y-135967590D01*
X92165000Y-136267240D01*
X92165000Y-136572760D01*
X92105396Y-136872410D01*
X91988479Y-137154674D01*
X91818741Y-137408705D01*
X91602705Y-137624741D01*
X91348674Y-137794479D01*
X91066410Y-137911396D01*
X90916585Y-137941198D01*
X90766761Y-137971000D01*
X90461239Y-137971000D01*
X90311415Y-137941198D01*
X90161590Y-137911396D01*
X89879326Y-137794479D01*
X89625295Y-137624741D01*
X89409259Y-137408705D01*
X89239521Y-137154674D01*
X89122604Y-136872410D01*
X89063000Y-136572760D01*
X89063000Y-136267240D01*
X89122604Y-135967590D01*
X89239521Y-135685326D01*
X89409259Y-135431295D01*
X89625295Y-135215259D01*
X89879326Y-135045521D01*
X90161590Y-134928604D01*
X90311415Y-134898802D01*
X90461239Y-134869000D01*
X90766761Y-134869000D01*
X90916585Y-134898802D01*
G37*
G36*
X168232039Y-120212250D02*
G01*
X168421372Y-120290675D01*
X168555251Y-120346129D01*
X168846134Y-120540491D01*
X169093509Y-120787866D01*
X169287871Y-121078749D01*
X169287871Y-121078750D01*
X169421750Y-121401961D01*
X169490000Y-121745078D01*
X169490000Y-122094922D01*
X169421750Y-122438039D01*
X169391859Y-122510201D01*
X169287871Y-122761251D01*
X169093509Y-123052134D01*
X168846134Y-123299509D01*
X168555251Y-123493871D01*
X168421372Y-123549325D01*
X168232039Y-123627750D01*
X167888922Y-123696000D01*
X167539078Y-123696000D01*
X167195961Y-123627750D01*
X167006628Y-123549325D01*
X166872749Y-123493871D01*
X166581866Y-123299509D01*
X166334491Y-123052134D01*
X166140129Y-122761251D01*
X166036141Y-122510201D01*
X166006250Y-122438039D01*
X165938000Y-122094922D01*
X165938000Y-121745078D01*
X166006250Y-121401961D01*
X166140129Y-121078750D01*
X166140129Y-121078749D01*
X166334491Y-120787866D01*
X166581866Y-120540491D01*
X166872749Y-120346129D01*
X167006628Y-120290675D01*
X167195961Y-120212250D01*
X167539078Y-120144000D01*
X167888922Y-120144000D01*
X168232039Y-120212250D01*
G37*
G36*
X104547444Y-120721882D02*
G01*
X104774201Y-120815808D01*
X104841919Y-120861056D01*
X104978279Y-120952168D01*
X105151832Y-121125721D01*
X105242944Y-121262081D01*
X105288192Y-121329799D01*
X105382118Y-121556556D01*
X105430000Y-121797278D01*
X105430000Y-122042722D01*
X105382118Y-122283444D01*
X105288192Y-122510201D01*
X105288191Y-122510202D01*
X105151832Y-122714279D01*
X104978279Y-122887832D01*
X104841919Y-122978944D01*
X104774201Y-123024192D01*
X104547444Y-123118118D01*
X104306722Y-123166000D01*
X104061278Y-123166000D01*
X103820556Y-123118118D01*
X103593799Y-123024192D01*
X103526081Y-122978944D01*
X103389721Y-122887832D01*
X103216168Y-122714279D01*
X103079809Y-122510202D01*
X103079808Y-122510201D01*
X102985882Y-122283444D01*
X102938000Y-122042722D01*
X102938000Y-121797278D01*
X102985882Y-121556556D01*
X103079808Y-121329799D01*
X103125056Y-121262081D01*
X103216168Y-121125721D01*
X103389721Y-120952168D01*
X103526081Y-120861056D01*
X103593799Y-120815808D01*
X103820556Y-120721882D01*
X104061278Y-120674000D01*
X104306722Y-120674000D01*
X104547444Y-120721882D01*
G37*
G36*
X145618468Y-119957565D02*
G01*
X145657138Y-119969296D01*
X145692777Y-119988346D01*
X145724017Y-120013983D01*
X145749654Y-120045223D01*
X145768704Y-120080862D01*
X145780435Y-120119532D01*
X145785000Y-120165888D01*
X145785000Y-120817112D01*
X145780435Y-120863468D01*
X145768704Y-120902138D01*
X145749654Y-120937777D01*
X145724017Y-120969017D01*
X145692777Y-120994654D01*
X145657138Y-121013704D01*
X145618468Y-121025435D01*
X145572112Y-121030000D01*
X144495888Y-121030000D01*
X144449532Y-121025435D01*
X144410862Y-121013704D01*
X144375223Y-120994654D01*
X144343983Y-120969017D01*
X144318346Y-120937777D01*
X144299296Y-120902138D01*
X144287565Y-120863468D01*
X144283000Y-120817112D01*
X144283000Y-120165888D01*
X144287565Y-120119532D01*
X144299296Y-120080862D01*
X144318346Y-120045223D01*
X144343983Y-120013983D01*
X144375223Y-119988346D01*
X144410862Y-119969296D01*
X144449532Y-119957565D01*
X144495888Y-119953000D01*
X145572112Y-119953000D01*
X145618468Y-119957565D01*
G37*
G36*
X145618468Y-118082565D02*
G01*
X145657138Y-118094296D01*
X145692777Y-118113346D01*
X145724017Y-118138983D01*
X145749654Y-118170223D01*
X145768704Y-118205862D01*
X145780435Y-118244532D01*
X145785000Y-118290888D01*
X145785000Y-118942112D01*
X145780435Y-118988468D01*
X145768704Y-119027138D01*
X145749654Y-119062777D01*
X145724017Y-119094017D01*
X145692777Y-119119654D01*
X145657138Y-119138704D01*
X145618468Y-119150435D01*
X145572112Y-119155000D01*
X144495888Y-119155000D01*
X144449532Y-119150435D01*
X144410862Y-119138704D01*
X144375223Y-119119654D01*
X144343983Y-119094017D01*
X144318346Y-119062777D01*
X144299296Y-119027138D01*
X144287565Y-118988468D01*
X144283000Y-118942112D01*
X144283000Y-118290888D01*
X144287565Y-118244532D01*
X144299296Y-118205862D01*
X144318346Y-118170223D01*
X144343983Y-118138983D01*
X144375223Y-118113346D01*
X144410862Y-118094296D01*
X144449532Y-118082565D01*
X144495888Y-118078000D01*
X145572112Y-118078000D01*
X145618468Y-118082565D01*
G37*
G36*
X147787000Y-118975000D02*
G01*
X147085000Y-118975000D01*
X147085000Y-117153000D01*
X147787000Y-117153000D01*
X147787000Y-118975000D01*
G37*
G36*
X149687000Y-118975000D02*
G01*
X148985000Y-118975000D01*
X148985000Y-117153000D01*
X149687000Y-117153000D01*
X149687000Y-118975000D01*
G37*
G36*
X120168591Y-117898085D02*
G01*
X120202569Y-117908393D01*
X120233890Y-117925134D01*
X120261339Y-117947661D01*
X120283866Y-117975110D01*
X120300607Y-118006431D01*
X120310915Y-118040409D01*
X120315000Y-118081890D01*
X120315000Y-118758110D01*
X120310915Y-118799591D01*
X120300607Y-118833569D01*
X120283866Y-118864890D01*
X120261339Y-118892339D01*
X120233890Y-118914866D01*
X120202569Y-118931607D01*
X120168591Y-118941915D01*
X120127110Y-118946000D01*
X119525890Y-118946000D01*
X119484409Y-118941915D01*
X119450431Y-118931607D01*
X119419110Y-118914866D01*
X119391661Y-118892339D01*
X119369134Y-118864890D01*
X119352393Y-118833569D01*
X119342085Y-118799591D01*
X119338000Y-118758110D01*
X119338000Y-118081890D01*
X119342085Y-118040409D01*
X119352393Y-118006431D01*
X119369134Y-117975110D01*
X119391661Y-117947661D01*
X119419110Y-117925134D01*
X119450431Y-117908393D01*
X119484409Y-117898085D01*
X119525890Y-117894000D01*
X120127110Y-117894000D01*
X120168591Y-117898085D01*
G37*
G36*
X121743591Y-117898085D02*
G01*
X121777569Y-117908393D01*
X121808890Y-117925134D01*
X121836339Y-117947661D01*
X121858866Y-117975110D01*
X121875607Y-118006431D01*
X121885915Y-118040409D01*
X121890000Y-118081890D01*
X121890000Y-118758110D01*
X121885915Y-118799591D01*
X121875607Y-118833569D01*
X121858866Y-118864890D01*
X121836339Y-118892339D01*
X121808890Y-118914866D01*
X121777569Y-118931607D01*
X121743591Y-118941915D01*
X121702110Y-118946000D01*
X121100890Y-118946000D01*
X121059409Y-118941915D01*
X121025431Y-118931607D01*
X120994110Y-118914866D01*
X120966661Y-118892339D01*
X120944134Y-118864890D01*
X120927393Y-118833569D01*
X120917085Y-118799591D01*
X120913000Y-118758110D01*
X120913000Y-118081890D01*
X120917085Y-118040409D01*
X120927393Y-118006431D01*
X120944134Y-117975110D01*
X120966661Y-117947661D01*
X120994110Y-117925134D01*
X121025431Y-117908393D01*
X121059409Y-117898085D01*
X121100890Y-117894000D01*
X121702110Y-117894000D01*
X121743591Y-117898085D01*
G37*
G36*
X113395938Y-118061716D02*
G01*
X113416557Y-118067971D01*
X113435553Y-118078124D01*
X113452208Y-118091792D01*
X113465876Y-118108447D01*
X113476029Y-118127443D01*
X113482284Y-118148062D01*
X113485000Y-118175640D01*
X113485000Y-118634360D01*
X113482284Y-118661938D01*
X113476029Y-118682557D01*
X113465876Y-118701553D01*
X113452208Y-118718208D01*
X113435553Y-118731876D01*
X113416557Y-118742029D01*
X113395938Y-118748284D01*
X113368360Y-118751000D01*
X112859640Y-118751000D01*
X112832062Y-118748284D01*
X112811443Y-118742029D01*
X112792447Y-118731876D01*
X112775792Y-118718208D01*
X112762124Y-118701553D01*
X112751971Y-118682557D01*
X112745716Y-118661938D01*
X112743000Y-118634360D01*
X112743000Y-118175640D01*
X112745716Y-118148062D01*
X112751971Y-118127443D01*
X112762124Y-118108447D01*
X112775792Y-118091792D01*
X112792447Y-118078124D01*
X112811443Y-118067971D01*
X112832062Y-118061716D01*
X112859640Y-118059000D01*
X113368360Y-118059000D01*
X113395938Y-118061716D01*
G37*
G36*
X116195000Y-118402000D02*
G01*
X115033000Y-118402000D01*
X115033000Y-115750000D01*
X116195000Y-115750000D01*
X116195000Y-118402000D01*
G37*
G36*
X118395000Y-118402000D02*
G01*
X117233000Y-118402000D01*
X117233000Y-117650000D01*
X118395000Y-117650000D01*
X118395000Y-118402000D01*
G37*
G36*
X155778468Y-117243565D02*
G01*
X155817138Y-117255296D01*
X155852777Y-117274346D01*
X155884017Y-117299983D01*
X155909654Y-117331223D01*
X155928704Y-117366862D01*
X155940435Y-117405532D01*
X155945000Y-117451888D01*
X155945000Y-118103112D01*
X155940435Y-118149468D01*
X155928704Y-118188138D01*
X155909654Y-118223777D01*
X155884017Y-118255017D01*
X155852777Y-118280654D01*
X155817138Y-118299704D01*
X155778468Y-118311435D01*
X155732112Y-118316000D01*
X154655888Y-118316000D01*
X154609532Y-118311435D01*
X154570862Y-118299704D01*
X154535223Y-118280654D01*
X154503983Y-118255017D01*
X154478346Y-118223777D01*
X154459296Y-118188138D01*
X154447565Y-118149468D01*
X154443000Y-118103112D01*
X154443000Y-117451888D01*
X154447565Y-117405532D01*
X154459296Y-117366862D01*
X154478346Y-117331223D01*
X154503983Y-117299983D01*
X154535223Y-117274346D01*
X154570862Y-117255296D01*
X154609532Y-117243565D01*
X154655888Y-117239000D01*
X155732112Y-117239000D01*
X155778468Y-117243565D01*
G37*
G36*
X152222468Y-117243565D02*
G01*
X152261138Y-117255296D01*
X152296777Y-117274346D01*
X152328017Y-117299983D01*
X152353654Y-117331223D01*
X152372704Y-117366862D01*
X152384435Y-117405532D01*
X152389000Y-117451888D01*
X152389000Y-118103112D01*
X152384435Y-118149468D01*
X152372704Y-118188138D01*
X152353654Y-118223777D01*
X152328017Y-118255017D01*
X152296777Y-118280654D01*
X152261138Y-118299704D01*
X152222468Y-118311435D01*
X152176112Y-118316000D01*
X151099888Y-118316000D01*
X151053532Y-118311435D01*
X151014862Y-118299704D01*
X150979223Y-118280654D01*
X150947983Y-118255017D01*
X150922346Y-118223777D01*
X150903296Y-118188138D01*
X150891565Y-118149468D01*
X150887000Y-118103112D01*
X150887000Y-117451888D01*
X150891565Y-117405532D01*
X150903296Y-117366862D01*
X150922346Y-117331223D01*
X150947983Y-117299983D01*
X150979223Y-117274346D01*
X151014862Y-117255296D01*
X151053532Y-117243565D01*
X151099888Y-117239000D01*
X152176112Y-117239000D01*
X152222468Y-117243565D01*
G37*
G36*
X113395938Y-117091716D02*
G01*
X113416557Y-117097971D01*
X113435553Y-117108124D01*
X113452208Y-117121792D01*
X113465876Y-117138447D01*
X113476029Y-117157443D01*
X113482284Y-117178062D01*
X113485000Y-117205640D01*
X113485000Y-117664360D01*
X113482284Y-117691938D01*
X113476029Y-117712557D01*
X113465876Y-117731553D01*
X113452208Y-117748208D01*
X113435553Y-117761876D01*
X113416557Y-117772029D01*
X113395938Y-117778284D01*
X113368360Y-117781000D01*
X112859640Y-117781000D01*
X112832062Y-117778284D01*
X112811443Y-117772029D01*
X112792447Y-117761876D01*
X112775792Y-117748208D01*
X112762124Y-117731553D01*
X112751971Y-117712557D01*
X112745716Y-117691938D01*
X112743000Y-117664360D01*
X112743000Y-117205640D01*
X112745716Y-117178062D01*
X112751971Y-117157443D01*
X112762124Y-117138447D01*
X112775792Y-117121792D01*
X112792447Y-117108124D01*
X112811443Y-117097971D01*
X112832062Y-117091716D01*
X112859640Y-117089000D01*
X113368360Y-117089000D01*
X113395938Y-117091716D01*
G37*
G36*
X145618468Y-115895065D02*
G01*
X145657138Y-115906796D01*
X145692777Y-115925846D01*
X145724017Y-115951483D01*
X145749654Y-115982723D01*
X145768704Y-116018362D01*
X145780435Y-116057032D01*
X145785000Y-116103388D01*
X145785000Y-116754612D01*
X145780435Y-116800968D01*
X145768704Y-116839638D01*
X145749654Y-116875277D01*
X145724017Y-116906517D01*
X145692777Y-116932154D01*
X145657138Y-116951204D01*
X145618468Y-116962935D01*
X145572112Y-116967500D01*
X144495888Y-116967500D01*
X144449532Y-116962935D01*
X144410862Y-116951204D01*
X144375223Y-116932154D01*
X144343983Y-116906517D01*
X144318346Y-116875277D01*
X144299296Y-116839638D01*
X144287565Y-116800968D01*
X144283000Y-116754612D01*
X144283000Y-116103388D01*
X144287565Y-116057032D01*
X144299296Y-116018362D01*
X144318346Y-115982723D01*
X144343983Y-115951483D01*
X144375223Y-115925846D01*
X144410862Y-115906796D01*
X144449532Y-115895065D01*
X144495888Y-115890500D01*
X145572112Y-115890500D01*
X145618468Y-115895065D01*
G37*
G36*
X118395000Y-116502000D02*
G01*
X117233000Y-116502000D01*
X117233000Y-115750000D01*
X118395000Y-115750000D01*
X118395000Y-116502000D01*
G37*
G36*
X152222468Y-115368565D02*
G01*
X152261138Y-115380296D01*
X152296777Y-115399346D01*
X152328017Y-115424983D01*
X152353654Y-115456223D01*
X152372704Y-115491862D01*
X152384435Y-115530532D01*
X152389000Y-115576888D01*
X152389000Y-116228112D01*
X152384435Y-116274468D01*
X152372704Y-116313138D01*
X152353654Y-116348777D01*
X152328017Y-116380017D01*
X152296777Y-116405654D01*
X152261138Y-116424704D01*
X152222468Y-116436435D01*
X152176112Y-116441000D01*
X151099888Y-116441000D01*
X151053532Y-116436435D01*
X151014862Y-116424704D01*
X150979223Y-116405654D01*
X150947983Y-116380017D01*
X150922346Y-116348777D01*
X150903296Y-116313138D01*
X150891565Y-116274468D01*
X150887000Y-116228112D01*
X150887000Y-115576888D01*
X150891565Y-115530532D01*
X150903296Y-115491862D01*
X150922346Y-115456223D01*
X150947983Y-115424983D01*
X150979223Y-115399346D01*
X151014862Y-115380296D01*
X151053532Y-115368565D01*
X151099888Y-115364000D01*
X152176112Y-115364000D01*
X152222468Y-115368565D01*
G37*
G36*
X155778468Y-115368565D02*
G01*
X155817138Y-115380296D01*
X155852777Y-115399346D01*
X155884017Y-115424983D01*
X155909654Y-115456223D01*
X155928704Y-115491862D01*
X155940435Y-115530532D01*
X155945000Y-115576888D01*
X155945000Y-116228112D01*
X155940435Y-116274468D01*
X155928704Y-116313138D01*
X155909654Y-116348777D01*
X155884017Y-116380017D01*
X155852777Y-116405654D01*
X155817138Y-116424704D01*
X155778468Y-116436435D01*
X155732112Y-116441000D01*
X154655888Y-116441000D01*
X154609532Y-116436435D01*
X154570862Y-116424704D01*
X154535223Y-116405654D01*
X154503983Y-116380017D01*
X154478346Y-116348777D01*
X154459296Y-116313138D01*
X154447565Y-116274468D01*
X154443000Y-116228112D01*
X154443000Y-115576888D01*
X154447565Y-115530532D01*
X154459296Y-115491862D01*
X154478346Y-115456223D01*
X154503983Y-115424983D01*
X154535223Y-115399346D01*
X154570862Y-115380296D01*
X154609532Y-115368565D01*
X154655888Y-115364000D01*
X155732112Y-115364000D01*
X155778468Y-115368565D01*
G37*
G36*
X112698468Y-115323565D02*
G01*
X112737138Y-115335296D01*
X112772777Y-115354346D01*
X112804017Y-115379983D01*
X112829654Y-115411223D01*
X112848704Y-115446862D01*
X112860435Y-115485532D01*
X112865000Y-115531888D01*
X112865000Y-116183112D01*
X112860435Y-116229468D01*
X112848704Y-116268138D01*
X112829654Y-116303777D01*
X112804017Y-116335017D01*
X112772777Y-116360654D01*
X112737138Y-116379704D01*
X112698468Y-116391435D01*
X112652112Y-116396000D01*
X111575888Y-116396000D01*
X111529532Y-116391435D01*
X111490862Y-116379704D01*
X111455223Y-116360654D01*
X111423983Y-116335017D01*
X111398346Y-116303777D01*
X111379296Y-116268138D01*
X111367565Y-116229468D01*
X111363000Y-116183112D01*
X111363000Y-115531888D01*
X111367565Y-115485532D01*
X111379296Y-115446862D01*
X111398346Y-115411223D01*
X111423983Y-115379983D01*
X111455223Y-115354346D01*
X111490862Y-115335296D01*
X111529532Y-115323565D01*
X111575888Y-115319000D01*
X112652112Y-115319000D01*
X112698468Y-115323565D01*
G37*
G36*
X134709000Y-115913000D02*
G01*
X133007000Y-115913000D01*
X133007000Y-114211000D01*
X134709000Y-114211000D01*
X134709000Y-115913000D01*
G37*
G36*
X132106228Y-114243703D02*
G01*
X132261100Y-114307853D01*
X132400481Y-114400985D01*
X132519015Y-114519519D01*
X132612147Y-114658900D01*
X132676297Y-114813772D01*
X132709000Y-114978184D01*
X132709000Y-115145816D01*
X132676297Y-115310228D01*
X132612147Y-115465100D01*
X132519015Y-115604481D01*
X132400481Y-115723015D01*
X132261100Y-115816147D01*
X132106228Y-115880297D01*
X131941816Y-115913000D01*
X131774184Y-115913000D01*
X131609772Y-115880297D01*
X131454900Y-115816147D01*
X131315519Y-115723015D01*
X131196985Y-115604481D01*
X131103853Y-115465100D01*
X131039703Y-115310228D01*
X131007000Y-115145816D01*
X131007000Y-114978184D01*
X131039703Y-114813772D01*
X131103853Y-114658900D01*
X131196985Y-114519519D01*
X131315519Y-114400985D01*
X131454900Y-114307853D01*
X131609772Y-114243703D01*
X131774184Y-114211000D01*
X131941816Y-114211000D01*
X132106228Y-114243703D01*
G37*
G36*
X145618468Y-114020065D02*
G01*
X145657138Y-114031796D01*
X145692777Y-114050846D01*
X145724017Y-114076483D01*
X145749654Y-114107723D01*
X145768704Y-114143362D01*
X145780435Y-114182032D01*
X145785000Y-114228388D01*
X145785000Y-114879612D01*
X145780435Y-114925968D01*
X145768704Y-114964638D01*
X145749654Y-115000277D01*
X145724017Y-115031517D01*
X145692777Y-115057154D01*
X145657138Y-115076204D01*
X145618468Y-115087935D01*
X145572112Y-115092500D01*
X144495888Y-115092500D01*
X144449532Y-115087935D01*
X144410862Y-115076204D01*
X144375223Y-115057154D01*
X144343983Y-115031517D01*
X144318346Y-115000277D01*
X144299296Y-114964638D01*
X144287565Y-114925968D01*
X144283000Y-114879612D01*
X144283000Y-114228388D01*
X144287565Y-114182032D01*
X144299296Y-114143362D01*
X144318346Y-114107723D01*
X144343983Y-114076483D01*
X144375223Y-114050846D01*
X144410862Y-114031796D01*
X144449532Y-114020065D01*
X144495888Y-114015500D01*
X145572112Y-114015500D01*
X145618468Y-114020065D01*
G37*
G36*
X112698468Y-113448565D02*
G01*
X112737138Y-113460296D01*
X112772777Y-113479346D01*
X112804017Y-113504983D01*
X112829654Y-113536223D01*
X112848704Y-113571862D01*
X112860435Y-113610532D01*
X112865000Y-113656888D01*
X112865000Y-114308112D01*
X112860435Y-114354468D01*
X112848704Y-114393138D01*
X112829654Y-114428777D01*
X112804017Y-114460017D01*
X112772777Y-114485654D01*
X112737138Y-114504704D01*
X112698468Y-114516435D01*
X112652112Y-114521000D01*
X111575888Y-114521000D01*
X111529532Y-114516435D01*
X111490862Y-114504704D01*
X111455223Y-114485654D01*
X111423983Y-114460017D01*
X111398346Y-114428777D01*
X111379296Y-114393138D01*
X111367565Y-114354468D01*
X111363000Y-114308112D01*
X111363000Y-113656888D01*
X111367565Y-113610532D01*
X111379296Y-113571862D01*
X111398346Y-113536223D01*
X111423983Y-113504983D01*
X111455223Y-113479346D01*
X111490862Y-113460296D01*
X111529532Y-113448565D01*
X111575888Y-113444000D01*
X112652112Y-113444000D01*
X112698468Y-113448565D01*
G37*
G36*
X120713000Y-113169000D02*
G01*
X118111000Y-113169000D01*
X118111000Y-111367000D01*
X120713000Y-111367000D01*
X120713000Y-113169000D01*
G37*
G36*
X124713000Y-113169000D02*
G01*
X122111000Y-113169000D01*
X122111000Y-111367000D01*
X124713000Y-111367000D01*
X124713000Y-113169000D01*
G37*
G36*
X129280228Y-110147703D02*
G01*
X129435100Y-110211853D01*
X129574481Y-110304985D01*
X129693015Y-110423519D01*
X129786147Y-110562900D01*
X129850297Y-110717772D01*
X129883000Y-110882184D01*
X129883000Y-111049816D01*
X129850297Y-111214228D01*
X129786147Y-111369100D01*
X129693015Y-111508481D01*
X129574481Y-111627015D01*
X129435100Y-111720147D01*
X129280228Y-111784297D01*
X129115816Y-111817000D01*
X128948184Y-111817000D01*
X128783772Y-111784297D01*
X128628900Y-111720147D01*
X128489519Y-111627015D01*
X128370985Y-111508481D01*
X128277853Y-111369100D01*
X128213703Y-111214228D01*
X128181000Y-111049816D01*
X128181000Y-110882184D01*
X128213703Y-110717772D01*
X128277853Y-110562900D01*
X128370985Y-110423519D01*
X128489519Y-110304985D01*
X128628900Y-110211853D01*
X128783772Y-110147703D01*
X128948184Y-110115000D01*
X129115816Y-110115000D01*
X129280228Y-110147703D01*
G37*
G36*
X100888206Y-109420000D02*
G01*
X99614000Y-110694206D01*
X98339794Y-109420000D01*
X99614000Y-108145794D01*
X100888206Y-109420000D01*
G37*
G36*
X180615666Y-108412081D02*
G01*
X180764966Y-108441778D01*
X180928938Y-108509698D01*
X181076508Y-108608301D01*
X181202007Y-108733800D01*
X181300610Y-108881370D01*
X181368530Y-109045342D01*
X181403154Y-109219413D01*
X181403154Y-109396895D01*
X181368530Y-109570966D01*
X181300610Y-109734938D01*
X181202007Y-109882508D01*
X181076508Y-110008007D01*
X180928938Y-110106610D01*
X180764966Y-110174530D01*
X180615666Y-110204227D01*
X180590896Y-110209154D01*
X180413412Y-110209154D01*
X180388642Y-110204227D01*
X180239342Y-110174530D01*
X180075370Y-110106610D01*
X179927800Y-110008007D01*
X179802301Y-109882508D01*
X179703698Y-109734938D01*
X179635778Y-109570966D01*
X179601154Y-109396895D01*
X179601154Y-109219413D01*
X179635778Y-109045342D01*
X179703698Y-108881370D01*
X179802301Y-108733800D01*
X179927800Y-108608301D01*
X180075370Y-108509698D01*
X180239342Y-108441778D01*
X180388642Y-108412081D01*
X180413412Y-108407154D01*
X180590896Y-108407154D01*
X180615666Y-108412081D01*
G37*
G36*
X129883000Y-109817000D02*
G01*
X128181000Y-109817000D01*
X128181000Y-108115000D01*
X129883000Y-108115000D01*
X129883000Y-109817000D01*
G37*
G36*
X101523563Y-106727876D02*
G01*
X101672863Y-106757573D01*
X101836835Y-106825493D01*
X101984405Y-106924096D01*
X102109904Y-107049595D01*
X102208507Y-107197165D01*
X102276427Y-107361137D01*
X102311051Y-107535208D01*
X102311051Y-107712690D01*
X102276427Y-107886761D01*
X102208507Y-108050733D01*
X102109904Y-108198303D01*
X101984405Y-108323802D01*
X101836835Y-108422405D01*
X101672863Y-108490325D01*
X101523563Y-108520022D01*
X101498793Y-108524949D01*
X101321309Y-108524949D01*
X101296539Y-108520022D01*
X101147239Y-108490325D01*
X100983267Y-108422405D01*
X100835697Y-108323802D01*
X100710198Y-108198303D01*
X100611595Y-108050733D01*
X100543675Y-107886761D01*
X100509051Y-107712690D01*
X100509051Y-107535208D01*
X100543675Y-107361137D01*
X100611595Y-107197165D01*
X100710198Y-107049595D01*
X100835697Y-106924096D01*
X100983267Y-106825493D01*
X101147239Y-106757573D01*
X101296539Y-106727876D01*
X101321309Y-106722949D01*
X101498793Y-106722949D01*
X101523563Y-106727876D01*
G37*
G36*
X178819614Y-106616029D02*
G01*
X178968914Y-106645726D01*
X179132886Y-106713646D01*
X179280456Y-106812249D01*
X179405955Y-106937748D01*
X179504558Y-107085318D01*
X179572478Y-107249290D01*
X179607102Y-107423361D01*
X179607102Y-107600843D01*
X179572478Y-107774914D01*
X179504558Y-107938886D01*
X179405955Y-108086456D01*
X179280456Y-108211955D01*
X179132886Y-108310558D01*
X178968914Y-108378478D01*
X178824746Y-108407154D01*
X178794844Y-108413102D01*
X178617360Y-108413102D01*
X178587458Y-108407154D01*
X178443290Y-108378478D01*
X178279318Y-108310558D01*
X178131748Y-108211955D01*
X178006249Y-108086456D01*
X177907646Y-107938886D01*
X177839726Y-107774914D01*
X177805102Y-107600843D01*
X177805102Y-107423361D01*
X177839726Y-107249290D01*
X177907646Y-107085318D01*
X178006249Y-106937748D01*
X178131748Y-106812249D01*
X178279318Y-106713646D01*
X178443290Y-106645726D01*
X178592590Y-106616029D01*
X178617360Y-106611102D01*
X178794844Y-106611102D01*
X178819614Y-106616029D01*
G37*
G36*
X103319614Y-104931825D02*
G01*
X103468914Y-104961522D01*
X103632886Y-105029442D01*
X103780456Y-105128045D01*
X103905955Y-105253544D01*
X104004558Y-105401114D01*
X104072478Y-105565086D01*
X104107102Y-105739157D01*
X104107102Y-105916639D01*
X104072478Y-106090710D01*
X104004558Y-106254682D01*
X103905955Y-106402252D01*
X103780456Y-106527751D01*
X103632886Y-106626354D01*
X103468914Y-106694274D01*
X103324751Y-106722949D01*
X103294844Y-106728898D01*
X103117360Y-106728898D01*
X103087453Y-106722949D01*
X102943290Y-106694274D01*
X102779318Y-106626354D01*
X102631748Y-106527751D01*
X102506249Y-106402252D01*
X102407646Y-106254682D01*
X102339726Y-106090710D01*
X102305102Y-105916639D01*
X102305102Y-105739157D01*
X102339726Y-105565086D01*
X102407646Y-105401114D01*
X102506249Y-105253544D01*
X102631748Y-105128045D01*
X102779318Y-105029442D01*
X102943290Y-104961522D01*
X103092590Y-104931825D01*
X103117360Y-104926898D01*
X103294844Y-104926898D01*
X103319614Y-104931825D01*
G37*
G36*
X177023563Y-104819978D02*
G01*
X177172863Y-104849675D01*
X177336835Y-104917595D01*
X177484405Y-105016198D01*
X177609904Y-105141697D01*
X177708507Y-105289267D01*
X177776427Y-105453239D01*
X177811051Y-105627310D01*
X177811051Y-105804792D01*
X177776427Y-105978863D01*
X177708507Y-106142835D01*
X177609904Y-106290405D01*
X177484405Y-106415904D01*
X177336835Y-106514507D01*
X177172863Y-106582427D01*
X177028700Y-106611102D01*
X176998793Y-106617051D01*
X176821309Y-106617051D01*
X176791402Y-106611102D01*
X176647239Y-106582427D01*
X176483267Y-106514507D01*
X176335697Y-106415904D01*
X176210198Y-106290405D01*
X176111595Y-106142835D01*
X176043675Y-105978863D01*
X176009051Y-105804792D01*
X176009051Y-105627310D01*
X176043675Y-105453239D01*
X176111595Y-105289267D01*
X176210198Y-105141697D01*
X176335697Y-105016198D01*
X176483267Y-104917595D01*
X176647239Y-104849675D01*
X176796539Y-104819978D01*
X176821309Y-104815051D01*
X176998793Y-104815051D01*
X177023563Y-104819978D01*
G37*
G36*
X131251496Y-104394000D02*
G01*
X130048000Y-105597496D01*
X128844504Y-104394000D01*
X130048000Y-103190504D01*
X131251496Y-104394000D01*
G37*
G36*
X124901496Y-104394000D02*
G01*
X123698000Y-105597496D01*
X122494504Y-104394000D01*
X123698000Y-103190504D01*
X124901496Y-104394000D01*
G37*
G36*
X176388206Y-103920000D02*
G01*
X175114000Y-105194206D01*
X173839794Y-103920000D01*
X175114000Y-102645794D01*
X176388206Y-103920000D01*
G37*
G36*
X105115666Y-103135773D02*
G01*
X105264966Y-103165470D01*
X105428938Y-103233390D01*
X105576508Y-103331993D01*
X105702007Y-103457492D01*
X105800610Y-103605062D01*
X105868530Y-103769034D01*
X105903154Y-103943105D01*
X105903154Y-104120587D01*
X105868530Y-104294658D01*
X105800610Y-104458630D01*
X105702007Y-104606200D01*
X105576508Y-104731699D01*
X105428938Y-104830302D01*
X105264966Y-104898222D01*
X105120798Y-104926898D01*
X105090896Y-104932846D01*
X104913412Y-104932846D01*
X104883510Y-104926898D01*
X104739342Y-104898222D01*
X104575370Y-104830302D01*
X104427800Y-104731699D01*
X104302301Y-104606200D01*
X104203698Y-104458630D01*
X104135778Y-104294658D01*
X104101154Y-104120587D01*
X104101154Y-103943105D01*
X104135778Y-103769034D01*
X104203698Y-103605062D01*
X104302301Y-103457492D01*
X104427800Y-103331993D01*
X104575370Y-103233390D01*
X104739342Y-103165470D01*
X104888642Y-103135773D01*
X104913412Y-103130846D01*
X105090896Y-103130846D01*
X105115666Y-103135773D01*
G37*
G36*
X128882014Y-102161489D02*
G01*
X129036886Y-102225639D01*
X129176267Y-102318771D01*
X129294801Y-102437305D01*
X129387933Y-102576686D01*
X129452083Y-102731558D01*
X129484786Y-102895970D01*
X129484786Y-103063602D01*
X129452083Y-103228014D01*
X129387933Y-103382886D01*
X129294801Y-103522267D01*
X129176267Y-103640801D01*
X129036886Y-103733933D01*
X128882014Y-103798083D01*
X128717602Y-103830786D01*
X128549970Y-103830786D01*
X128385558Y-103798083D01*
X128230686Y-103733933D01*
X128091305Y-103640801D01*
X127972771Y-103522267D01*
X127879639Y-103382886D01*
X127815489Y-103228014D01*
X127782786Y-103063602D01*
X127782786Y-102895970D01*
X127815489Y-102731558D01*
X127879639Y-102576686D01*
X127972771Y-102437305D01*
X128091305Y-102318771D01*
X128230686Y-102225639D01*
X128385558Y-102161489D01*
X128549970Y-102128786D01*
X128717602Y-102128786D01*
X128882014Y-102161489D01*
G37*
G36*
X122532014Y-102161489D02*
G01*
X122686886Y-102225639D01*
X122826267Y-102318771D01*
X122944801Y-102437305D01*
X123037933Y-102576686D01*
X123102083Y-102731558D01*
X123134786Y-102895970D01*
X123134786Y-103063602D01*
X123102083Y-103228014D01*
X123037933Y-103382886D01*
X122944801Y-103522267D01*
X122826267Y-103640801D01*
X122686886Y-103733933D01*
X122532014Y-103798083D01*
X122367602Y-103830786D01*
X122199970Y-103830786D01*
X122035558Y-103798083D01*
X121880686Y-103733933D01*
X121741305Y-103640801D01*
X121622771Y-103522267D01*
X121529639Y-103382886D01*
X121465489Y-103228014D01*
X121432786Y-103063602D01*
X121432786Y-102895970D01*
X121465489Y-102731558D01*
X121529639Y-102576686D01*
X121622771Y-102437305D01*
X121741305Y-102318771D01*
X121880686Y-102225639D01*
X122035558Y-102161489D01*
X122199970Y-102128786D01*
X122367602Y-102128786D01*
X122532014Y-102161489D01*
G37*
G36*
X158504721Y-94810174D02*
G01*
X158604995Y-94851709D01*
X158604996Y-94851710D01*
X158695242Y-94912010D01*
X158771990Y-94988758D01*
X158771991Y-94988760D01*
X158832291Y-95079005D01*
X158863516Y-95154389D01*
X158875067Y-95176000D01*
X158890612Y-95194941D01*
X158909554Y-95210487D01*
X158931165Y-95222038D01*
X158954614Y-95229151D01*
X158979000Y-95231553D01*
X159003386Y-95229151D01*
X159026835Y-95222038D01*
X159048446Y-95210487D01*
X159067387Y-95194942D01*
X159082933Y-95176000D01*
X159094484Y-95154389D01*
X159125709Y-95079005D01*
X159186009Y-94988760D01*
X159186010Y-94988758D01*
X159262758Y-94912010D01*
X159353004Y-94851710D01*
X159353005Y-94851709D01*
X159453279Y-94810174D01*
X159559730Y-94789000D01*
X159668270Y-94789000D01*
X159774721Y-94810174D01*
X159874995Y-94851709D01*
X159874996Y-94851710D01*
X159965242Y-94912010D01*
X160041990Y-94988758D01*
X160041991Y-94988760D01*
X160102291Y-95079005D01*
X160143826Y-95179279D01*
X160165000Y-95285730D01*
X160165000Y-95394270D01*
X160143826Y-95500721D01*
X160102291Y-95600995D01*
X160102290Y-95600996D01*
X160041990Y-95691242D01*
X159965242Y-95767990D01*
X159919812Y-95798345D01*
X159874995Y-95828291D01*
X159799611Y-95859516D01*
X159778000Y-95871067D01*
X159759059Y-95886612D01*
X159743513Y-95905554D01*
X159731962Y-95927165D01*
X159724849Y-95950614D01*
X159722447Y-95975000D01*
X159724849Y-95999386D01*
X159731962Y-96022835D01*
X159743513Y-96044446D01*
X159759058Y-96063387D01*
X159778000Y-96078933D01*
X159799611Y-96090484D01*
X159874995Y-96121709D01*
X159874996Y-96121710D01*
X159965242Y-96182010D01*
X160041990Y-96258758D01*
X160041991Y-96258760D01*
X160102291Y-96349005D01*
X160143826Y-96449279D01*
X160165000Y-96555730D01*
X160165000Y-96664270D01*
X160143826Y-96770721D01*
X160102291Y-96870995D01*
X160102290Y-96870996D01*
X160041990Y-96961242D01*
X159965242Y-97037990D01*
X159919812Y-97068345D01*
X159874995Y-97098291D01*
X159799611Y-97129516D01*
X159778000Y-97141067D01*
X159759059Y-97156612D01*
X159743513Y-97175554D01*
X159731962Y-97197165D01*
X159724849Y-97220614D01*
X159722447Y-97245000D01*
X159724849Y-97269386D01*
X159731962Y-97292835D01*
X159743513Y-97314446D01*
X159759058Y-97333387D01*
X159778000Y-97348933D01*
X159799611Y-97360484D01*
X159874995Y-97391709D01*
X159874996Y-97391710D01*
X159965242Y-97452010D01*
X160041990Y-97528758D01*
X160041991Y-97528760D01*
X160102291Y-97619005D01*
X160143826Y-97719279D01*
X160165000Y-97825730D01*
X160165000Y-97934270D01*
X160143826Y-98040721D01*
X160102291Y-98140995D01*
X160102290Y-98140996D01*
X160041990Y-98231242D01*
X159965242Y-98307990D01*
X159919812Y-98338345D01*
X159874995Y-98368291D01*
X159799611Y-98399516D01*
X159778000Y-98411067D01*
X159759059Y-98426612D01*
X159743513Y-98445554D01*
X159731962Y-98467165D01*
X159724849Y-98490614D01*
X159722447Y-98515000D01*
X159724849Y-98539386D01*
X159731962Y-98562835D01*
X159743513Y-98584446D01*
X159759058Y-98603387D01*
X159778000Y-98618933D01*
X159799611Y-98630484D01*
X159874995Y-98661709D01*
X159874996Y-98661710D01*
X159965242Y-98722010D01*
X160041990Y-98798758D01*
X160041991Y-98798760D01*
X160102291Y-98889005D01*
X160143826Y-98989279D01*
X160165000Y-99095730D01*
X160165000Y-99204270D01*
X160143826Y-99310721D01*
X160102291Y-99410995D01*
X160102290Y-99410996D01*
X160041990Y-99501242D01*
X159965242Y-99577990D01*
X159933816Y-99598988D01*
X159872336Y-99640068D01*
X159853394Y-99655614D01*
X159837849Y-99674556D01*
X159826298Y-99696167D01*
X159819185Y-99719615D01*
X159816783Y-99744002D01*
X159819185Y-99768388D01*
X159826298Y-99791837D01*
X159837849Y-99813447D01*
X159853395Y-99832389D01*
X159872337Y-99847934D01*
X159893948Y-99859485D01*
X159917396Y-99866598D01*
X159941782Y-99869000D01*
X160165000Y-99869000D01*
X160165000Y-100971000D01*
X159063000Y-100971000D01*
X159063000Y-100747782D01*
X159060598Y-100723396D01*
X159053485Y-100699947D01*
X159041934Y-100678336D01*
X159026389Y-100659394D01*
X159007447Y-100643849D01*
X158985836Y-100632298D01*
X158962387Y-100625185D01*
X158938001Y-100622783D01*
X158913615Y-100625185D01*
X158890166Y-100632298D01*
X158868555Y-100643849D01*
X158849613Y-100659394D01*
X158834068Y-100678336D01*
X158792988Y-100739816D01*
X158771990Y-100771242D01*
X158695242Y-100847990D01*
X158649812Y-100878345D01*
X158604995Y-100908291D01*
X158504721Y-100949826D01*
X158398270Y-100971000D01*
X158289730Y-100971000D01*
X158183279Y-100949826D01*
X158083005Y-100908291D01*
X158038188Y-100878345D01*
X157992758Y-100847990D01*
X157916010Y-100771242D01*
X157884041Y-100723396D01*
X157855709Y-100680995D01*
X157814174Y-100580721D01*
X157793000Y-100474270D01*
X157793000Y-100365730D01*
X157814174Y-100259279D01*
X157855709Y-100159005D01*
X157916009Y-100068760D01*
X157916010Y-100068758D01*
X157992758Y-99992010D01*
X158083004Y-99931710D01*
X158083005Y-99931709D01*
X158158389Y-99900484D01*
X158180000Y-99888933D01*
X158198941Y-99873388D01*
X158214487Y-99854446D01*
X158226038Y-99832835D01*
X158233151Y-99809386D01*
X158235553Y-99785000D01*
X158452447Y-99785000D01*
X158454849Y-99809386D01*
X158461962Y-99832835D01*
X158473513Y-99854446D01*
X158489058Y-99873387D01*
X158508000Y-99888933D01*
X158529611Y-99900484D01*
X158604995Y-99931709D01*
X158604996Y-99931710D01*
X158695242Y-99992010D01*
X158771990Y-100068758D01*
X158771991Y-100068760D01*
X158834068Y-100161664D01*
X158849614Y-100180606D01*
X158868556Y-100196151D01*
X158890167Y-100207702D01*
X158913615Y-100214815D01*
X158938002Y-100217217D01*
X158962388Y-100214815D01*
X158985837Y-100207702D01*
X159007447Y-100196151D01*
X159026389Y-100180605D01*
X159041934Y-100161663D01*
X159053485Y-100140052D01*
X159060598Y-100116604D01*
X159063000Y-100092218D01*
X159063000Y-99869000D01*
X159286218Y-99869000D01*
X159310604Y-99866598D01*
X159334053Y-99859485D01*
X159355664Y-99847934D01*
X159374606Y-99832389D01*
X159390151Y-99813447D01*
X159401702Y-99791836D01*
X159408815Y-99768387D01*
X159411217Y-99744001D01*
X159408815Y-99719615D01*
X159401702Y-99696166D01*
X159390151Y-99674555D01*
X159374606Y-99655613D01*
X159355664Y-99640068D01*
X159294184Y-99598988D01*
X159262758Y-99577990D01*
X159186010Y-99501242D01*
X159125710Y-99410996D01*
X159125709Y-99410995D01*
X159094484Y-99335611D01*
X159082933Y-99314000D01*
X159067388Y-99295059D01*
X159048446Y-99279513D01*
X159026835Y-99267962D01*
X159003386Y-99260849D01*
X158979000Y-99258447D01*
X158954614Y-99260849D01*
X158931165Y-99267962D01*
X158909554Y-99279513D01*
X158890613Y-99295058D01*
X158875067Y-99314000D01*
X158863516Y-99335611D01*
X158832291Y-99410995D01*
X158832290Y-99410996D01*
X158771990Y-99501242D01*
X158695242Y-99577990D01*
X158649812Y-99608345D01*
X158604995Y-99638291D01*
X158529611Y-99669516D01*
X158508000Y-99681067D01*
X158489059Y-99696612D01*
X158473513Y-99715554D01*
X158461962Y-99737165D01*
X158454849Y-99760614D01*
X158452447Y-99785000D01*
X158235553Y-99785000D01*
X158233151Y-99760614D01*
X158226038Y-99737165D01*
X158214487Y-99715554D01*
X158198942Y-99696613D01*
X158180000Y-99681067D01*
X158158389Y-99669516D01*
X158083005Y-99638291D01*
X158038188Y-99608345D01*
X157992758Y-99577990D01*
X157916010Y-99501242D01*
X157855710Y-99410996D01*
X157855709Y-99410995D01*
X157814174Y-99310721D01*
X157793000Y-99204270D01*
X157793000Y-99095730D01*
X157814174Y-98989279D01*
X157855709Y-98889005D01*
X157916009Y-98798760D01*
X157916010Y-98798758D01*
X157992758Y-98722010D01*
X158083004Y-98661710D01*
X158083005Y-98661709D01*
X158158389Y-98630484D01*
X158180000Y-98618933D01*
X158198941Y-98603388D01*
X158214487Y-98584446D01*
X158226038Y-98562835D01*
X158233151Y-98539386D01*
X158235553Y-98515000D01*
X158452447Y-98515000D01*
X158454849Y-98539386D01*
X158461962Y-98562835D01*
X158473513Y-98584446D01*
X158489058Y-98603387D01*
X158508000Y-98618933D01*
X158529611Y-98630484D01*
X158604995Y-98661709D01*
X158604996Y-98661710D01*
X158695242Y-98722010D01*
X158771990Y-98798758D01*
X158771991Y-98798760D01*
X158832291Y-98889005D01*
X158863516Y-98964389D01*
X158875067Y-98986000D01*
X158890612Y-99004941D01*
X158909554Y-99020487D01*
X158931165Y-99032038D01*
X158954614Y-99039151D01*
X158979000Y-99041553D01*
X159003386Y-99039151D01*
X159026835Y-99032038D01*
X159048446Y-99020487D01*
X159067387Y-99004942D01*
X159082933Y-98986000D01*
X159094484Y-98964389D01*
X159125709Y-98889005D01*
X159186009Y-98798760D01*
X159186010Y-98798758D01*
X159262758Y-98722010D01*
X159353004Y-98661710D01*
X159353005Y-98661709D01*
X159428389Y-98630484D01*
X159450000Y-98618933D01*
X159468941Y-98603388D01*
X159484487Y-98584446D01*
X159496038Y-98562835D01*
X159503151Y-98539386D01*
X159505553Y-98515000D01*
X159503151Y-98490614D01*
X159496038Y-98467165D01*
X159484487Y-98445554D01*
X159468942Y-98426613D01*
X159450000Y-98411067D01*
X159428389Y-98399516D01*
X159353005Y-98368291D01*
X159308188Y-98338345D01*
X159262758Y-98307990D01*
X159186010Y-98231242D01*
X159125710Y-98140996D01*
X159125709Y-98140995D01*
X159094484Y-98065611D01*
X159082933Y-98044000D01*
X159067388Y-98025059D01*
X159048446Y-98009513D01*
X159026835Y-97997962D01*
X159003386Y-97990849D01*
X158979000Y-97988447D01*
X158954614Y-97990849D01*
X158931165Y-97997962D01*
X158909554Y-98009513D01*
X158890613Y-98025058D01*
X158875067Y-98044000D01*
X158863516Y-98065611D01*
X158832291Y-98140995D01*
X158832290Y-98140996D01*
X158771990Y-98231242D01*
X158695242Y-98307990D01*
X158649812Y-98338345D01*
X158604995Y-98368291D01*
X158529611Y-98399516D01*
X158508000Y-98411067D01*
X158489059Y-98426612D01*
X158473513Y-98445554D01*
X158461962Y-98467165D01*
X158454849Y-98490614D01*
X158452447Y-98515000D01*
X158235553Y-98515000D01*
X158233151Y-98490614D01*
X158226038Y-98467165D01*
X158214487Y-98445554D01*
X158198942Y-98426613D01*
X158180000Y-98411067D01*
X158158389Y-98399516D01*
X158083005Y-98368291D01*
X158038188Y-98338345D01*
X157992758Y-98307990D01*
X157916010Y-98231242D01*
X157855710Y-98140996D01*
X157855709Y-98140995D01*
X157814174Y-98040721D01*
X157793000Y-97934270D01*
X157793000Y-97825730D01*
X157814174Y-97719279D01*
X157855709Y-97619005D01*
X157916009Y-97528760D01*
X157916010Y-97528758D01*
X157992758Y-97452010D01*
X158083004Y-97391710D01*
X158083005Y-97391709D01*
X158158389Y-97360484D01*
X158180000Y-97348933D01*
X158198941Y-97333388D01*
X158214487Y-97314446D01*
X158226038Y-97292835D01*
X158233151Y-97269386D01*
X158235553Y-97245000D01*
X158452447Y-97245000D01*
X158454849Y-97269386D01*
X158461962Y-97292835D01*
X158473513Y-97314446D01*
X158489058Y-97333387D01*
X158508000Y-97348933D01*
X158529611Y-97360484D01*
X158604995Y-97391709D01*
X158604996Y-97391710D01*
X158695242Y-97452010D01*
X158771990Y-97528758D01*
X158771991Y-97528760D01*
X158832291Y-97619005D01*
X158863516Y-97694389D01*
X158875067Y-97716000D01*
X158890612Y-97734941D01*
X158909554Y-97750487D01*
X158931165Y-97762038D01*
X158954614Y-97769151D01*
X158979000Y-97771553D01*
X159003386Y-97769151D01*
X159026835Y-97762038D01*
X159048446Y-97750487D01*
X159067387Y-97734942D01*
X159082933Y-97716000D01*
X159094484Y-97694389D01*
X159125709Y-97619005D01*
X159186009Y-97528760D01*
X159186010Y-97528758D01*
X159262758Y-97452010D01*
X159353004Y-97391710D01*
X159353005Y-97391709D01*
X159428389Y-97360484D01*
X159450000Y-97348933D01*
X159468941Y-97333388D01*
X159484487Y-97314446D01*
X159496038Y-97292835D01*
X159503151Y-97269386D01*
X159505553Y-97245000D01*
X159503151Y-97220614D01*
X159496038Y-97197165D01*
X159484487Y-97175554D01*
X159468942Y-97156613D01*
X159450000Y-97141067D01*
X159428389Y-97129516D01*
X159353005Y-97098291D01*
X159308188Y-97068345D01*
X159262758Y-97037990D01*
X159186010Y-96961242D01*
X159125710Y-96870996D01*
X159125709Y-96870995D01*
X159094484Y-96795611D01*
X159082933Y-96774000D01*
X159067388Y-96755059D01*
X159048446Y-96739513D01*
X159026835Y-96727962D01*
X159003386Y-96720849D01*
X158979000Y-96718447D01*
X158954614Y-96720849D01*
X158931165Y-96727962D01*
X158909554Y-96739513D01*
X158890613Y-96755058D01*
X158875067Y-96774000D01*
X158863516Y-96795611D01*
X158832291Y-96870995D01*
X158832290Y-96870996D01*
X158771990Y-96961242D01*
X158695242Y-97037990D01*
X158649812Y-97068345D01*
X158604995Y-97098291D01*
X158529611Y-97129516D01*
X158508000Y-97141067D01*
X158489059Y-97156612D01*
X158473513Y-97175554D01*
X158461962Y-97197165D01*
X158454849Y-97220614D01*
X158452447Y-97245000D01*
X158235553Y-97245000D01*
X158233151Y-97220614D01*
X158226038Y-97197165D01*
X158214487Y-97175554D01*
X158198942Y-97156613D01*
X158180000Y-97141067D01*
X158158389Y-97129516D01*
X158083005Y-97098291D01*
X158038188Y-97068345D01*
X157992758Y-97037990D01*
X157916010Y-96961242D01*
X157855710Y-96870996D01*
X157855709Y-96870995D01*
X157814174Y-96770721D01*
X157793000Y-96664270D01*
X157793000Y-96555730D01*
X157814174Y-96449279D01*
X157855709Y-96349005D01*
X157916009Y-96258760D01*
X157916010Y-96258758D01*
X157992758Y-96182010D01*
X158083004Y-96121710D01*
X158083005Y-96121709D01*
X158158389Y-96090484D01*
X158180000Y-96078933D01*
X158198941Y-96063388D01*
X158214487Y-96044446D01*
X158226038Y-96022835D01*
X158233151Y-95999386D01*
X158235553Y-95975000D01*
X158452447Y-95975000D01*
X158454849Y-95999386D01*
X158461962Y-96022835D01*
X158473513Y-96044446D01*
X158489058Y-96063387D01*
X158508000Y-96078933D01*
X158529611Y-96090484D01*
X158604995Y-96121709D01*
X158604996Y-96121710D01*
X158695242Y-96182010D01*
X158771990Y-96258758D01*
X158771991Y-96258760D01*
X158832291Y-96349005D01*
X158863516Y-96424389D01*
X158875067Y-96446000D01*
X158890612Y-96464941D01*
X158909554Y-96480487D01*
X158931165Y-96492038D01*
X158954614Y-96499151D01*
X158979000Y-96501553D01*
X159003386Y-96499151D01*
X159026835Y-96492038D01*
X159048446Y-96480487D01*
X159067387Y-96464942D01*
X159082933Y-96446000D01*
X159094484Y-96424389D01*
X159125709Y-96349005D01*
X159186009Y-96258760D01*
X159186010Y-96258758D01*
X159262758Y-96182010D01*
X159353004Y-96121710D01*
X159353005Y-96121709D01*
X159428389Y-96090484D01*
X159450000Y-96078933D01*
X159468941Y-96063388D01*
X159484487Y-96044446D01*
X159496038Y-96022835D01*
X159503151Y-95999386D01*
X159505553Y-95975000D01*
X159503151Y-95950614D01*
X159496038Y-95927165D01*
X159484487Y-95905554D01*
X159468942Y-95886613D01*
X159450000Y-95871067D01*
X159428389Y-95859516D01*
X159353005Y-95828291D01*
X159308188Y-95798345D01*
X159262758Y-95767990D01*
X159186010Y-95691242D01*
X159125710Y-95600996D01*
X159125709Y-95600995D01*
X159094484Y-95525611D01*
X159082933Y-95504000D01*
X159067388Y-95485059D01*
X159048446Y-95469513D01*
X159026835Y-95457962D01*
X159003386Y-95450849D01*
X158979000Y-95448447D01*
X158954614Y-95450849D01*
X158931165Y-95457962D01*
X158909554Y-95469513D01*
X158890613Y-95485058D01*
X158875067Y-95504000D01*
X158863516Y-95525611D01*
X158832291Y-95600995D01*
X158832290Y-95600996D01*
X158771990Y-95691242D01*
X158695242Y-95767990D01*
X158649812Y-95798345D01*
X158604995Y-95828291D01*
X158529611Y-95859516D01*
X158508000Y-95871067D01*
X158489059Y-95886612D01*
X158473513Y-95905554D01*
X158461962Y-95927165D01*
X158454849Y-95950614D01*
X158452447Y-95975000D01*
X158235553Y-95975000D01*
X158233151Y-95950614D01*
X158226038Y-95927165D01*
X158214487Y-95905554D01*
X158198942Y-95886613D01*
X158180000Y-95871067D01*
X158158389Y-95859516D01*
X158083005Y-95828291D01*
X158038188Y-95798345D01*
X157992758Y-95767990D01*
X157916010Y-95691242D01*
X157855710Y-95600996D01*
X157855709Y-95600995D01*
X157814174Y-95500721D01*
X157793000Y-95394270D01*
X157793000Y-95285730D01*
X157814174Y-95179279D01*
X157855709Y-95079005D01*
X157916009Y-94988760D01*
X157916010Y-94988758D01*
X157992758Y-94912010D01*
X158083004Y-94851710D01*
X158083005Y-94851709D01*
X158183279Y-94810174D01*
X158289730Y-94789000D01*
X158398270Y-94789000D01*
X158504721Y-94810174D01*
G37*
G36*
X167893796Y-95394269D02*
G01*
X168066410Y-95428604D01*
X168348674Y-95545521D01*
X168602705Y-95715259D01*
X168818741Y-95931295D01*
X168988479Y-96185326D01*
X169105396Y-96467590D01*
X169122928Y-96555730D01*
X169155295Y-96718447D01*
X169165000Y-96767240D01*
X169165000Y-97072760D01*
X169105396Y-97372410D01*
X168988479Y-97654674D01*
X168818741Y-97908705D01*
X168602705Y-98124741D01*
X168348674Y-98294479D01*
X168066410Y-98411396D01*
X167967854Y-98431000D01*
X167766761Y-98471000D01*
X167461239Y-98471000D01*
X167260146Y-98431000D01*
X167161590Y-98411396D01*
X166879326Y-98294479D01*
X166625295Y-98124741D01*
X166409259Y-97908705D01*
X166239521Y-97654674D01*
X166122604Y-97372410D01*
X166063000Y-97072760D01*
X166063000Y-96767240D01*
X166072706Y-96718447D01*
X166105072Y-96555730D01*
X166122604Y-96467590D01*
X166239521Y-96185326D01*
X166409259Y-95931295D01*
X166625295Y-95715259D01*
X166879326Y-95545521D01*
X167161590Y-95428604D01*
X167334204Y-95394269D01*
X167461239Y-95369000D01*
X167766761Y-95369000D01*
X167893796Y-95394269D01*
G37*
G36*
X112893796Y-95394269D02*
G01*
X113066410Y-95428604D01*
X113348674Y-95545521D01*
X113602705Y-95715259D01*
X113818741Y-95931295D01*
X113988479Y-96185326D01*
X114105396Y-96467590D01*
X114122928Y-96555730D01*
X114155295Y-96718447D01*
X114165000Y-96767240D01*
X114165000Y-97072760D01*
X114105396Y-97372410D01*
X113988479Y-97654674D01*
X113818741Y-97908705D01*
X113602705Y-98124741D01*
X113348674Y-98294479D01*
X113066410Y-98411396D01*
X112967854Y-98431000D01*
X112766761Y-98471000D01*
X112461239Y-98471000D01*
X112260146Y-98431000D01*
X112161590Y-98411396D01*
X111879326Y-98294479D01*
X111625295Y-98124741D01*
X111409259Y-97908705D01*
X111239521Y-97654674D01*
X111122604Y-97372410D01*
X111063000Y-97072760D01*
X111063000Y-96767240D01*
X111072706Y-96718447D01*
X111105072Y-96555730D01*
X111122604Y-96467590D01*
X111239521Y-96185326D01*
X111409259Y-95931295D01*
X111625295Y-95715259D01*
X111879326Y-95545521D01*
X112161590Y-95428604D01*
X112334204Y-95394269D01*
X112461239Y-95369000D01*
X112766761Y-95369000D01*
X112893796Y-95394269D01*
G37*
G36*
X126082205Y-95071200D02*
G01*
X126215097Y-95111513D01*
X126337571Y-95176977D01*
X126444923Y-95265077D01*
X126533023Y-95372429D01*
X126598487Y-95494903D01*
X126638800Y-95627795D01*
X126649000Y-95731364D01*
X126649000Y-97108636D01*
X126638800Y-97212205D01*
X126598487Y-97345097D01*
X126533023Y-97467571D01*
X126444923Y-97574922D01*
X126337570Y-97663023D01*
X126215096Y-97728487D01*
X126082204Y-97768800D01*
X125944000Y-97782411D01*
X125805795Y-97768800D01*
X125672903Y-97728487D01*
X125550429Y-97663023D01*
X125443078Y-97574923D01*
X125354977Y-97467570D01*
X125289513Y-97345096D01*
X125249200Y-97212204D01*
X125239000Y-97108635D01*
X125239001Y-95731364D01*
X125249201Y-95627795D01*
X125289514Y-95494903D01*
X125354978Y-95372429D01*
X125443078Y-95265077D01*
X125550430Y-95176977D01*
X125672904Y-95111513D01*
X125805796Y-95071200D01*
X125944000Y-95057589D01*
X126082205Y-95071200D01*
G37*
G36*
X128582205Y-95071200D02*
G01*
X128715097Y-95111513D01*
X128837571Y-95176977D01*
X128944923Y-95265077D01*
X129033023Y-95372429D01*
X129098487Y-95494903D01*
X129138800Y-95627795D01*
X129149000Y-95731364D01*
X129149000Y-97108636D01*
X129138800Y-97212205D01*
X129098487Y-97345097D01*
X129033023Y-97467571D01*
X128944923Y-97574922D01*
X128837570Y-97663023D01*
X128715096Y-97728487D01*
X128582204Y-97768800D01*
X128444000Y-97782411D01*
X128305795Y-97768800D01*
X128172903Y-97728487D01*
X128050429Y-97663023D01*
X127943078Y-97574923D01*
X127854977Y-97467570D01*
X127789513Y-97345096D01*
X127749200Y-97212204D01*
X127739000Y-97108635D01*
X127739001Y-95731364D01*
X127749201Y-95627795D01*
X127789514Y-95494903D01*
X127854978Y-95372429D01*
X127943078Y-95265077D01*
X128050430Y-95176977D01*
X128172904Y-95111513D01*
X128305796Y-95071200D01*
X128444000Y-95057589D01*
X128582205Y-95071200D01*
G37*
G36*
X121082205Y-95071200D02*
G01*
X121215097Y-95111513D01*
X121337571Y-95176977D01*
X121444923Y-95265077D01*
X121533023Y-95372429D01*
X121598487Y-95494903D01*
X121638800Y-95627795D01*
X121649000Y-95731364D01*
X121649000Y-97108636D01*
X121638800Y-97212205D01*
X121598487Y-97345097D01*
X121533023Y-97467571D01*
X121444923Y-97574922D01*
X121337570Y-97663023D01*
X121215096Y-97728487D01*
X121082204Y-97768800D01*
X120944000Y-97782411D01*
X120805795Y-97768800D01*
X120672903Y-97728487D01*
X120550429Y-97663023D01*
X120443078Y-97574923D01*
X120354977Y-97467570D01*
X120289513Y-97345096D01*
X120249200Y-97212204D01*
X120239000Y-97108635D01*
X120239001Y-95731364D01*
X120249201Y-95627795D01*
X120289514Y-95494903D01*
X120354978Y-95372429D01*
X120443078Y-95265077D01*
X120550430Y-95176977D01*
X120672904Y-95111513D01*
X120805796Y-95071200D01*
X120944000Y-95057589D01*
X121082205Y-95071200D01*
G37*
G36*
X118582205Y-95071200D02*
G01*
X118715097Y-95111513D01*
X118837571Y-95176977D01*
X118944923Y-95265077D01*
X119033023Y-95372429D01*
X119098487Y-95494903D01*
X119138800Y-95627795D01*
X119149000Y-95731364D01*
X119149000Y-97108636D01*
X119138800Y-97212205D01*
X119098487Y-97345097D01*
X119033023Y-97467571D01*
X118944923Y-97574922D01*
X118837570Y-97663023D01*
X118715096Y-97728487D01*
X118582204Y-97768800D01*
X118444000Y-97782411D01*
X118305795Y-97768800D01*
X118172903Y-97728487D01*
X118050429Y-97663023D01*
X117943078Y-97574923D01*
X117854977Y-97467570D01*
X117789513Y-97345096D01*
X117749200Y-97212204D01*
X117739000Y-97108635D01*
X117739001Y-95731364D01*
X117749201Y-95627795D01*
X117789514Y-95494903D01*
X117854978Y-95372429D01*
X117943078Y-95265077D01*
X118050430Y-95176977D01*
X118172904Y-95111513D01*
X118305796Y-95071200D01*
X118444000Y-95057589D01*
X118582205Y-95071200D01*
G37*
G36*
X123633890Y-95794017D02*
G01*
X123752364Y-95843091D01*
X123858988Y-95914335D01*
X123949665Y-96005012D01*
X124006776Y-96090484D01*
X124020910Y-96111638D01*
X124025082Y-96121710D01*
X124069983Y-96230110D01*
X124095000Y-96355882D01*
X124095000Y-96484118D01*
X124069983Y-96609890D01*
X124020909Y-96728364D01*
X123949665Y-96834988D01*
X123858988Y-96925665D01*
X123752364Y-96996909D01*
X123752363Y-96996910D01*
X123752362Y-96996910D01*
X123633890Y-97045983D01*
X123508119Y-97071000D01*
X123379881Y-97071000D01*
X123254110Y-97045983D01*
X123135638Y-96996910D01*
X123135637Y-96996910D01*
X123135636Y-96996909D01*
X123029012Y-96925665D01*
X122938335Y-96834988D01*
X122867091Y-96728364D01*
X122818017Y-96609890D01*
X122793000Y-96484118D01*
X122793000Y-96355882D01*
X122818017Y-96230110D01*
X122862918Y-96121710D01*
X122867090Y-96111638D01*
X122881225Y-96090484D01*
X122938335Y-96005012D01*
X123029012Y-95914335D01*
X123135636Y-95843091D01*
X123254110Y-95794017D01*
X123379881Y-95769000D01*
X123508119Y-95769000D01*
X123633890Y-95794017D01*
G37*
G36*
X135140348Y-90886320D02*
G01*
X135140350Y-90886321D01*
X135140351Y-90886321D01*
X135281574Y-90944817D01*
X135281577Y-90944819D01*
X135408669Y-91029739D01*
X135516761Y-91137831D01*
X135578420Y-91230110D01*
X135601683Y-91264926D01*
X135660179Y-91406149D01*
X135660180Y-91406152D01*
X135690000Y-91556069D01*
X135690000Y-91708931D01*
X135669186Y-91813572D01*
X135660179Y-91858851D01*
X135601683Y-92000074D01*
X135601681Y-92000077D01*
X135516761Y-92127169D01*
X135408669Y-92235261D01*
X135281577Y-92320181D01*
X135281574Y-92320183D01*
X135140351Y-92378679D01*
X135140350Y-92378679D01*
X135140348Y-92378680D01*
X134990431Y-92408500D01*
X134837569Y-92408500D01*
X134687652Y-92378680D01*
X134687650Y-92378679D01*
X134687649Y-92378679D01*
X134546426Y-92320183D01*
X134546423Y-92320181D01*
X134419331Y-92235261D01*
X134311239Y-92127169D01*
X134226319Y-92000077D01*
X134226317Y-92000074D01*
X134167821Y-91858851D01*
X134158815Y-91813572D01*
X134138000Y-91708931D01*
X134138000Y-91556069D01*
X134167820Y-91406152D01*
X134167821Y-91406149D01*
X134226317Y-91264926D01*
X134249580Y-91230110D01*
X134311239Y-91137831D01*
X134419331Y-91029739D01*
X134546423Y-90944819D01*
X134546426Y-90944817D01*
X134687649Y-90886321D01*
X134687650Y-90886321D01*
X134687652Y-90886320D01*
X134837569Y-90856500D01*
X134990431Y-90856500D01*
X135140348Y-90886320D01*
G37*
G36*
X140140348Y-90886320D02*
G01*
X140140350Y-90886321D01*
X140140351Y-90886321D01*
X140281574Y-90944817D01*
X140281577Y-90944819D01*
X140408669Y-91029739D01*
X140516761Y-91137831D01*
X140578420Y-91230110D01*
X140601683Y-91264926D01*
X140660179Y-91406149D01*
X140660180Y-91406152D01*
X140690000Y-91556069D01*
X140690000Y-91708931D01*
X140669186Y-91813572D01*
X140660179Y-91858851D01*
X140601683Y-92000074D01*
X140601681Y-92000077D01*
X140516761Y-92127169D01*
X140408669Y-92235261D01*
X140281577Y-92320181D01*
X140281574Y-92320183D01*
X140140351Y-92378679D01*
X140140350Y-92378679D01*
X140140348Y-92378680D01*
X139990431Y-92408500D01*
X139837569Y-92408500D01*
X139687652Y-92378680D01*
X139687650Y-92378679D01*
X139687649Y-92378679D01*
X139546426Y-92320183D01*
X139546423Y-92320181D01*
X139419331Y-92235261D01*
X139311239Y-92127169D01*
X139226319Y-92000077D01*
X139226317Y-92000074D01*
X139167821Y-91858851D01*
X139158815Y-91813572D01*
X139138000Y-91708931D01*
X139138000Y-91556069D01*
X139167820Y-91406152D01*
X139167821Y-91406149D01*
X139226317Y-91264926D01*
X139249580Y-91230110D01*
X139311239Y-91137831D01*
X139419331Y-91029739D01*
X139546423Y-90944819D01*
X139546426Y-90944817D01*
X139687649Y-90886321D01*
X139687650Y-90886321D01*
X139687652Y-90886320D01*
X139837569Y-90856500D01*
X139990431Y-90856500D01*
X140140348Y-90886320D01*
G37*
G36*
X124236205Y-90725200D02*
G01*
X124369097Y-90765513D01*
X124491571Y-90830977D01*
X124598923Y-90919077D01*
X124687023Y-91026429D01*
X124752487Y-91148903D01*
X124792800Y-91281795D01*
X124806411Y-91420000D01*
X124792800Y-91558205D01*
X124752487Y-91691097D01*
X124687023Y-91813571D01*
X124598923Y-91920923D01*
X124491571Y-92009023D01*
X124369097Y-92074487D01*
X124236205Y-92114800D01*
X124132636Y-92125000D01*
X122755364Y-92125000D01*
X122651795Y-92114800D01*
X122518903Y-92074487D01*
X122396429Y-92009023D01*
X122289077Y-91920923D01*
X122200977Y-91813571D01*
X122135513Y-91691097D01*
X122095200Y-91558205D01*
X122081589Y-91420000D01*
X122095200Y-91281795D01*
X122135513Y-91148903D01*
X122200977Y-91026429D01*
X122289077Y-90919077D01*
X122396429Y-90830977D01*
X122518903Y-90765513D01*
X122651795Y-90725200D01*
X122755364Y-90715000D01*
X124132636Y-90715000D01*
X124236205Y-90725200D01*
G37*
G36*
X118633890Y-90794017D02*
G01*
X118723119Y-90830977D01*
X118752364Y-90843091D01*
X118858988Y-90914335D01*
X118949665Y-91005012D01*
X119002747Y-91084454D01*
X119020910Y-91111638D01*
X119069983Y-91230110D01*
X119095000Y-91355881D01*
X119095000Y-91484119D01*
X119069983Y-91609890D01*
X119028959Y-91708931D01*
X119020909Y-91728364D01*
X118949665Y-91834988D01*
X118858988Y-91925665D01*
X118752364Y-91996909D01*
X118752363Y-91996910D01*
X118752362Y-91996910D01*
X118633890Y-92045983D01*
X118508119Y-92071000D01*
X118379881Y-92071000D01*
X118254110Y-92045983D01*
X118135638Y-91996910D01*
X118135637Y-91996910D01*
X118135636Y-91996909D01*
X118029012Y-91925665D01*
X117938335Y-91834988D01*
X117867091Y-91728364D01*
X117859042Y-91708931D01*
X117818017Y-91609890D01*
X117793000Y-91484119D01*
X117793000Y-91355881D01*
X117818017Y-91230110D01*
X117867090Y-91111638D01*
X117885254Y-91084454D01*
X117938335Y-91005012D01*
X118029012Y-90914335D01*
X118135636Y-90843091D01*
X118164882Y-90830977D01*
X118254110Y-90794017D01*
X118379881Y-90769000D01*
X118508119Y-90769000D01*
X118633890Y-90794017D01*
G37*
G36*
X128633890Y-90794017D02*
G01*
X128723119Y-90830977D01*
X128752364Y-90843091D01*
X128858988Y-90914335D01*
X128949665Y-91005012D01*
X129002747Y-91084454D01*
X129020910Y-91111638D01*
X129069983Y-91230110D01*
X129095000Y-91355881D01*
X129095000Y-91484119D01*
X129069983Y-91609890D01*
X129028959Y-91708931D01*
X129020909Y-91728364D01*
X128949665Y-91834988D01*
X128858988Y-91925665D01*
X128752364Y-91996909D01*
X128752363Y-91996910D01*
X128752362Y-91996910D01*
X128633890Y-92045983D01*
X128508119Y-92071000D01*
X128379881Y-92071000D01*
X128254110Y-92045983D01*
X128135638Y-91996910D01*
X128135637Y-91996910D01*
X128135636Y-91996909D01*
X128029012Y-91925665D01*
X127938335Y-91834988D01*
X127867091Y-91728364D01*
X127859042Y-91708931D01*
X127818017Y-91609890D01*
X127793000Y-91484119D01*
X127793000Y-91355881D01*
X127818017Y-91230110D01*
X127867090Y-91111638D01*
X127885254Y-91084454D01*
X127938335Y-91005012D01*
X128029012Y-90914335D01*
X128135636Y-90843091D01*
X128164882Y-90830977D01*
X128254110Y-90794017D01*
X128379881Y-90769000D01*
X128508119Y-90769000D01*
X128633890Y-90794017D01*
G37*
G36*
X147851395Y-89255546D02*
G01*
X148024466Y-89327234D01*
X148090780Y-89371544D01*
X148180227Y-89431310D01*
X148312690Y-89563773D01*
X148312691Y-89563775D01*
X148416766Y-89719534D01*
X148488454Y-89892605D01*
X148525000Y-90076333D01*
X148525000Y-90263667D01*
X148488454Y-90447395D01*
X148416766Y-90620466D01*
X148416765Y-90620467D01*
X148312690Y-90776227D01*
X148180227Y-90908690D01*
X148164680Y-90919078D01*
X148024466Y-91012766D01*
X147851395Y-91084454D01*
X147667667Y-91121000D01*
X147480333Y-91121000D01*
X147296605Y-91084454D01*
X147123534Y-91012766D01*
X146983320Y-90919078D01*
X146967773Y-90908690D01*
X146835310Y-90776227D01*
X146731235Y-90620467D01*
X146731234Y-90620466D01*
X146659546Y-90447395D01*
X146623000Y-90263667D01*
X146623000Y-90076333D01*
X146659546Y-89892605D01*
X146731234Y-89719534D01*
X146835309Y-89563775D01*
X146835310Y-89563773D01*
X146967773Y-89431310D01*
X147057220Y-89371544D01*
X147123534Y-89327234D01*
X147296605Y-89255546D01*
X147480333Y-89219000D01*
X147667667Y-89219000D01*
X147851395Y-89255546D01*
G37*
G36*
X150391395Y-89255546D02*
G01*
X150564466Y-89327234D01*
X150630780Y-89371544D01*
X150720227Y-89431310D01*
X150852690Y-89563773D01*
X150852691Y-89563775D01*
X150956766Y-89719534D01*
X151028454Y-89892605D01*
X151065000Y-90076333D01*
X151065000Y-90263667D01*
X151028454Y-90447395D01*
X150956766Y-90620466D01*
X150956765Y-90620467D01*
X150852690Y-90776227D01*
X150720227Y-90908690D01*
X150704680Y-90919078D01*
X150564466Y-91012766D01*
X150391395Y-91084454D01*
X150207667Y-91121000D01*
X150020333Y-91121000D01*
X149836605Y-91084454D01*
X149663534Y-91012766D01*
X149523320Y-90919078D01*
X149507773Y-90908690D01*
X149375310Y-90776227D01*
X149271235Y-90620467D01*
X149271234Y-90620466D01*
X149199546Y-90447395D01*
X149163000Y-90263667D01*
X149163000Y-90076333D01*
X149199546Y-89892605D01*
X149271234Y-89719534D01*
X149375309Y-89563775D01*
X149375310Y-89563773D01*
X149507773Y-89431310D01*
X149597220Y-89371544D01*
X149663534Y-89327234D01*
X149836605Y-89255546D01*
X150020333Y-89219000D01*
X150207667Y-89219000D01*
X150391395Y-89255546D01*
G37*
G36*
X145985000Y-91121000D02*
G01*
X144083000Y-91121000D01*
X144083000Y-89219000D01*
X145985000Y-89219000D01*
X145985000Y-91121000D01*
G37*
G36*
X161657512Y-89273927D02*
G01*
X161806812Y-89303624D01*
X161970784Y-89371544D01*
X162118354Y-89470147D01*
X162243853Y-89595646D01*
X162342456Y-89743216D01*
X162410376Y-89907188D01*
X162445000Y-90081259D01*
X162445000Y-90258741D01*
X162410376Y-90432812D01*
X162342456Y-90596784D01*
X162243853Y-90744354D01*
X162118354Y-90869853D01*
X161970784Y-90968456D01*
X161806812Y-91036376D01*
X161657512Y-91066073D01*
X161632742Y-91071000D01*
X161455258Y-91071000D01*
X161430488Y-91066073D01*
X161281188Y-91036376D01*
X161117216Y-90968456D01*
X160969646Y-90869853D01*
X160844147Y-90744354D01*
X160745544Y-90596784D01*
X160677624Y-90432812D01*
X160643000Y-90258741D01*
X160643000Y-90081259D01*
X160677624Y-89907188D01*
X160745544Y-89743216D01*
X160844147Y-89595646D01*
X160969646Y-89470147D01*
X161117216Y-89371544D01*
X161281188Y-89303624D01*
X161430488Y-89273927D01*
X161455258Y-89269000D01*
X161632742Y-89269000D01*
X161657512Y-89273927D01*
G37*
G36*
X159117512Y-89273927D02*
G01*
X159266812Y-89303624D01*
X159430784Y-89371544D01*
X159578354Y-89470147D01*
X159703853Y-89595646D01*
X159802456Y-89743216D01*
X159870376Y-89907188D01*
X159905000Y-90081259D01*
X159905000Y-90258741D01*
X159870376Y-90432812D01*
X159802456Y-90596784D01*
X159703853Y-90744354D01*
X159578354Y-90869853D01*
X159430784Y-90968456D01*
X159266812Y-91036376D01*
X159117512Y-91066073D01*
X159092742Y-91071000D01*
X158915258Y-91071000D01*
X158890488Y-91066073D01*
X158741188Y-91036376D01*
X158577216Y-90968456D01*
X158429646Y-90869853D01*
X158304147Y-90744354D01*
X158205544Y-90596784D01*
X158137624Y-90432812D01*
X158103000Y-90258741D01*
X158103000Y-90081259D01*
X158137624Y-89907188D01*
X158205544Y-89743216D01*
X158304147Y-89595646D01*
X158429646Y-89470147D01*
X158577216Y-89371544D01*
X158741188Y-89303624D01*
X158890488Y-89273927D01*
X158915258Y-89269000D01*
X159092742Y-89269000D01*
X159117512Y-89273927D01*
G37*
G36*
X157365000Y-91071000D02*
G01*
X155563000Y-91071000D01*
X155563000Y-89269000D01*
X157365000Y-89269000D01*
X157365000Y-91071000D01*
G37*
G36*
X141041617Y-87940920D02*
G01*
X141132403Y-87968460D01*
X141164335Y-87978146D01*
X141277424Y-88038594D01*
X141376554Y-88119947D01*
X141457906Y-88219075D01*
X141518354Y-88332164D01*
X141528040Y-88364096D01*
X141555580Y-88454882D01*
X141555580Y-88454884D01*
X141565000Y-88550526D01*
X141565000Y-89314474D01*
X141561860Y-89346355D01*
X141555580Y-89410118D01*
X141549151Y-89431310D01*
X141518354Y-89532836D01*
X141457906Y-89645925D01*
X141376554Y-89745054D01*
X141277425Y-89826406D01*
X141164336Y-89886854D01*
X141145380Y-89892604D01*
X141041618Y-89924080D01*
X140914000Y-89936649D01*
X140786383Y-89924080D01*
X140682621Y-89892604D01*
X140663665Y-89886854D01*
X140550576Y-89826406D01*
X140451447Y-89745054D01*
X140370095Y-89645925D01*
X140326184Y-89563773D01*
X140309645Y-89532832D01*
X140272420Y-89410118D01*
X140263000Y-89314473D01*
X140263000Y-88550528D01*
X140272420Y-88454883D01*
X140309645Y-88332169D01*
X140309646Y-88332165D01*
X140370094Y-88219076D01*
X140451447Y-88119946D01*
X140550575Y-88038594D01*
X140663664Y-87978146D01*
X140695596Y-87968460D01*
X140786382Y-87940920D01*
X140914000Y-87928351D01*
X141041617Y-87940920D01*
G37*
G36*
X134041618Y-87940920D02*
G01*
X134132404Y-87968460D01*
X134164336Y-87978146D01*
X134277425Y-88038594D01*
X134376554Y-88119946D01*
X134457906Y-88219075D01*
X134518354Y-88332164D01*
X134528040Y-88364096D01*
X134555580Y-88454882D01*
X134555580Y-88454884D01*
X134565000Y-88550526D01*
X134565000Y-89314474D01*
X134561860Y-89346355D01*
X134555580Y-89410118D01*
X134549151Y-89431310D01*
X134518354Y-89532836D01*
X134457906Y-89645925D01*
X134376554Y-89745053D01*
X134277424Y-89826406D01*
X134164335Y-89886854D01*
X134145379Y-89892604D01*
X134041617Y-89924080D01*
X133914000Y-89936649D01*
X133786382Y-89924080D01*
X133682620Y-89892604D01*
X133663664Y-89886854D01*
X133550575Y-89826406D01*
X133451447Y-89745054D01*
X133370094Y-89645924D01*
X133309646Y-89532835D01*
X133278849Y-89431309D01*
X133272420Y-89410117D01*
X133263000Y-89314472D01*
X133263000Y-88550527D01*
X133272420Y-88454882D01*
X133309645Y-88332168D01*
X133334608Y-88285466D01*
X133370095Y-88219075D01*
X133451447Y-88119946D01*
X133550576Y-88038594D01*
X133663665Y-87978146D01*
X133695597Y-87968460D01*
X133786383Y-87940920D01*
X133914000Y-87928351D01*
X134041618Y-87940920D01*
G37*
G36*
X128633890Y-88294017D02*
G01*
X128725997Y-88332169D01*
X128752364Y-88343091D01*
X128858988Y-88414335D01*
X128949665Y-88505012D01*
X129020909Y-88611636D01*
X129069983Y-88730110D01*
X129095000Y-88855882D01*
X129095000Y-88984118D01*
X129069983Y-89109890D01*
X129020909Y-89228364D01*
X128949665Y-89334988D01*
X128858988Y-89425665D01*
X128752364Y-89496909D01*
X128752363Y-89496910D01*
X128752362Y-89496910D01*
X128633890Y-89545983D01*
X128508119Y-89571000D01*
X128379881Y-89571000D01*
X128254110Y-89545983D01*
X128135638Y-89496910D01*
X128135637Y-89496910D01*
X128135636Y-89496909D01*
X128029012Y-89425665D01*
X127938335Y-89334988D01*
X127867091Y-89228364D01*
X127818017Y-89109890D01*
X127793000Y-88984118D01*
X127793000Y-88855882D01*
X127818017Y-88730110D01*
X127867091Y-88611636D01*
X127938335Y-88505012D01*
X128029012Y-88414335D01*
X128135636Y-88343091D01*
X128162004Y-88332169D01*
X128254110Y-88294017D01*
X128379881Y-88269000D01*
X128508119Y-88269000D01*
X128633890Y-88294017D01*
G37*
G36*
X118633890Y-88294017D02*
G01*
X118725997Y-88332169D01*
X118752364Y-88343091D01*
X118858988Y-88414335D01*
X118949665Y-88505012D01*
X119020909Y-88611636D01*
X119069983Y-88730110D01*
X119095000Y-88855882D01*
X119095000Y-88984118D01*
X119069983Y-89109890D01*
X119020909Y-89228364D01*
X118949665Y-89334988D01*
X118858988Y-89425665D01*
X118752364Y-89496909D01*
X118752363Y-89496910D01*
X118752362Y-89496910D01*
X118633890Y-89545983D01*
X118508119Y-89571000D01*
X118379881Y-89571000D01*
X118254110Y-89545983D01*
X118135638Y-89496910D01*
X118135637Y-89496910D01*
X118135636Y-89496909D01*
X118029012Y-89425665D01*
X117938335Y-89334988D01*
X117867091Y-89228364D01*
X117818017Y-89109890D01*
X117793000Y-88984118D01*
X117793000Y-88855882D01*
X117818017Y-88730110D01*
X117867091Y-88611636D01*
X117938335Y-88505012D01*
X118029012Y-88414335D01*
X118135636Y-88343091D01*
X118162004Y-88332169D01*
X118254110Y-88294017D01*
X118379881Y-88269000D01*
X118508119Y-88269000D01*
X118633890Y-88294017D01*
G37*
M02*
