M48
; DRILL file {KiCad (5.1.5)-3} date 12/2/2020 12:44:10 PM
; FORMAT={-:-/ absolute / inch / decimal}
; #@! TF.CreationDate,2020-12-02T12:44:10-08:00
; #@! TF.GenerationSoftware,Kicad,Pcbnew,(5.1.5)-3
FMAT,2
INCH
T1C0.0157
T2C0.0236
T3C0.0256
T4C0.0315
T5C0.0335
T6C0.0354
T7C0.0394
T8C0.0472
T9C0.0941
T10C0.1181
T11C0.1358
%
G90
G05
T1
X4.3575Y-4.4875
X4.4927Y-4.6228
X5.2998Y-4.2488
X5.2998Y-4.426
X5.3391Y-3.678
X5.3391Y-3.8945
X5.3391Y-4.0913
X5.3982Y-4.3079
X5.466Y-4.2291
X5.536Y-4.111
X5.6344Y-4.7213
X5.8509Y-4.485
X5.9297Y-4.1307
X5.9494Y-4.485
X5.9494Y-4.6819
X6.0478Y-4.6404
X6.0675Y-4.1907
X6.0872Y-4.2291
X6.2643Y-4.0717
X6.2654Y-4.3068
X6.3234Y-4.3276
X6.3431Y-4.5018
X6.4809Y-4.0126
X7.2683Y-5.115
T3
X6.234Y-3.7535
X6.234Y-3.8035
X6.234Y-3.8535
X6.234Y-3.9035
X6.234Y-3.9535
X6.284Y-3.7535
X6.284Y-3.8035
X6.284Y-3.8535
X6.284Y-3.9035
X6.284Y-3.9535
T4
X4.8143Y-4.0543
X4.87Y-4.11
X5.1913Y-4.53
X5.27Y-4.53
X5.0643Y-4.0543
X5.12Y-4.11
X5.08Y-4.29
X5.08Y-4.3687
T5
X5.3116Y-3.6076
X5.5084Y-3.6076
T6
X5.71Y-3.55
X5.81Y-3.55
X5.91Y-3.55
T7
X6.8943Y-4.0913
X6.965Y-4.162
X7.0357Y-4.2328
X7.1064Y-4.3035
X3.9218Y-4.3079
X3.9925Y-4.2372
X4.0632Y-4.1665
X4.1339Y-4.0957
X6.16Y-3.55
X6.26Y-3.55
X6.36Y-3.55
T8
X4.6631Y-3.5008
X4.6631Y-3.5992
X4.86Y-3.7961
X5.0569Y-3.5008
X5.0569Y-3.5992
T9
X4.1017Y-4.8
T10
X6.599Y-3.8157
X3.5675Y-5.3709
X7.4651Y-5.3709
X4.4336Y-3.8157
T11
X4.4297Y-5.4299
X6.6029Y-4.8
T2
G00X5.2722Y-3.5151
M15
G01X5.2722Y-3.4875
M16
G05
G00X5.5478Y-3.4875
M15
G01X5.5478Y-3.5151
M16
G05
T4
G00X4.6631Y-3.7823
M15
G01X4.6631Y-3.8098
M16
G05
G00X4.7616Y-3.7823
M15
G01X4.7616Y-3.8098
M16
G05
G00X4.8738Y-3.5992
M15
G01X4.8462Y-3.5992
M16
G05
G00X4.9584Y-3.7823
M15
G01X4.9584Y-3.8098
M16
G05
G00X5.0569Y-3.7823
M15
G01X5.0569Y-3.8098
M16
G05
T0
M30
